{
.appVersion = "919";
copyright = "Copyright (c) 2006-2012 by Jovanny Lemonad (jovanny.ru), with Reserved Font Name \"Cuprum\"";
customParameters = (
{
name = licenseURL;
value = "http://scripts.sil.org/OFL";
},
{
name = trademark;
value = "Cuprum is a trademark of Jovanny Lemonad.";
},
{
name = license;
value = "This Font Software is licensed under the SIL Open Font License, Version 1.1. This license is available with a FAQ at: http://scripts.sil.org/OFL";
},
{
name = glyphOrder;
value = (
A,
AE,
Aacute,
Acircumflex,
Adieresis,
Agrave,
Amacron,
Aogonek,
Aring,
Atilde,
B,
C,
Cacute,
Ccaron,
Ccedilla,
D,
E,
Eacute,
Ecircumflex,
Edieresis,
Edotaccent,
Egrave,
Emacron,
Eogonek,
Eth,
Euro,
F,
G,
Gbreve,
Gcommaaccent,
H,
I,
Iacute,
Icircumflex,
Idieresis,
Idotaccent,
Igrave,
Iogonek,
J,
K,
Kcommaaccent,
L,
Lcommaaccent,
Lslash,
M,
N,
Nacute,
Ncommaaccent,
Ntilde,
O,
OE,
Oacute,
Ocircumflex,
Odieresis,
Ograve,
Omacron,
Oslash,
Otilde,
P,
Q,
R,
Rcommaaccent,
S,
Sacute,
Scaron,
Scedilla,
T,
Thorn,
U,
Uacute,
Ucircumflex,
Udieresis,
Ugrave,
Umacron,
Uogonek,
V,
W,
X,
Y,
Yacute,
Ydieresis,
Z,
Zacute,
Zcaron,
Zdotaccent,
a,
aacute,
acircumflex,
acute,
adieresis,
ae,
afii10017,
afii10018,
afii10019,
afii10020,
afii10021,
afii10022,
afii10023,
afii10024,
afii10025,
afii10026,
afii10027,
afii10028,
afii10029,
afii10030,
afii10031,
afii10032,
afii10033,
afii10034,
afii10035,
afii10036,
afii10037,
afii10038,
afii10039,
afii10040,
afii10041,
afii10042,
afii10043,
afii10044,
afii10045,
afii10046,
afii10047,
afii10048,
afii10049,
afii10050,
afii10051,
afii10052,
afii10053,
afii10054,
afii10056,
afii10057,
afii10058,
afii10059,
afii10060,
afii10061,
afii10062,
afii10065,
afii10066,
afii10067,
afii10070,
afii10071,
afii10072,
afii10073,
afii10074,
afii10075,
afii10076,
afii10077,
afii10078,
afii10079,
afii10080,
afii10081,
afii10082,
afii10083,
afii10085,
afii10086,
afii10087,
afii10088,
afii10089,
afii10090,
afii10091,
afii10092,
afii10093,
afii10094,
afii10095,
afii10096,
afii10097,

glyphs = (
{
glyphname = A;
lastChange = "2016-08-30 19:25:56 +0000";
layers = (
{
hints = (
{
place = "{373, 93}";
},
{
place = "{393, 73}";
},
{
horizontal = 1;
place = "{180, 70}";
},
{
horizontal = 1;
place = "{0, 21}";
target = up;
type = BottomGhost;
},
{
horizontal = 1;
place = "{700, -20}";
target = down;
type = TopGhost;
}
);
layerId = UUID0;
paths = (
{
closed = 1;
nodes = (
"386 180 LINE",
"400 0 LINE",
"490 0 LINE",
"443 700 LINE",
"313 700 LINE",
"20 0 LINE",
"110 0 LINE",
"186 180 LINE"
);
},
{
closed = 1;
nodes = (
"384 250 LINE",
"214 250 LINE",
"358 600 LINE",
"362 600 LINE"
);
}
);
width = 510;
},
{
hints = (
{
horizontal = 1;
place = "{175, 80}";
},
{
horizontal = 1;
place = "{0, 21}";
target = up;
type = BottomGhost;
},
{
horizontal = 1;
place = "{700, -20}";
target = down;
type = TopGhost;
}
);
layerId = "97C2AB1A-35E1-4EAE-9807-DD7336879977";
paths = (
{
closed = 1;
nodes = (
"386 175 LINE",
"400 0 LINE",
"525 0 LINE",
"468 700 LINE",
"318 700 LINE",
"15 0 LINE",
"140 0 LINE",
"214 175 LINE"
);
},
{
closed = 1;
nodes = (
"383 255 LINE",
"244 255 LINE",
"363 540 LINE",
"367 540 LINE"
);
}
);
width = 540;
}
);
unicode = 0041;
},
{
glyphname = AE;
lastChange = "2016-08-30 19:25:56 +0000";
layers = (
{
hints = (
{
horizontal = 1;
place = "{0, 70}";
},
{
horizontal = 1;
place = "{180, 70}";
},
{
horizontal = 1;
place = "{330, 70}";
},
{
horizontal = 1;
place = "{630, 70}";
}
);
layerId = UUID0;
paths = (
{
closed = 1;
nodes = (
"0 0 LINE",
"90 0 LINE",
"183 180 LINE",
"382 180 LINE",
"351 0 LINE",
"691 0 LINE",
"703 70 LINE",
"453 70 LINE",
"499 330 LINE",
"719 330 LINE",
"731 400 LINE",
"511 400 LINE",
"552 630 LINE",
"802 630 LINE",
"814 700 LINE",
"363 700 LINE"
);
},
{
closed = 1;
nodes = (
"417 630 LINE",
"462 630 LINE",
"395 250 LINE",
"220 250 LINE"
);
}
);
width = 731;
},
{
hints = (
{
horizontal = 1;
place = "{0, 80}";
},
{
horizontal = 1;
place = "{175, 80}";
},
{
horizontal = 1;
place = "{325, 80}";
},
{
horizontal = 1;
place = "{620, 80}";
}
);
layerId = "97C2AB1A-35E1-4EAE-9807-DD7336879977";
paths = (
{
closed = 1;
nodes = (
"0 0 LINE",
"119 0 LINE",
"210 175 LINE",
"380 175 LINE",
"350 0 LINE",
"715 0 LINE",
"729 80 LINE",
"484 80 LINE",
"527 325 LINE",
"742 325 LINE",
"756 405 LINE",
"541 405 LINE",
"579 620 LINE",
"824 620 LINE",
"838 700 LINE",
"363 700 LINE"
);
},
{
closed = 1;
nodes = (
"440 620 LINE",
"459 620 LINE",
"394 255 LINE",
"251 255 LINE"
);
}
);
width = 755;
}
);
unicode = 00C6;
},
{
glyphname = Aacute;
lastChange = "2016-08-30 19:25:56 +0000";
layers = (
{
hints = (
{
place = "{373, 93}";
},
{
place = "{393, 73}";
},
{
horizontal = 1;
place = "{180, 70}";
},
{
horizontal = 1;
place = "{0, 21}";
target = up;
type = BottomGhost;
},
{
horizontal = 1;
place = "{700, -20}";
target = down;
type = TopGhost;
},
{
horizontal = 1;
place = "{880, -20}";
target = down;
type = TopGhost;
}
);
layerId = UUID0;
paths = (
{
closed = 1;
nodes = (
"386 180 LINE",
"400 0 LINE",
"490 0 LINE",
"443 700 LINE",
"313 700 LINE",
"20 0 LINE",
"110 0 LINE",
"186 180 LINE"
);
},
{
closed = 1;
nodes = (
"384 250 LINE",
"214 250 LINE",
"358 600 LINE",
"362 600 LINE"
);
},
{
closed = 1;
nodes = (
"412 750 LINE",
"505 880 LINE",
"410 880 LINE",
"352 750 LINE"
);
}
);
width = 510;
},
{
hints = (
{
horizontal = 1;
place = "{175, 80}";
},
{
horizontal = 1;
place = "{750, 130}";
},
{
horizontal = 1;
place = "{0, 21}";
target = up;
type = BottomGhost;
},
{
horizontal = 1;
place = "{700, -20}";
target = down;
type = TopGhost;
}
);
layerId = "97C2AB1A-35E1-4EAE-9807-DD7336879977";
paths = (
{
closed = 1;
nodes = (
"437 750 LINE",
"535 880 LINE",
"420 880 LINE",
"362 750 LINE"
);
},
{
closed = 1;
nodes = (
"386 175 LINE",
"400 0 LINE",
"525 0 LINE",
"468 700 LINE",
"318 700 LINE",
"15 0 LINE",
"140 0 LINE",
"214 175 LINE"
);
},
{
closed = 1;
nodes = (
"383 255 LINE",
"244 255 LINE",
"363 540 LINE",
"367 540 LINE"
);
}
);
width = 540;
}
);
unicode = 00C1;
},
{
glyphname = Acircumflex;
lastChange = "2016-08-30 19:25:56 +0000";
layers = (
{
hints = (
{
place = "{373, 93}";
},
{
place = "{393, 73}";
},
{
horizontal = 1;
place = "{180, 70}";
},
{
horizontal = 1;
place = "{750, 130}";
},
{
horizontal = 1;
place = "{0, 21}";
target = up;
type = BottomGhost;
},
{
horizontal = 1;
place = "{700, -20}";
target = down;
type = TopGhost;
}
);
layerId = UUID0;
paths = (
{
closed = 1;
nodes = (
"386 180 LINE",
"400 0 LINE",
"490 0 LINE",
"443 700 LINE",
"313 700 LINE",
"20 0 LINE",
"110 0 LINE",
"186 180 LINE"
);
},
{
closed = 1;
nodes = (
"384 250 LINE",
"214 250 LINE",
"358 600 LINE",
"362 600 LINE"
);
},
{
closed = 1;
nodes = (
"325 750 LINE",
"400 824 LINE",
"450 750 LINE",
"510 750 LINE",
"458 880 LINE",
"363 880 LINE",
"265 750 LINE"
);
}
);
width = 510;
},
{
hints = (
{
horizontal = 1;
place = "{175, 80}";
},
{
horizontal = 1;
place = "{750, 130}";
},
{
horizontal = 1;
place = "{0, 21}";
target = up;
type = BottomGhost;
},
{
horizontal = 1;
place = "{700, -20}";
target = down;
type = TopGhost;
}
);
layerId = "97C2AB1A-35E1-4EAE-9807-DD7336879977";
paths = (
{
closed = 1;
nodes = (
"346 750 LINE",
"414 820 LINE",
"458 750 LINE",
"535 750 LINE",
"478 880 LINE",
"373 880 LINE",
"270 750 LINE"
);
},
{
closed = 1;
nodes = (
"386 175 LINE",
"400 0 LINE",
"525 0 LINE",
"468 700 LINE",
"318 700 LINE",
"15 0 LINE",
"140 0 LINE",
"214 175 LINE"
);
},
{
closed = 1;
nodes = (
"383 255 LINE",
"244 255 LINE",
"363 540 LINE",
"367 540 LINE"
);
}
);
width = 540;
}
);
unicode = 00C2;
},
{
glyphname = Adieresis;
lastChange = "2016-08-30 19:25:56 +0000";
layers = (
{
hints = (
{
place = "{373, 93}";
},
{
place = "{393, 73}";
},
{
horizontal = 1;
place = "{180, 70}";
},
{
horizontal = 1;
place = "{760, 110}";
},
{
horizontal = 1;
place = "{0, 21}";
target = up;
type = BottomGhost;
},
{
horizontal = 1;
place = "{700, -20}";
target = down;
type = TopGhost;
}
);
layerId = UUID0;
paths = (
{
closed = 1;
nodes = (
"386 180 LINE",
"400 0 LINE",
"490 0 LINE",
"443 700 LINE",
"313 700 LINE",
"20 0 LINE",
"110 0 LINE",
"186 180 LINE"
);
},
{
closed = 1;
nodes = (
"384 250 LINE",
"214 250 LINE",
"358 600 LINE",
"362 600 LINE"
);
},
{
closed = 1;
nodes = (
"283 870 LINE",
"264 760 LINE",
"354 760 LINE",
"373 870 LINE"
);
},
{
closed = 1;
nodes = (
"443 870 LINE",
"424 760 LINE",
"514 760 LINE",
"533 870 LINE"
);
}
);
width = 510;
},
{
hints = (
{
horizontal = 1;
place = "{175, 80}";
},
{
horizontal = 1;
place = "{750, 120}";
},
{
horizontal = 1;
place = "{0, 21}";
target = up;
type = BottomGhost;
},
{
horizontal = 1;
place = "{700, -20}";
target = down;
type = TopGhost;
}
);
layerId = "97C2AB1A-35E1-4EAE-9807-DD7336879977";
paths = (
{
closed = 1;
nodes = (
"288 870 LINE",
"267 750 LINE",
"377 750 LINE",
"398 870 LINE"
);
},
{
closed = 1;
nodes = (
"448 870 LINE",
"427 750 LINE",
"537 750 LINE",
"558 870 LINE"
);
},
{
closed = 1;
nodes = (
"386 175 LINE",
"400 0 LINE",
"525 0 LINE",
"468 700 LINE",
"318 700 LINE",
"15 0 LINE",
"140 0 LINE",
"214 175 LINE"
);
},
{
closed = 1;
nodes = (
"383 255 LINE",
"244 255 LINE",
"363 540 LINE",
"367 540 LINE"
);
}
);
width = 540;
}
);
unicode = 00C4;
},
{
glyphname = Agrave;
lastChange = "2016-08-30 19:25:56 +0000";
layers = (
{
hints = (
{
place = "{373, 93}";
},
{
place = "{393, 73}";
},
{
horizontal = 1;
place = "{180, 70}";
},
{
horizontal = 1;
place = "{750, 130}";
},
{
horizontal = 1;
place = "{0, 21}";
target = up;
type = BottomGhost;
},
{
horizontal = 1;
place = "{700, -20}";
target = down;
type = TopGhost;
}
);
layerId = UUID0;
paths = (
{
closed = 1;
nodes = (
"386 180 LINE",
"400 0 LINE",
"490 0 LINE",
"443 700 LINE",
"313 700 LINE",
"20 0 LINE",
"110 0 LINE",
"186 180 LINE"
);
},
{
closed = 1;
nodes = (
"384 250 LINE",
"214 250 LINE",
"358 600 LINE",
"362 600 LINE"
);
},
{
closed = 1;
nodes = (
"422 750 LINE",
"410 880 LINE",
"315 880 LINE",
"362 750 LINE"
);
}
);
width = 510;
},
{
hints = (
{
horizontal = 1;
place = "{175, 80}";
},
{
horizontal = 1;
place = "{750, 130}";
},
{
horizontal = 1;
place = "{0, 21}";
target = up;
type = BottomGhost;
},
{
horizontal = 1;
place = "{700, -20}";
target = down;
type = TopGhost;
}
);
layerId = "97C2AB1A-35E1-4EAE-9807-DD7336879977";
paths = (
{
closed = 1;
nodes = (
"447 750 LINE",
"435 880 LINE",
"320 880 LINE",
"372 750 LINE"
);
},
{
closed = 1;
nodes = (
"386 175 LINE",
"400 0 LINE",
"525 0 LINE",
"468 700 LINE",
"318 700 LINE",
"15 0 LINE",
"140 0 LINE",
"214 175 LINE"
);
},
{
closed = 1;
nodes = (
"383 255 LINE",
"244 255 LINE",
"363 540 LINE",
"367 540 LINE"
);
}
);
width = 540;
}
);
unicode = 00C0;
},
{
glyphname = Amacron;
lastChange = "2016-08-30 19:25:56 +0000";
layers = (
{
hints = (
{
place = "{373, 93}";
},
{
place = "{393, 73}";
},
{
horizontal = 1;
place = "{180, 70}";
},
{
horizontal = 1;
place = "{770, 60}";
},
{
horizontal = 1;
place = "{0, 21}";
target = up;
type = BottomGhost;
},
{
horizontal = 1;
place = "{700, -20}";
target = down;
type = TopGhost;
}
);
layerId = UUID0;
paths = (
{
closed = 1;
nodes = (
"386 180 LINE",
"400 0 LINE",
"490 0 LINE",
"443 700 LINE",
"313 700 LINE",
"20 0 LINE",
"110 0 LINE",
"186 180 LINE"
);
},
{
closed = 1;
nodes = (
"384 250 LINE",
"214 250 LINE",
"358 600 LINE",
"362 600 LINE"
);
},
{
closed = 1;
nodes = (
"275 770 LINE",
"505 770 LINE",
"516 830 LINE",
"286 830 LINE"
);
}
);
width = 510;
},
{
hints = (
{
horizontal = 1;
place = "{175, 80}";
},
{
horizontal = 1;
place = "{760, 70}";
},
{
horizontal = 1;
place = "{0, 21}";
target = up;
type = BottomGhost;
},
{
horizontal = 1;
place = "{700, -20}";
target = down;
type = TopGhost;
}
);
layerId = "97C2AB1A-35E1-4EAE-9807-DD7336879977";
paths = (
{
closed = 1;
nodes = (
"284 760 LINE",
"524 760 LINE",
"536 830 LINE",
"296 830 LINE"
);
},
{
closed = 1;
nodes = (
"386 175 LINE",
"400 0 LINE",
"525 0 LINE",
"468 700 LINE",
"318 700 LINE",
"15 0 LINE",
"140 0 LINE",
"214 175 LINE"
);
},
{
closed = 1;
nodes = (
"383 255 LINE",
"244 255 LINE",
"363 540 LINE",
"367 540 LINE"
);
}
);
width = 540;
}
);
unicode = 0100;
},
{
glyphname = Aogonek;
lastChange = "2016-08-30 19:25:56 +0000";
layers = (
{
hints = (
{
place = "{373, 93}";
},
{
place = "{393, 73}";
},
{
horizontal = 1;
place = "{-160, 56}";
},
{
horizontal = 1;
place = "{180, 70}";
},
{
horizontal = 1;
place = "{0, 21}";
target = up;
type = BottomGhost;
},
{
horizontal = 1;
place = "{700, -20}";
target = down;
type = TopGhost;
}
);
layerId = UUID0;
paths = (
{
closed = 1;
nodes = (
"400 0 LINE",
"410 0 LINE",
"410 0 OFFCURVE",
"378 -35 OFFCURVE",
"370 -80 CURVE SMOOTH",
"362 -130 OFFCURVE",
"386 -160 OFFCURVE",
"441 -160 CURVE SMOOTH",
"486 -160 OFFCURVE",
"519 -145 OFFCURVE",
"519 -145 CURVE",
"526 -104 LINE",
"491 -104 LINE SMOOTH",
"446 -104 OFFCURVE",
"434 -90 OFFCURVE",
"442 -45 CURVE SMOOTH",
"450 0 LINE",
"490 0 LINE",
"443 700 LINE",
"313 700 LINE",
"20 0 LINE",
"110 0 LINE",
"186 180 LINE",
"386 180 LINE"
);
},
{
closed = 1;
nodes = (
"384 250 LINE",
"214 250 LINE",
"358 600 LINE",
"362 600 LINE"
);
}
);
width = 510;
},
{
hints = (
{
horizontal = 1;
place = "{-160, 60}";
},
{
horizontal = 1;
place = "{175, 80}";
},
{
horizontal = 1;
place = "{0, 21}";
target = up;
type = BottomGhost;
},
{
horizontal = 1;
place = "{700, -20}";
target = down;
type = TopGhost;
}
);
layerId = "97C2AB1A-35E1-4EAE-9807-DD7336879977";
paths = (
{
closed = 1;
nodes = (
"385 175 LINE",
"399 0 LINE",
"419 0 LINE",
"419 0 OFFCURVE",
"387 -30 OFFCURVE",
"378 -80 CURVE SMOOTH",
"370 -125 OFFCURVE",
"399 -160 OFFCURVE",
"454 -160 CURVE SMOOTH",
"499 -160 OFFCURVE",
"533 -145 OFFCURVE",
"533 -145 CURVE",
"541 -100 LINE",
"505 -100 LINE SMOOTH",
"470 -100 OFFCURVE",
"454 -80 OFFCURVE",
"461 -45 CURVE SMOOTH",
"469 0 LINE",
"524 0 LINE",
"467 700 LINE",
"317 700 LINE",
"14 0 LINE",
"139 0 LINE",
"213 175 LINE"
);
},
{
closed = 1;
nodes = (
"382 255 LINE",
"243 255 LINE",
"362 540 LINE",
"366 540 LINE"
);
}
);
width = 540;
}
);
unicode = 0104;
},
{
glyphname = Aring;
lastChange = "2016-08-30 19:25:56 +0000";
layers = (
{
hints = (
{
place = "{373, 93}";
},
{
place = "{393, 73}";
},
{
horizontal = 1;
place = "{180, 70}";
},
{
horizontal = 1;
place = "{730, 45}";
},
{
horizontal = 1;
place = "{845, 45}";
},
{
horizontal = 1;
place = "{0, 21}";
target = up;
type = BottomGhost;
},
{
horizontal = 1;
place = "{700, -20}";
target = down;
type = TopGhost;
}
);
layerId = UUID0;
paths = (
{
closed = 1;
nodes = (
"386 180 LINE",
"400 0 LINE",
"490 0 LINE",
"443 700 LINE",
"313 700 LINE",
"20 0 LINE",
"110 0 LINE",
"186 180 LINE"
);
},
{
closed = 1;
nodes = (
"384 250 LINE",
"214 250 LINE",
"358 600 LINE",
"362 600 LINE"
);
},
{
closed = 1;
nodes = (
"428 785 OFFCURVE",
"411 775 OFFCURVE",
"391 775 CURVE",
"371 775 OFFCURVE",
"358 785 OFFCURVE",
"362 810 CURVE",
"367 835 OFFCURVE",
"383 845 OFFCURVE",
"403 845 CURVE SMOOTH",
"423 845 OFFCURVE",
"437 835 OFFCURVE",
"432 810 CURVE"
);
},
{
closed = 1;
nodes = (
"491 860 OFFCURVE",
"461 890 OFFCURVE",
"411 890 CURVE SMOOTH",
"361 890 OFFCURVE",
"321 860 OFFCURVE",
"312 810 CURVE",
"304 760 OFFCURVE",
"333 730 OFFCURVE",
"383 730 CURVE",
"433 730 OFFCURVE",
"474 760 OFFCURVE",
"482 810 CURVE"
);
}
);
width = 510;
},
{
hints = (
{
horizontal = 1;
place = "{175, 80}";
},
{
horizontal = 1;
place = "{725, 55}";
},
{
horizontal = 1;
place = "{840, 55}";
},
{
horizontal = 1;
place = "{0, 21}";
target = up;
type = BottomGhost;
},
{
horizontal = 1;
place = "{700, -20}";
target = down;
type = TopGhost;
}
);
layerId = "97C2AB1A-35E1-4EAE-9807-DD7336879977";
paths = (
{
closed = 1;
nodes = (
"439 790 OFFCURVE",
"422 780 OFFCURVE",
"407 780 CURVE SMOOTH",
"392 780 OFFCURVE",
"379 790 OFFCURVE",
"382 810 CURVE SMOOTH",
"386 830 OFFCURVE",
"403 840 OFFCURVE",
"418 840 CURVE SMOOTH",
"433 840 OFFCURVE",
"446 830 OFFCURVE",
"442 810 CURVE SMOOTH"
);
},
{
closed = 1;
nodes = (
"516 860 OFFCURVE",
"482 895 OFFCURVE",
"427 895 CURVE SMOOTH",
"372 895 OFFCURVE",
"326 860 OFFCURVE",
"317 810 CURVE SMOOTH",
"309 760 OFFCURVE",
"342 725 OFFCURVE",
"397 725 CURVE SMOOTH",
"452 725 OFFCURVE",
"499 760 OFFCURVE",
"507 810 CURVE SMOOTH"
);
},
{
closed = 1;
nodes = (
"386 175 LINE",
"400 0 LINE",
"525 0 LINE",
"468 700 LINE",
"318 700 LINE",
"15 0 LINE",
"140 0 LINE",
"214 175 LINE"
);
},
{
closed = 1;
nodes = (
"383 255 LINE",
"244 255 LINE",
"363 540 LINE",
"367 540 LINE"
);
}
);
width = 540;
}
);
unicode = 00C5;
},
{
glyphname = Atilde;
lastChange = "2016-08-30 19:25:56 +0000";
layers = (
{
hints = (
{
place = "{373, 93}";
},
{
place = "{393, 73}";
},
{
horizontal = 1;
place = "{180, 70}";
},
{
horizontal = 1;
place = "{750, 60}";
},
{
horizontal = 1;
place = "{810, 60}";
},
{
horizontal = 1;
place = "{0, 21}";
target = up;
type = BottomGhost;
},
{
horizontal = 1;
place = "{700, -20}";
target = down;
type = TopGhost;
}
);
layerId = UUID0;
paths = (
{
closed = 1;
nodes = (
"386 180 LINE",
"400 0 LINE",
"490 0 LINE",
"443 700 LINE",
"313 700 LINE",
"20 0 LINE",
"110 0 LINE",
"186 180 LINE"
);
},
{
closed = 1;
nodes = (
"384 250 LINE",
"214 250 LINE",
"358 600 LINE",
"362 600 LINE"
);
},
{
closed = 1;
nodes = (
"504 765 LINE",
"518 840 OFFCURVE",
"498 870 OFFCURVE",
"448 870 CURVE SMOOTH",
"398 870 OFFCURVE",
"372 810 OFFCURVE",
"347 810 CURVE SMOOTH",
"332 810 OFFCURVE",
"325 825 OFFCURVE",
"330 855 CURVE",
"280 855 LINE",
"267 780 OFFCURVE",
"287 750 OFFCURVE",
"337 750 CURVE SMOOTH",
"387 750 OFFCURVE",
"412 810 OFFCURVE",
"437 810 CURVE SMOOTH",
"452 810 OFFCURVE",
"460 795 OFFCURVE",
"454 765 CURVE"
);
}
);
width = 510;
},
{
hints = (
{
horizontal = 1;
place = "{175, 80}";
},
{
horizontal = 1;
place = "{745, 80}";
},
{
horizontal = 1;
place = "{795, 30}";
},
{
horizontal = 1;
place = "{795, 80}";
},
{
horizontal = 1;
place = "{0, 21}";
target = up;
type = BottomGhost;
},
{
horizontal = 1;
place = "{700, -20}";
target = down;
type = TopGhost;
}
);
layerId = "97C2AB1A-35E1-4EAE-9807-DD7336879977";
paths = (
{
closed = 1;
nodes = (
"523 755 LINE",
"538 845 OFFCURVE",
"514 875 OFFCURVE",
"469 875 CURVE SMOOTH",
"424 875 OFFCURVE",
"395 825 OFFCURVE",
"370 825 CURVE SMOOTH",
"355 825 OFFCURVE",
"348 840 OFFCURVE",
"352 865 CURVE",
"292 865 LINE",
"276 775 OFFCURVE",
"301 745 OFFCURVE",
"346 745 CURVE SMOOTH",
"391 745 OFFCURVE",
"420 795 OFFCURVE",
"445 795 CURVE SMOOTH",
"460 795 OFFCURVE",
"467 780 OFFCURVE",
"463 755 CURVE"
);
},
{
closed = 1;
nodes = (
"386 175 LINE",
"400 0 LINE",
"525 0 LINE",
"468 700 LINE",
"318 700 LINE",
"15 0 LINE",
"140 0 LINE",
"214 175 LINE"
);
},
{
closed = 1;
nodes = (
"383 255 LINE",
"244 255 LINE",
"363 540 LINE",
"367 540 LINE"
);
}
);
width = 540;
}
);
unicode = 00C3;
},
{
glyphname = B;
lastChange = "2016-08-30 19:25:56 +0000";
layers = (
{
hints = (
{
horizontal = 1;
place = "{-10, 65}";
},
{
horizontal = 1;
place = "{335, 65}";
},
{
horizontal = 1;
place = "{645, 65}";
}
);
layerId = UUID0;
paths = (
{
closed = 1;
nodes = (
"416 377 LINE",
"482 410 OFFCURVE",
"511 465 OFFCURVE",
"522 525 CURVE SMOOTH",
"544 650 OFFCURVE",
"495 710 OFFCURVE",
"355 710 CURVE SMOOTH",
"295 710 OFFCURVE",
"244 705 OFFCURVE",
"191 690 CURVE",
"71 10 LINE",
"119 -5 OFFCURVE",
"168 -10 OFFCURVE",
"228 -10 CURVE SMOOTH",
"398 -10 OFFCURVE",
"468 50 OFFCURVE",
"493 190 CURVE SMOOTH",
"509 280 OFFCURVE",
"491 350 OFFCURVE",
"415 373 CURVE"
);
},
{
closed = 1;
nodes = (
"289 335 LINE",
"389 335 OFFCURVE",
"422 295 OFFCURVE",
"403 190 CURVE SMOOTH",
"386 94 OFFCURVE",
"339 55 OFFCURVE",
"239 55 CURVE SMOOTH",
"169 55 LINE",
"219 335 LINE"
);
},
{
closed = 1;
nodes = (
"230 400 LINE",
"273 645 LINE",
"333 645 LINE SMOOTH",
"413 645 OFFCURVE",
"446 605 OFFCURVE",
"432 525 CURVE SMOOTH",
"417 440 OFFCURVE",
"370 400 OFFCURVE",
"290 400 CURVE SMOOTH"
);
}
);
width = 500;
},
{
hints = (
{
horizontal = 1;
place = "{-10, 75}";
},
{
horizontal = 1;
place = "{330, 75}";
},
{
horizontal = 1;
place = "{635, 75}";
}
);
layerId = "97C2AB1A-35E1-4EAE-9807-DD7336879977";
paths = (
{
closed = 1;
nodes = (
"436 377 LINE",
"501 405 OFFCURVE",
"546 465 OFFCURVE",
"557 525 CURVE SMOOTH",
"577 640 OFFCURVE",
"520 710 OFFCURVE",
"370 710 CURVE SMOOTH",
"295 710 OFFCURVE",
"244 705 OFFCURVE",
"191 690 CURVE",
"71 10 LINE",
"119 -5 OFFCURVE",
"168 -10 OFFCURVE",
"243 -10 CURVE SMOOTH",
"423 -10 OFFCURVE",
"505 60 OFFCURVE",
"528 190 CURVE SMOOTH",
"544 280 OFFCURVE",
"510 345 OFFCURVE",
"435 373 CURVE"
);
},
{
closed = 1;
nodes = (
"303 330 LINE",
"388 330 OFFCURVE",
"421 290 OFFCURVE",
"404 195 CURVE SMOOTH",
"388 105 OFFCURVE",
"341 65 OFFCURVE",
"256 65 CURVE SMOOTH",
"201 65 LINE",
"248 330 LINE"
);
},
{
closed = 1;
nodes = (
"261 405 LINE",
"301 635 LINE",
"346 635 LINE SMOOTH",
"411 635 OFFCURVE",
"444 595 OFFCURVE",
"431 520 CURVE SMOOTH",
"418 445 OFFCURVE",
"371 405 OFFCURVE",
"306 405 CURVE SMOOTH"
);
}
);
width = 530;
}
);
unicode = 0042;
},
{
glyphname = C;
lastChange = "2016-08-30 19:25:56 +0000";
layers = (
{
hints = (
{
horizontal = 1;
place = "{-10, 65}";
},
{
horizontal = 1;
place = "{645, 65}";
}
);
layerId = UUID0;
paths = (
{
closed = 1;
nodes = (
"328 -10 OFFCURVE",
"390 0 OFFCURVE",
"421 10 CURVE",
"429 55 LINE",
"299 55 LINE SMOOTH",
"209 55 OFFCURVE",
"160 115 OFFCURVE",
"201 350 CURVE SMOOTH",
"243 585 OFFCURVE",
"313 645 OFFCURVE",
"393 645 CURVE SMOOTH",
"523 645 LINE",
"531 690 LINE",
"503 700 OFFCURVE",
"445 710 OFFCURVE",
"385 710 CURVE SMOOTH",
"255 710 OFFCURVE",
"161 630 OFFCURVE",
"111 350 CURVE SMOOTH",
"62 70 OFFCURVE",
"128 -10 OFFCURVE",
"268 -10 CURVE SMOOTH"
);
}
);
width = 435;
},
{
hints = (
{
horizontal = 1;
place = "{-10, 75}";
},
{
horizontal = 1;
place = "{635, 75}";
}
);
layerId = "97C2AB1A-35E1-4EAE-9807-DD7336879977";
paths = (
{
closed = 1;
nodes = (
"348 -10 OFFCURVE",
"410 0 OFFCURVE",
"441 10 CURVE",
"451 65 LINE",
"331 65 LINE SMOOTH",
"236 65 OFFCURVE",
"187 125 OFFCURVE",
"226 350 CURVE SMOOTH",
"266 575 OFFCURVE",
"336 635 OFFCURVE",
"421 635 CURVE SMOOTH",
"541 635 LINE",
"551 690 LINE",
"523 700 OFFCURVE",
"465 710 OFFCURVE",
"395 710 CURVE SMOOTH",
"250 710 OFFCURVE",
"156 630 OFFCURVE",
"106 350 CURVE SMOOTH",
"57 70 OFFCURVE",
"123 -10 OFFCURVE",
"278 -10 CURVE SMOOTH"
);
}
);
width = 455;
}
);
unicode = 0043;
},
{
glyphname = Cacute;
lastChange = "2016-08-30 19:25:56 +0000";
layers = (
{
hints = (
{
horizontal = 1;
place = "{-10, 65}";
},
{
horizontal = 1;
place = "{645, 65}";
},
{
horizontal = 1;
place = "{645, 235}";
}
);
layerId = UUID0;
paths = (
{
closed = 1;
nodes = (
"328 -10 OFFCURVE",
"390 0 OFFCURVE",
"421 10 CURVE",
"429 55 LINE",
"299 55 LINE SMOOTH",
"209 55 OFFCURVE",
"160 115 OFFCURVE",
"201 350 CURVE SMOOTH",
"243 585 OFFCURVE",
"313 645 OFFCURVE",
"393 645 CURVE SMOOTH",
"523 645 LINE",
"531 690 LINE",
"503 700 OFFCURVE",
"445 710 OFFCURVE",
"385 710 CURVE SMOOTH",
"255 710 OFFCURVE",
"161 630 OFFCURVE",
"111 350 CURVE SMOOTH",
"62 70 OFFCURVE",
"128 -10 OFFCURVE",
"268 -10 CURVE SMOOTH"
);
},
{
closed = 1;
nodes = (
"422 750 LINE",
"515 880 LINE",
"420 880 LINE",
"362 750 LINE"
);
}
);
width = 435;
},
{
hints = (
{
horizontal = 1;
place = "{-10, 75}";
},
{
horizontal = 1;
place = "{635, 75}";
},
{
horizontal = 1;
place = "{750, 130}";
}
);
layerId = "97C2AB1A-35E1-4EAE-9807-DD7336879977";
paths = (
{
closed = 1;
nodes = (
"348 -10 OFFCURVE",
"410 0 OFFCURVE",
"441 10 CURVE",
"451 65 LINE",
"331 65 LINE SMOOTH",
"236 65 OFFCURVE",
"187 125 OFFCURVE",
"226 350 CURVE SMOOTH",
"266 575 OFFCURVE",
"336 635 OFFCURVE",
"421 635 CURVE SMOOTH",
"541 635 LINE",
"551 690 LINE",
"523 700 OFFCURVE",
"465 710 OFFCURVE",
"395 710 CURVE SMOOTH",
"250 710 OFFCURVE",
"156 630 OFFCURVE",
"106 350 CURVE SMOOTH",
"57 70 OFFCURVE",
"123 -10 OFFCURVE",
"278 -10 CURVE SMOOTH"
);
},
{
closed = 1;
nodes = (
"432 750 LINE",
"530 880 LINE",
"415 880 LINE",
"357 750 LINE"
);
}
);
width = 455;
}
);
unicode = 0106;
},
{
glyphname = Ccaron;
lastChange = "2016-08-30 19:25:56 +0000";
layers = (
{
hints = (
{
horizontal = 1;
place = "{-10, 65}";
},
{
horizontal = 1;
place = "{645, 65}";
},
{
horizontal = 1;
place = "{760, 130}";
}
);
layerId = UUID0;
paths = (
{
closed = 1;
nodes = (
"328 -10 OFFCURVE",
"390 0 OFFCURVE",
"421 10 CURVE",
"429 55 LINE",
"299 55 LINE SMOOTH",
"209 55 OFFCURVE",
"160 115 OFFCURVE",
"201 350 CURVE SMOOTH",
"243 585 OFFCURVE",
"313 645 OFFCURVE",
"393 645 CURVE SMOOTH",
"523 645 LINE",
"531 690 LINE",
"503 700 OFFCURVE",
"445 710 OFFCURVE",
"385 710 CURVE SMOOTH",
"255 710 OFFCURVE",
"161 630 OFFCURVE",
"111 350 CURVE SMOOTH",
"62 70 OFFCURVE",
"128 -10 OFFCURVE",
"268 -10 CURVE SMOOTH"
);
},
{
closed = 1;
nodes = (
"289 890 LINE",
"342 760 LINE",
"437 760 LINE",
"534 890 LINE",
"474 890 LINE",
"398 816 LINE",
"349 890 LINE"
);
}
);
width = 435;
},
{
hints = (
{
horizontal = 1;
place = "{-10, 75}";
},
{
horizontal = 1;
place = "{635, 75}";
},
{
horizontal = 1;
place = "{760, 130}";
}
);
layerId = "97C2AB1A-35E1-4EAE-9807-DD7336879977";
paths = (
{
closed = 1;
nodes = (
"348 -10 OFFCURVE",
"410 0 OFFCURVE",
"441 10 CURVE",
"451 65 LINE",
"331 65 LINE SMOOTH",
"236 65 OFFCURVE",
"187 125 OFFCURVE",
"226 350 CURVE SMOOTH",
"266 575 OFFCURVE",
"336 635 OFFCURVE",
"421 635 CURVE SMOOTH",
"541 635 LINE",
"551 690 LINE",
"523 700 OFFCURVE",
"465 710 OFFCURVE",
"395 710 CURVE SMOOTH",
"250 710 OFFCURVE",
"156 630 OFFCURVE",
"106 350 CURVE SMOOTH",
"57 70 OFFCURVE",
"123 -10 OFFCURVE",
"278 -10 CURVE SMOOTH"
);
},
{
closed = 1;
nodes = (
"289 890 LINE",
"347 760 LINE",
"452 760 LINE",
"554 890 LINE",
"477 890 LINE",
"409 820 LINE",
"365 890 LINE"
);
}
);
width = 455;
}
);
unicode = 010C;
},
{
glyphname = Ccedilla;
lastChange = "2016-08-30 19:25:56 +0000";
layers = (
{
hints = (
{
horizontal = 1;
place = "{-165, 45}";
},
{
horizontal = 1;
place = "{-70, 45}";
},
{
horizontal = 1;
place = "{-10, 65}";
},
{
horizontal = 1;
place = "{645, 65}";
}
);
layerId = UUID0;
paths = (
{
closed = 1;
nodes = (
"265 -25 LINE",
"268 -10 LINE",
"328 -10 OFFCURVE",
"390 0 OFFCURVE",
"421 10 CURVE",
"429 55 LINE",
"299 55 LINE SMOOTH",
"209 55 OFFCURVE",
"160 115 OFFCURVE",
"201 350 CURVE SMOOTH",
"243 585 OFFCURVE",
"313 645 OFFCURVE",
"393 645 CURVE SMOOTH",
"523 645 LINE",
"531 690 LINE",
"503 700 OFFCURVE",
"445 710 OFFCURVE",
"385 710 CURVE SMOOTH",
"255 710 OFFCURVE",
"161 630 OFFCURVE",
"111 350 CURVE SMOOTH",
"68 105 OFFCURVE",
"113 13 OFFCURVE",
"218 -6 CURVE",
"207 -70 LINE",
"262 -70 LINE SMOOTH",
"282 -70 OFFCURVE",
"290 -80 OFFCURVE",
"288 -95 CURVE SMOOTH",
"285 -110 OFFCURVE",
"273 -120 OFFCURVE",
"243 -120 CURVE SMOOTH",
"178 -120 LINE",
"173 -150 LINE",
"173 -150 OFFCURVE",
"200 -165 OFFCURVE",
"245 -165 CURVE SMOOTH",
"310 -165 OFFCURVE",
"346 -135 OFFCURVE",
"353 -95 CURVE SMOOTH",
"360 -55 OFFCURVE",
"335 -25 OFFCURVE",
"280 -25 CURVE SMOOTH"
);
}
);
width = 435;
},
{
hints = (
{
horizontal = 1;
place = "{-170, 49}";
},
{
horizontal = 1;
place = "{-79, 49}";
},
{
horizontal = 1;
place = "{-10, 75}";
},
{
horizontal = 1;
place = "{635, 75}";
}
);
layerId = "97C2AB1A-35E1-4EAE-9807-DD7336879977";
paths = (
{
closed = 1;
nodes = (
"283 -10 LINE SMOOTH",
"353 -10 OFFCURVE",
"410 0 OFFCURVE",
"441 10 CURVE",
"451 65 LINE",
"331 65 LINE SMOOTH",
"236 65 OFFCURVE",
"187 125 OFFCURVE",
"226 350 CURVE SMOOTH",
"266 575 OFFCURVE",
"336 635 OFFCURVE",
"421 635 CURVE SMOOTH",
"541 635 LINE",
"551 690 LINE",
"523 700 OFFCURVE",
"465 710 OFFCURVE",
"395 710 CURVE SMOOTH",
"250 710 OFFCURVE",
"156 630 OFFCURVE",
"106 350 CURVE SMOOTH",
"64 112 OFFCURVE",
"109 18 OFFCURVE",
"219 -4 CURVE",
"206 -79 LINE",
"261 -79 LINE SMOOTH",
"286 -79 OFFCURVE",
"289 -90 OFFCURVE",
"287 -100 CURVE SMOOTH",
"285 -111 OFFCURVE",
"278 -121 OFFCURVE",
"248 -121 CURVE SMOOTH",
"183 -121 LINE",
"177 -155 LINE",
"177 -155 OFFCURVE",
"200 -170 OFFCURVE",
"250 -170 CURVE SMOOTH",
"315 -170 OFFCURVE",
"355 -140 OFFCURVE",
"362 -100 CURVE SMOOTH",
"369 -60 OFFCURVE",
"344 -30 OFFCURVE",
"284 -30 CURVE SMOOTH",
"269 -30 LINE",
"273 -10 LINE"
);
}
);
width = 455;
}
);
unicode = 00C7;
},
{
glyphname = D;
lastChange = "2016-08-30 19:25:56 +0000";
layers = (
{
hints = (
{
horizontal = 1;
place = "{-10, 65}";
},
{
horizontal = 1;
place = "{645, 65}";
}
);
layerId = UUID0;
paths = (
{
closed = 1;
nodes = (
"581 630 OFFCURVE",
"515 710 OFFCURVE",
"355 710 CURVE SMOOTH",
"295 710 OFFCURVE",
"244 705 OFFCURVE",
"191 690 CURVE",
"71 10 LINE",
"119 -5 OFFCURVE",
"168 -10 OFFCURVE",
"228 -10 CURVE SMOOTH",
"388 -10 OFFCURVE",
"482 70 OFFCURVE",
"531 350 CURVE SMOOTH"
);
},
{
closed = 1;
nodes = (
"400 115 OFFCURVE",
"329 55 OFFCURVE",
"239 55 CURVE SMOOTH",
"169 55 LINE",
"273 645 LINE",
"343 645 LINE SMOOTH",
"433 645 OFFCURVE",
"483 585 OFFCURVE",
"441 350 CURVE SMOOTH"
);
}
);
width = 520;
},
{
hints = (
{
horizontal = 1;
place = "{-10, 75}";
},
{
horizontal = 1;
place = "{635, 75}";
}
);
layerId = "97C2AB1A-35E1-4EAE-9807-DD7336879977";
paths = (
{
closed = 1;
nodes = (
"609 620 OFFCURVE",
"535 710 OFFCURVE",
"370 710 CURVE SMOOTH",
"295 710 OFFCURVE",
"244 705 OFFCURVE",
"191 690 CURVE",
"71 10 LINE",
"119 -5 OFFCURVE",
"168 -10 OFFCURVE",
"243 -10 CURVE SMOOTH",
"408 -10 OFFCURVE",
"514 80 OFFCURVE",
"561 350 CURVE SMOOTH"
);
},
{
closed = 1;
nodes = (
"402 125 OFFCURVE",
"336 65 OFFCURVE",
"256 65 CURVE SMOOTH",
"201 65 LINE",
"301 635 LINE",
"356 635 LINE SMOOTH",
"436 635 OFFCURVE",
"481 575 OFFCURVE",
"441 350 CURVE SMOOTH"
);
}
);
width = 545;
}
);
unicode = 0044;
},
{
glyphname = E;
lastChange = "2016-08-30 19:25:56 +0000";
layers = (
{
hints = (
{
horizontal = 1;
place = "{0, 70}";
},
{
horizontal = 1;
place = "{330, 70}";
},
{
horizontal = 1;
place = "{630, 70}";
}
);
layerId = UUID0;
paths = (
{
closed = 1;
nodes = (
"218 330 LINE",
"438 330 LINE",
"450 400 LINE",
"230 400 LINE",
"271 630 LINE",
"521 630 LINE",
"533 700 LINE",
"193 700 LINE",
"70 0 LINE",
"410 0 LINE",
"422 70 LINE",
"172 70 LINE"
);
}
);
width = 450;
},
{
hints = (
{
horizontal = 1;
place = "{0, 80}";
},
{
horizontal = 1;
place = "{325, 80}";
},
{
horizontal = 1;
place = "{620, 80}";
}
);
layerId = "97C2AB1A-35E1-4EAE-9807-DD7336879977";
paths = (
{
closed = 1;
nodes = (
"247 325 LINE",
"462 325 LINE",
"476 405 LINE",
"261 405 LINE",
"299 620 LINE",
"544 620 LINE",
"558 700 LINE",
"193 700 LINE",
"70 0 LINE",
"435 0 LINE",
"449 80 LINE",
"204 80 LINE"
);
}
);
width = 475;
}
);
unicode = 0045;
},
{
glyphname = Eacute;
lastChange = "2016-08-30 19:25:56 +0000";
layers = (
{
hints = (
{
horizontal = 1;
place = "{0, 70}";
},
{
horizontal = 1;
place = "{330, 70}";
},
{
horizontal = 1;
place = "{630, 70}";
},
{
horizontal = 1;
place = "{630, 250}";
}
);
layerId = UUID0;
paths = (
{
closed = 1;
nodes = (
"218 330 LINE",
"438 330 LINE",
"450 400 LINE",
"230 400 LINE",
"271 630 LINE",
"521 630 LINE",
"533 700 LINE",
"193 700 LINE",
"70 0 LINE",
"410 0 LINE",
"422 70 LINE",
"172 70 LINE"
);
},
{
closed = 1;
nodes = (
"402 750 LINE",
"495 880 LINE",
"400 880 LINE",
"342 750 LINE"
);
}
);
width = 450;
},
{
hints = (
{
horizontal = 1;
place = "{0, 80}";
},
{
horizontal = 1;
place = "{325, 80}";
},
{
horizontal = 1;
place = "{620, 80}";
},
{
horizontal = 1;
place = "{750, 130}";
}
);
layerId = "97C2AB1A-35E1-4EAE-9807-DD7336879977";
paths = (
{
closed = 1;
nodes = (
"247 325 LINE",
"462 325 LINE",
"476 405 LINE",
"261 405 LINE",
"299 620 LINE",
"544 620 LINE",
"558 700 LINE",
"193 700 LINE",
"70 0 LINE",
"435 0 LINE",
"449 80 LINE",
"204 80 LINE"
);
},
{
closed = 1;
nodes = (
"422 750 LINE",
"520 880 LINE",
"405 880 LINE",
"347 750 LINE"
);
}
);
width = 475;
}
);
unicode = 00C9;
},
{
glyphname = Ecircumflex;
lastChange = "2016-08-30 19:25:56 +0000";
layers = (
{
hints = (
{
horizontal = 1;
place = "{0, 70}";
},
{
horizontal = 1;
place = "{330, 70}";
},
{
horizontal = 1;
place = "{630, 70}";
},
{
horizontal = 1;
place = "{750, 130}";
}
);
layerId = UUID0;
paths = (
{
closed = 1;
nodes = (
"218 330 LINE",
"438 330 LINE",
"450 400 LINE",
"230 400 LINE",
"271 630 LINE",
"521 630 LINE",
"533 700 LINE",
"193 700 LINE",
"70 0 LINE",
"410 0 LINE",
"422 70 LINE",
"172 70 LINE"
);
},
{
closed = 1;
nodes = (
"307 750 LINE",
"382 824 LINE",
"432 750 LINE",
"492 750 LINE",
"440 880 LINE",
"345 880 LINE",
"247 750 LINE"
);
}
);
width = 450;
},
{
hints = (
{
horizontal = 1;
place = "{0, 80}";
},
{
horizontal = 1;
place = "{325, 80}";
},
{
horizontal = 1;
place = "{620, 80}";
},
{
horizontal = 1;
place = "{750, 130}";
}
);
layerId = "97C2AB1A-35E1-4EAE-9807-DD7336879977";
paths = (
{
closed = 1;
nodes = (
"247 325 LINE",
"462 325 LINE",
"476 405 LINE",
"261 405 LINE",
"299 620 LINE",
"544 620 LINE",
"558 700 LINE",
"193 700 LINE",
"70 0 LINE",
"435 0 LINE",
"449 80 LINE",
"204 80 LINE"
);
},
{
closed = 1;
nodes = (
"328 750 LINE",
"396 820 LINE",
"440 750 LINE",
"517 750 LINE",
"460 880 LINE",
"355 880 LINE",
"252 750 LINE"
);
}
);
width = 475;
}
);
unicode = 00CA;
},
{
glyphname = Edieresis;
lastChange = "2016-08-30 19:25:56 +0000";
layers = (
{
hints = (
{
horizontal = 1;
place = "{0, 70}";
},
{
horizontal = 1;
place = "{330, 70}";
},
{
horizontal = 1;
place = "{630, 70}";
},
{
horizontal = 1;
place = "{770, 110}";
}
);
layerId = UUID0;
paths = (
{
closed = 1;
nodes = (
"218 330 LINE",
"438 330 LINE",
"450 400 LINE",
"230 400 LINE",
"271 630 LINE",
"521 630 LINE",
"533 700 LINE",
"193 700 LINE",
"70 0 LINE",
"410 0 LINE",
"422 70 LINE",
"172 70 LINE"
);
},
{
closed = 1;
nodes = (
"265 880 LINE",
"245 770 LINE",
"335 770 LINE",
"355 880 LINE"
);
},
{
closed = 1;
nodes = (
"425 880 LINE",
"405 770 LINE",
"495 770 LINE",
"515 880 LINE"
);
}
);
width = 450;
},
{
hints = (
{
horizontal = 1;
place = "{0, 80}";
},
{
horizontal = 1;
place = "{325, 80}";
},
{
horizontal = 1;
place = "{620, 80}";
},
{
horizontal = 1;
place = "{760, 120}";
}
);
layerId = "97C2AB1A-35E1-4EAE-9807-DD7336879977";
paths = (
{
closed = 1;
nodes = (
"247 325 LINE",
"462 325 LINE",
"476 405 LINE",
"261 405 LINE",
"299 620 LINE",
"544 620 LINE",
"558 700 LINE",
"193 700 LINE",
"70 0 LINE",
"435 0 LINE",
"449 80 LINE",
"204 80 LINE"
);
},
{
closed = 1;
nodes = (
"270 880 LINE",
"249 760 LINE",
"359 760 LINE",
"380 880 LINE"
);
},
{
closed = 1;
nodes = (
"430 880 LINE",
"409 760 LINE",
"519 760 LINE",
"540 880 LINE"
);
}
);
width = 475;
}
);
unicode = 00CB;
},
{
glyphname = Edotaccent;
lastChange = "2016-08-30 19:25:56 +0000";
layers = (
{
hints = (
{
horizontal = 1;
place = "{0, 70}";
},
{
horizontal = 1;
place = "{330, 70}";
},
{
horizontal = 1;
place = "{630, 70}";
},
{
horizontal = 1;
place = "{770, 110}";
}
);
layerId = UUID0;
paths = (
{
closed = 1;
nodes = (
"218 330 LINE",
"438 330 LINE",
"450 400 LINE",
"230 400 LINE",
"271 630 LINE",
"521 630 LINE",
"533 700 LINE",
"193 700 LINE",
"70 0 LINE",
"410 0 LINE",
"422 70 LINE",
"172 70 LINE"
);
},
{
closed = 1;
nodes = (
"355 880 LINE",
"335 770 LINE",
"425 770 LINE",
"445 880 LINE"
);
}
);
width = 450;
},
{
hints = (
{
horizontal = 1;
place = "{0, 80}";
},
{
horizontal = 1;
place = "{325, 80}";
},
{
horizontal = 1;
place = "{620, 80}";
},
{
horizontal = 1;
place = "{760, 120}";
}
);
layerId = "97C2AB1A-35E1-4EAE-9807-DD7336879977";
paths = (
{
closed = 1;
nodes = (
"247 325 LINE",
"462 325 LINE",
"476 405 LINE",
"261 405 LINE",
"299 620 LINE",
"544 620 LINE",
"558 700 LINE",
"193 700 LINE",
"70 0 LINE",
"435 0 LINE",
"449 80 LINE",
"204 80 LINE"
);
},
{
closed = 1;
nodes = (
"360 880 LINE",
"339 760 LINE",
"449 760 LINE",
"470 880 LINE"
);
}
);
width = 475;
}
);
unicode = 0116;
},
{
glyphname = Egrave;
lastChange = "2016-08-30 19:25:56 +0000";
layers = (
{
hints = (
{
horizontal = 1;
place = "{0, 70}";
},
{
horizontal = 1;
place = "{330, 70}";
},
{
horizontal = 1;
place = "{630, 70}";
},
{
horizontal = 1;
place = "{750, 130}";
}
);
layerId = UUID0;
paths = (
{
closed = 1;
nodes = (
"218 330 LINE",
"438 330 LINE",
"450 400 LINE",
"230 400 LINE",
"271 630 LINE",
"521 630 LINE",
"533 700 LINE",
"193 700 LINE",
"70 0 LINE",
"410 0 LINE",
"422 70 LINE",
"172 70 LINE"
);
},
{
closed = 1;
nodes = (
"412 750 LINE",
"400 880 LINE",
"305 880 LINE",
"352 750 LINE"
);
}
);
width = 450;
},
{
hints = (
{
horizontal = 1;
place = "{0, 80}";
},
{
horizontal = 1;
place = "{325, 80}";
},
{
horizontal = 1;
place = "{620, 80}";
},
{
horizontal = 1;
place = "{750, 130}";
}
);
layerId = "97C2AB1A-35E1-4EAE-9807-DD7336879977";
paths = (
{
closed = 1;
nodes = (
"247 325 LINE",
"462 325 LINE",
"476 405 LINE",
"261 405 LINE",
"299 620 LINE",
"544 620 LINE",
"558 700 LINE",
"193 700 LINE",
"70 0 LINE",
"435 0 LINE",
"449 80 LINE",
"204 80 LINE"
);
},
{
closed = 1;
nodes = (
"437 750 LINE",
"425 880 LINE",
"310 880 LINE",
"362 750 LINE"
);
}
);
width = 475;
}
);
unicode = 00C8;
},
{
glyphname = Emacron;
lastChange = "2016-08-30 19:25:56 +0000";
layers = (
{
hints = (
{
horizontal = 1;
place = "{0, 70}";
},
{
horizontal = 1;
place = "{330, 70}";
},
{
horizontal = 1;
place = "{630, 70}";
},
{
horizontal = 1;
place = "{770, 60}";
}
);
layerId = UUID0;
paths = (
{
closed = 1;
nodes = (
"218 330 LINE",
"438 330 LINE",
"450 400 LINE",
"230 400 LINE",
"271 630 LINE",
"521 630 LINE",
"533 700 LINE",
"193 700 LINE",
"70 0 LINE",
"410 0 LINE",
"422 70 LINE",
"172 70 LINE"
);
},
{
closed = 1;
nodes = (
"259 770 LINE",
"489 770 LINE",
"500 830 LINE",
"270 830 LINE"
);
}
);
width = 450;
},
{
hints = (
{
horizontal = 1;
place = "{0, 80}";
},
{
horizontal = 1;
place = "{325, 80}";
},
{
horizontal = 1;
place = "{620, 80}";
},
{
horizontal = 1;
place = "{760, 70}";
}
);
layerId = "97C2AB1A-35E1-4EAE-9807-DD7336879977";
paths = (
{
closed = 1;
nodes = (
"247 325 LINE",
"462 325 LINE",
"476 405 LINE",
"261 405 LINE",
"299 620 LINE",
"544 620 LINE",
"558 700 LINE",
"193 700 LINE",
"70 0 LINE",
"435 0 LINE",
"449 80 LINE",
"204 80 LINE"
);
},
{
closed = 1;
nodes = (
"269 760 LINE",
"509 760 LINE",
"521 830 LINE",
"281 830 LINE"
);
}
);
width = 475;
}
);
unicode = 0112;
},
{
glyphname = Eogonek;
lastChange = "2016-08-30 19:25:56 +0000";
layers = (
{
hints = (
{
horizontal = 1;
place = "{-160, 56}";
},
{
horizontal = 1;
place = "{0, 70}";
},
{
horizontal = 1;
place = "{330, 70}";
},
{
horizontal = 1;
place = "{630, 70}";
}
);
layerId = UUID0;
paths = (
{
closed = 1;
nodes = (
"325 0 LINE",
"325 0 OFFCURVE",
"293 -35 OFFCURVE",
"285 -80 CURVE SMOOTH",
"277 -130 OFFCURVE",
"301 -160 OFFCURVE",
"356 -160 CURVE SMOOTH",
"401 -160 OFFCURVE",
"434 -145 OFFCURVE",
"434 -145 CURVE",
"441 -104 LINE",
"406 -104 LINE SMOOTH",
"361 -104 OFFCURVE",
"349 -90 OFFCURVE",
"357 -45 CURVE SMOOTH",
"365 0 LINE",
"410 0 LINE",
"422 70 LINE",
"172 70 LINE",
"218 330 LINE",
"438 330 LINE",
"450 400 LINE",
"230 400 LINE",
"271 630 LINE",
"521 630 LINE",
"533 700 LINE",
"193 700 LINE",
"70 0 LINE"
);
}
);
width = 450;
},
{
hints = (
{
horizontal = 1;
place = "{-160, 60}";
},
{
horizontal = 1;
place = "{0, 80}";
},
{
horizontal = 1;
place = "{325, 80}";
},
{
horizontal = 1;
place = "{620, 80}";
}
);
layerId = "97C2AB1A-35E1-4EAE-9807-DD7336879977";
paths = (
{
closed = 1;
nodes = (
"335 0 LINE",
"335 0 OFFCURVE",
"303 -30 OFFCURVE",
"294 -80 CURVE SMOOTH",
"286 -125 OFFCURVE",
"315 -160 OFFCURVE",
"370 -160 CURVE SMOOTH",
"415 -160 OFFCURVE",
"449 -145 OFFCURVE",
"449 -145 CURVE",
"457 -100 LINE",
"421 -100 LINE SMOOTH",
"386 -100 OFFCURVE",
"370 -80 OFFCURVE",
"377 -45 CURVE SMOOTH",
"385 0 LINE",
"435 0 LINE",
"449 80 LINE",
"204 80 LINE",
"247 325 LINE",
"462 325 LINE",
"476 405 LINE",
"261 405 LINE",
"299 620 LINE",
"544 620 LINE",
"558 700 LINE",
"193 700 LINE",
"70 0 LINE"
);
}
);
width = 465;
}
);
unicode = 0118;
},
{
glyphname = Eth;
lastChange = "2016-08-30 19:25:56 +0000";
layers = (
{
hints = (
{
horizontal = 1;
place = "{-10, 65}";
},
{
horizontal = 1;
place = "{320, 70}";
},
{
horizontal = 1;
place = "{645, 65}";
}
);
layerId = UUID0;
paths = (
{
closed = 1;
nodes = (
"78 390 LINE",
"66 320 LINE",
"146 320 LINE",
"91 10 LINE",
"139 -5 OFFCURVE",
"188 -10 OFFCURVE",
"248 -10 CURVE SMOOTH",
"408 -10 OFFCURVE",
"502 70 OFFCURVE",
"551 350 CURVE SMOOTH",
"601 630 OFFCURVE",
"535 710 OFFCURVE",
"375 710 CURVE SMOOTH",
"315 710 OFFCURVE",
"264 705 OFFCURVE",
"211 690 CURVE",
"158 390 LINE"
);
},
{
closed = 1;
nodes = (
"420 115 OFFCURVE",
"349 55 OFFCURVE",
"259 55 CURVE SMOOTH",
"189 55 LINE",
"236 320 LINE",
"346 320 LINE",
"358 390 LINE",
"248 390 LINE",
"293 645 LINE",
"363 645 LINE SMOOTH",
"453 645 OFFCURVE",
"503 585 OFFCURVE",
"461 350 CURVE SMOOTH"
);
}
);
width = 540;
},
{
hints = (
{
horizontal = 1;
place = "{-10, 75}";
},
{
horizontal = 1;
place = "{315, 80}";
},
{
horizontal = 1;
place = "{635, 75}";
}
);
layerId = "97C2AB1A-35E1-4EAE-9807-DD7336879977";
paths = (
{
closed = 1;
nodes = (
"65 315 LINE",
"140 315 LINE",
"86 10 LINE",
"134 -5 OFFCURVE",
"183 -10 OFFCURVE",
"258 -10 CURVE SMOOTH",
"423 -10 OFFCURVE",
"529 80 OFFCURVE",
"576 350 CURVE SMOOTH",
"624 620 OFFCURVE",
"550 710 OFFCURVE",
"385 710 CURVE SMOOTH",
"310 710 OFFCURVE",
"259 705 OFFCURVE",
"206 690 CURVE",
"154 395 LINE",
"79 395 LINE"
);
},
{
closed = 1;
nodes = (
"417 125 OFFCURVE",
"351 65 OFFCURVE",
"271 65 CURVE",
"216 65 LINE",
"260 315 LINE",
"365 315 LINE",
"379 395 LINE",
"274 395 LINE",
"316 635 LINE",
"371 635 LINE",
"451 635 OFFCURVE",
"496 575 OFFCURVE",
"456 350 CURVE SMOOTH"
);
}
);
width = 560;
}
);
unicode = 00D0;
},
{
glyphname = F;
lastChange = "2016-08-30 19:25:56 +0000";
layers = (
{
hints = (
{
horizontal = 1;
place = "{630, 70}";
},
{
horizontal = 1;
place = "{315, 70}";
},
{
horizontal = 1;
place = "{0, 21}";
target = up;
type = BottomGhost;
}
);
layerId = UUID0;
paths = (
{
closed = 1;
nodes = (
"215 315 LINE",
"425 315 LINE",
"437 385 LINE",
"227 385 LINE",
"271 630 LINE",
"521 630 LINE",
"533 700 LINE",
"193 700 LINE",
"70 0 LINE",
"160 0 LINE"
);
}
);
width = 430;
},
{
hints = (
{
horizontal = 1;
place = "{620, 80}";
},
{
horizontal = 1;
place = "{310, 80}";
},
{
horizontal = 1;
place = "{0, 21}";
target = up;
type = BottomGhost;
}
);
layerId = "97C2AB1A-35E1-4EAE-9807-DD7336879977";
paths = (
{
closed = 1;
nodes = (
"244 310 LINE",
"449 310 LINE",
"463 390 LINE",
"258 390 LINE",
"299 620 LINE",
"544 620 LINE",
"558 700 LINE",
"193 700 LINE",
"70 0 LINE",
"190 0 LINE"
);
}
);
width = 455;
}
);
unicode = 0046;
},
{
glyphname = G;
lastChange = "2016-08-30 19:25:56 +0000";
layers = (
{
hints = (
{
horizontal = 1;
place = "{-10, 65}";
},
{
horizontal = 1;
place = "{645, 65}";
}
);
layerId = UUID0;
paths = (
{
closed = 1;
nodes = (
"507 380 LINE",
"417 380 LINE",
"359 55 LINE",
"319 55 LINE SMOOTH",
"209 55 OFFCURVE",
"160 115 OFFCURVE",
"201 350 CURVE SMOOTH",
"243 585 OFFCURVE",
"313 645 OFFCURVE",
"403 645 CURVE SMOOTH",
"533 645 LINE",
"541 690 LINE",
"513 700 OFFCURVE",
"455 710 OFFCURVE",
"395 710 CURVE SMOOTH",
"255 710 OFFCURVE",
"161 630 OFFCURVE",
"111 350 CURVE SMOOTH",
"62 70 OFFCURVE",
"128 -10 OFFCURVE",
"288 -10 CURVE SMOOTH",
"348 -10 OFFCURVE",
"410 0 OFFCURVE",
"441 10 CURVE"
);
}
);
width = 500;
},
{
hints = (
{
horizontal = 1;
place = "{-10, 75}";
},
{
horizontal = 1;
place = "{635, 75}";
}
);
layerId = "97C2AB1A-35E1-4EAE-9807-DD7336879977";
paths = (
{
closed = 1;
nodes = (
"532 380 LINE",
"412 380 LINE",
"356 65 LINE",
"331 65 LINE SMOOTH",
"236 65 OFFCURVE",
"187 125 OFFCURVE",
"226 350 CURVE SMOOTH",
"266 575 OFFCURVE",
"336 635 OFFCURVE",
"421 635 CURVE SMOOTH",
"551 635 LINE",
"561 690 LINE",
"533 700 OFFCURVE",
"475 710 OFFCURVE",
"405 710 CURVE SMOOTH",
"250 710 OFFCURVE",
"156 630 OFFCURVE",
"106 350 CURVE SMOOTH",
"57 70 OFFCURVE",
"123 -10 OFFCURVE",
"298 -10 CURVE SMOOTH",
"373 -10 OFFCURVE",
"435 0 OFFCURVE",
"466 10 CURVE"
);
}
);
width = 525;
}
);
unicode = 0047;
},
{
glyphname = Gbreve;
lastChange = "2016-08-30 19:25:56 +0000";
layers = (
{
hints = (
{
horizontal = 1;
place = "{-10, 65}";
},
{
horizontal = 1;
place = "{645, 65}";
},
{
horizontal = 1;
place = "{760, 70}";
},
{
horizontal = 1;
place = "{875, -20}";
target = down;
type = TopGhost;
}
);
layerId = UUID0;
paths = (
{
closed = 1;
nodes = (
"507 380 LINE",
"417 380 LINE",
"359 55 LINE",
"319 55 LINE SMOOTH",
"209 55 OFFCURVE",
"160 115 OFFCURVE",
"201 350 CURVE SMOOTH",
"243 585 OFFCURVE",
"313 645 OFFCURVE",
"403 645 CURVE SMOOTH",
"533 645 LINE",
"541 690 LINE",
"513 700 OFFCURVE",
"455 710 OFFCURVE",
"395 710 CURVE SMOOTH",
"255 710 OFFCURVE",
"161 630 OFFCURVE",
"111 350 CURVE SMOOTH",
"62 70 OFFCURVE",
"128 -10 OFFCURVE",
"288 -10 CURVE SMOOTH",
"348 -10 OFFCURVE",
"410 0 OFFCURVE",
"441 10 CURVE"
);
},
{
closed = 1;
nodes = (
"371 830 OFFCURVE",
"340 855 OFFCURVE",
"324 875 CURVE",
"277 835 LINE",
"294 790 OFFCURVE",
"339 760 OFFCURVE",
"404 760 CURVE SMOOTH",
"469 760 OFFCURVE",
"524 790 OFFCURVE",
"557 835 CURVE",
"524 875 LINE",
"500 855 OFFCURVE",
"461 830 OFFCURVE",
"416 830 CURVE SMOOTH"
);
}
);
width = 505;
},
{
hints = (
{
horizontal = 1;
place = "{-10, 75}";
},
{
horizontal = 1;
place = "{635, 75}";
},
{
horizontal = 1;
place = "{755, 85}";
},
{
horizontal = 1;
place = "{885, -20}";
target = down;
type = TopGhost;
}
);
layerId = "97C2AB1A-35E1-4EAE-9807-DD7336879977";
paths = (
{
closed = 1;
nodes = (
"532 380 LINE",
"412 380 LINE",
"356 65 LINE",
"331 65 LINE SMOOTH",
"236 65 OFFCURVE",
"187 125 OFFCURVE",
"226 350 CURVE SMOOTH",
"266 575 OFFCURVE",
"336 635 OFFCURVE",
"421 635 CURVE SMOOTH",
"551 635 LINE",
"561 690 LINE",
"533 700 OFFCURVE",
"475 710 OFFCURVE",
"405 710 CURVE SMOOTH",
"250 710 OFFCURVE",
"156 630 OFFCURVE",
"106 350 CURVE SMOOTH",
"57 70 OFFCURVE",
"123 -10 OFFCURVE",
"298 -10 CURVE SMOOTH",
"373 -10 OFFCURVE",
"435 0 OFFCURVE",
"466 10 CURVE"
);
},
{
closed = 1;
nodes = (
"388 840 OFFCURVE",
"357 865 OFFCURVE",
"341 885 CURVE",
"282 835 LINE",
"303 785 OFFCURVE",
"348 755 OFFCURVE",
"413 755 CURVE SMOOTH",
"478 755 OFFCURVE",
"533 785 OFFCURVE",
"572 835 CURVE",
"531 885 LINE",
"507 865 OFFCURVE",
"468 840 OFFCURVE",
"428 840 CURVE SMOOTH"
);
}
);
width = 530;
}
);
unicode = 011E;
},
{
glyphname = Gcommaaccent;
lastChange = "2016-08-30 19:25:56 +0000";
layers = (
{
hints = (
{
horizontal = 1;
place = "{-220, 150}";
},
{
horizontal = 1;
place = "{-10, 65}";
},
{
horizontal = 1;
place = "{645, 65}";
}
);
layerId = UUID0;
paths = (
{
closed = 1;
nodes = (
"191 -220 LINE",
"251 -220 LINE",
"307 -70 LINE",
"217 -70 LINE"
);
},
{
closed = 1;
nodes = (
"507 380 LINE",
"417 380 LINE",
"359 55 LINE",
"319 55 LINE SMOOTH",
"209 55 OFFCURVE",
"160 115 OFFCURVE",
"201 350 CURVE SMOOTH",
"243 585 OFFCURVE",
"313 645 OFFCURVE",
"403 645 CURVE SMOOTH",
"533 645 LINE",
"541 690 LINE",
"513 700 OFFCURVE",
"455 710 OFFCURVE",
"395 710 CURVE SMOOTH",
"255 710 OFFCURVE",
"161 630 OFFCURVE",
"111 350 CURVE SMOOTH",
"62 70 OFFCURVE",
"128 -10 OFFCURVE",
"288 -10 CURVE SMOOTH",
"348 -10 OFFCURVE",
"410 0 OFFCURVE",
"441 10 CURVE"
);
}
);
width = 500;
},
{
hints = (
{
horizontal = 1;
place = "{-220, 150}";
},
{
horizontal = 1;
place = "{-10, 75}";
},
{
horizontal = 1;
place = "{635, 75}";
}
);
layerId = "97C2AB1A-35E1-4EAE-9807-DD7336879977";
paths = (
{
closed = 1;
nodes = (
"532 380 LINE",
"412 380 LINE",
"356 65 LINE",
"331 65 LINE SMOOTH",
"236 65 OFFCURVE",
"187 125 OFFCURVE",
"226 350 CURVE SMOOTH",
"266 575 OFFCURVE",
"336 635 OFFCURVE",
"421 635 CURVE SMOOTH",
"551 635 LINE",
"561 690 LINE",
"533 700 OFFCURVE",
"475 710 OFFCURVE",
"405 710 CURVE SMOOTH",
"250 710 OFFCURVE",
"156 630 OFFCURVE",
"106 350 CURVE SMOOTH",
"57 70 OFFCURVE",
"123 -10 OFFCURVE",
"298 -10 CURVE SMOOTH",
"373 -10 OFFCURVE",
"435 0 OFFCURVE",
"466 10 CURVE"
);
},
{
closed = 1;
nodes = (
"191 -220 LINE",
"266 -220 LINE",
"327 -70 LINE",
"217 -70 LINE"
);
}
);
width = 525;
}
);
unicode = 0122;
},
{
glyphname = H;
lastChange = "2016-08-30 19:25:56 +0000";
layers = (
{
hints = (
{
horizontal = 1;
place = "{320, 70}";
},
{
horizontal = 1;
place = "{700, -20}";
target = down;
type = TopGhost;
},
{
horizontal = 1;
place = "{0, 21}";
target = up;
type = BottomGhost;
}
);
layerId = UUID0;
paths = (
{
closed = 1;
nodes = (
"493 700 LINE",
"438 390 LINE",
"228 390 LINE",
"283 700 LINE",
"193 700 LINE",
"70 0 LINE",
"160 0 LINE",
"216 320 LINE",
"426 320 LINE",
"370 0 LINE",
"460 0 LINE",
"583 700 LINE"
);
}
);
width = 530;
},
{
hints = (
{
horizontal = 1;
place = "{315, 80}";
},
{
horizontal = 1;
place = "{700, -20}";
target = down;
type = TopGhost;
},
{
horizontal = 1;
place = "{0, 21}";
target = up;
type = BottomGhost;
}
);
layerId = "97C2AB1A-35E1-4EAE-9807-DD7336879977";
paths = (
{
closed = 1;
nodes = (
"493 700 LINE",
"439 395 LINE",
"259 395 LINE",
"313 700 LINE",
"193 700 LINE",
"70 0 LINE",
"190 0 LINE",
"245 315 LINE",
"425 315 LINE",
"370 0 LINE",
"490 0 LINE",
"613 700 LINE"
);
}
);
width = 560;
}
);
unicode = 0048;
},
{
glyphname = I;
lastChange = "2016-08-30 19:25:56 +0000";
layers = (
{
hints = (
{
horizontal = 1;
place = "{700, -20}";
target = down;
type = TopGhost;
},
{
horizontal = 1;
place = "{0, 21}";
target = up;
type = BottomGhost;
}
);
layerId = UUID0;
paths = (
{
closed = 1;
nodes = (
"193 700 LINE",
"70 0 LINE",
"160 0 LINE",
"283 700 LINE"
);
}
);
width = 230;
},
{
hints = (
{
horizontal = 1;
place = "{700, -20}";
target = down;
type = TopGhost;
},
{
horizontal = 1;
place = "{0, 21}";
target = up;
type = BottomGhost;
}
);
layerId = "97C2AB1A-35E1-4EAE-9807-DD7336879977";
paths = (
{
closed = 1;
nodes = (
"193 700 LINE",
"70 0 LINE",
"190 0 LINE",
"313 700 LINE"
);
}
);
width = 260;
}
);
unicode = 0049;
},
{
glyphname = Iacute;
lastChange = "2016-08-30 19:25:56 +0000";
layers = (
{
hints = (
{
horizontal = 1;
place = "{0, 21}";
target = up;
type = BottomGhost;
},
{
horizontal = 1;
place = "{700, -20}";
target = down;
type = TopGhost;
},
{
horizontal = 1;
place = "{880, -20}";
target = down;
type = TopGhost;
}
);
layerId = UUID0;
paths = (
{
closed = 1;
nodes = (
"193 700 LINE",
"70 0 LINE",
"160 0 LINE",
"283 700 LINE"
);
},
{
closed = 1;
nodes = (
"277 750 LINE",
"370 880 LINE",
"275 880 LINE",
"217 750 LINE"
);
}
);
width = 230;
},
{
hints = (
{
horizontal = 1;
place = "{750, 130}";
},
{
horizontal = 1;
place = "{0, 21}";
target = up;
type = BottomGhost;
},
{
horizontal = 1;
place = "{700, -20}";
target = down;
type = TopGhost;
}
);
layerId = "97C2AB1A-35E1-4EAE-9807-DD7336879977";
paths = (
{
closed = 1;
nodes = (
"193 700 LINE",
"70 0 LINE",
"190 0 LINE",
"313 700 LINE"
);
},
{
closed = 1;
nodes = (
"297 750 LINE",
"395 880 LINE",
"280 880 LINE",
"222 750 LINE"
);
}
);
width = 255;
}
);
unicode = 00CD;
},
{
glyphname = Icircumflex;
lastChange = "2016-08-30 19:25:56 +0000";
layers = (
{
hints = (
{
horizontal = 1;
place = "{750, 130}";
},
{
horizontal = 1;
place = "{0, 21}";
target = up;
type = BottomGhost;
},
{
horizontal = 1;
place = "{700, -20}";
target = down;
type = TopGhost;
}
);
layerId = UUID0;
paths = (
{
closed = 1;
nodes = (
"183 700 LINE",
"60 0 LINE",
"150 0 LINE",
"273 700 LINE"
);
},
{
closed = 1;
nodes = (
"177 750 LINE",
"252 824 LINE",
"302 750 LINE",
"362 750 LINE",
"310 880 LINE",
"215 880 LINE",
"117 750 LINE"
);
}
);
width = 215;
},
{
hints = (
{
horizontal = 1;
place = "{750, 130}";
},
{
horizontal = 1;
place = "{0, 21}";
target = up;
type = BottomGhost;
},
{
horizontal = 1;
place = "{700, -20}";
target = down;
type = TopGhost;
}
);
layerId = "97C2AB1A-35E1-4EAE-9807-DD7336879977";
paths = (
{
closed = 1;
nodes = (
"178 700 LINE",
"55 0 LINE",
"175 0 LINE",
"298 700 LINE"
);
},
{
closed = 1;
nodes = (
"193 750 LINE",
"261 820 LINE",
"305 750 LINE",
"382 750 LINE",
"325 880 LINE",
"220 880 LINE",
"117 750 LINE"
);
}
);
width = 235;
}
);
unicode = 00CE;
},
{
glyphname = Idieresis;
lastChange = "2016-08-30 19:25:56 +0000";
layers = (
{
hints = (
{
horizontal = 1;
place = "{770, 110}";
},
{
horizontal = 1;
place = "{0, 21}";
target = up;
type = BottomGhost;
},
{
horizontal = 1;
place = "{700, -20}";
target = down;
type = TopGhost;
}
);
layerId = UUID0;
paths = (
{
closed = 1;
nodes = (
"193 700 LINE",
"70 0 LINE",
"160 0 LINE",
"283 700 LINE"
);
},
{
closed = 1;
nodes = (
"145 880 LINE",
"125 770 LINE",
"215 770 LINE",
"235 880 LINE"
);
},
{
closed = 1;
nodes = (
"305 880 LINE",
"285 770 LINE",
"375 770 LINE",
"395 880 LINE"
);
}
);
width = 230;
},
{
hints = (
{
horizontal = 1;
place = "{760, 120}";
},
{
horizontal = 1;
place = "{0, 21}";
target = up;
type = BottomGhost;
},
{
horizontal = 1;
place = "{700, -20}";
target = down;
type = TopGhost;
}
);
layerId = "97C2AB1A-35E1-4EAE-9807-DD7336879977";
paths = (
{
closed = 1;
nodes = (
"188 700 LINE",
"65 0 LINE",
"185 0 LINE",
"308 700 LINE"
);
},
{
closed = 1;
nodes = (
"145 880 LINE",
"124 760 LINE",
"234 760 LINE",
"255 880 LINE"
);
},
{
closed = 1;
nodes = (
"305 880 LINE",
"284 760 LINE",
"394 760 LINE",
"415 880 LINE"
);
}
);
width = 250;
}
);
unicode = 00CF;
},
{
glyphname = Idotaccent;
lastChange = "2016-08-30 19:25:56 +0000";
layers = (
{
hints = (
{
horizontal = 1;
place = "{770, 110}";
},
{
horizontal = 1;
place = "{0, 21}";
target = up;
type = BottomGhost;
},
{
horizontal = 1;
place = "{700, -20}";
target = down;
type = TopGhost;
}
);
layerId = UUID0;
paths = (
{
closed = 1;
nodes = (
"193 700 LINE",
"70 0 LINE",
"160 0 LINE",
"283 700 LINE"
);
},
{
closed = 1;
nodes = (
"225 880 LINE",
"205 770 LINE",
"295 770 LINE",
"315 880 LINE"
);
}
);
width = 230;
},
{
hints = (
{
horizontal = 1;
place = "{760, 120}";
},
{
horizontal = 1;
place = "{0, 21}";
target = up;
type = BottomGhost;
},
{
horizontal = 1;
place = "{700, -20}";
target = down;
type = TopGhost;
}
);
layerId = "97C2AB1A-35E1-4EAE-9807-DD7336879977";
paths = (
{
closed = 1;
nodes = (
"193 700 LINE",
"70 0 LINE",
"190 0 LINE",
"313 700 LINE"
);
},
{
closed = 1;
nodes = (
"230 880 LINE",
"209 760 LINE",
"319 760 LINE",
"340 880 LINE"
);
}
);
width = 260;
}
);
unicode = 0130;
},
{
glyphname = Igrave;
lastChange = "2016-08-30 19:25:56 +0000";
layers = (
{
hints = (
{
horizontal = 1;
place = "{750, 130}";
},
{
horizontal = 1;
place = "{0, 21}";
target = up;
type = BottomGhost;
},
{
horizontal = 1;
place = "{700, -20}";
target = down;
type = TopGhost;
}
);
layerId = UUID0;
paths = (
{
closed = 1;
nodes = (
"188 700 LINE",
"65 0 LINE",
"155 0 LINE",
"278 700 LINE"
);
},
{
closed = 1;
nodes = (
"277 750 LINE",
"265 880 LINE",
"170 880 LINE",
"217 750 LINE"
);
}
);
width = 225;
},
{
hints = (
{
horizontal = 1;
place = "{750, 130}";
},
{
horizontal = 1;
place = "{0, 21}";
target = up;
type = BottomGhost;
},
{
horizontal = 1;
place = "{700, -20}";
target = down;
type = TopGhost;
}
);
layerId = "97C2AB1A-35E1-4EAE-9807-DD7336879977";
paths = (
{
closed = 1;
nodes = (
"188 700 LINE",
"65 0 LINE",
"185 0 LINE",
"308 700 LINE"
);
},
{
closed = 1;
nodes = (
"297 750 LINE",
"285 880 LINE",
"170 880 LINE",
"222 750 LINE"
);
}
);
width = 255;
}
);
unicode = 00CC;
},
{
glyphname = Iogonek;
lastChange = "2016-08-30 19:25:56 +0000";
layers = (
{
hints = (
{
horizontal = 1;
place = "{-160, 56}";
},
{
horizontal = 1;
place = "{0, 21}";
target = up;
type = BottomGhost;
},
{
horizontal = 1;
place = "{700, -20}";
target = down;
type = TopGhost;
}
);
layerId = UUID0;
paths = (
{
closed = 1;
nodes = (
"65 0 LINE",
"75 0 LINE",
"75 0 OFFCURVE",
"43 -35 OFFCURVE",
"35 -80 CURVE SMOOTH",
"27 -130 OFFCURVE",
"51 -160 OFFCURVE",
"106 -160 CURVE SMOOTH",
"151 -160 OFFCURVE",
"184 -145 OFFCURVE",
"184 -145 CURVE",
"191 -104 LINE",
"156 -104 LINE SMOOTH",
"111 -104 OFFCURVE",
"99 -90 OFFCURVE",
"107 -45 CURVE SMOOTH",
"115 0 LINE",
"155 0 LINE",
"278 700 LINE",
"188 700 LINE"
);
}
);
width = 220;
},
{
hints = (
{
horizontal = 1;
place = "{-160, 60}";
},
{
horizontal = 1;
place = "{0, 21}";
target = up;
type = BottomGhost;
},
{
horizontal = 1;
place = "{700, -20}";
target = down;
type = TopGhost;
}
);
layerId = "97C2AB1A-35E1-4EAE-9807-DD7336879977";
paths = (
{
closed = 1;
nodes = (
"76 0 LINE",
"76 0 OFFCURVE",
"44 -30 OFFCURVE",
"35 -80 CURVE SMOOTH",
"27 -125 OFFCURVE",
"56 -160 OFFCURVE",
"111 -160 CURVE SMOOTH",
"156 -160 OFFCURVE",
"190 -145 OFFCURVE",
"190 -145 CURVE",
"198 -100 LINE",
"162 -100 LINE SMOOTH",
"127 -100 OFFCURVE",
"111 -80 OFFCURVE",
"118 -45 CURVE SMOOTH",
"126 0 LINE",
"176 0 LINE",
"299 700 LINE",
"179 700 LINE",
"56 0 LINE"
);
}
);
width = 226;
}
);
unicode = 012E;
},
{
glyphname = J;
lastChange = "2016-08-30 19:25:56 +0000";
layers = (
{
hints = (
{
horizontal = 1;
place = "{-10, 65}";
},
{
horizontal = 1;
place = "{700, -20}";
target = down;
type = TopGhost;
}
);
layerId = UUID0;
paths = (
{
closed = 1;
nodes = (
"9 55 LINE",
"1 10 LINE",
"25 0 OFFCURVE",
"58 -10 OFFCURVE",
"88 -10 CURVE SMOOTH",
"228 -10 OFFCURVE",
"298 50 OFFCURVE",
"332 240 CURVE SMOOTH",
"413 700 LINE",
"323 700 LINE",
"242 240 LINE SMOOTH",
"216 95 OFFCURVE",
"169 55 OFFCURVE",
"99 55 CURVE SMOOTH"
);
}
);
width = 350;
},
{
hints = (
{
horizontal = 1;
place = "{-10, 75}";
},
{
horizontal = 1;
place = "{700, -20}";
target = down;
type = TopGhost;
}
);
layerId = "97C2AB1A-35E1-4EAE-9807-DD7336879977";
paths = (
{
closed = 1;
nodes = (
"11 65 LINE",
"1 10 LINE",
"25 0 OFFCURVE",
"58 -10 OFFCURVE",
"98 -10 CURVE SMOOTH",
"243 -10 OFFCURVE",
"325 60 OFFCURVE",
"357 240 CURVE SMOOTH",
"438 700 LINE",
"318 700 LINE",
"237 240 LINE SMOOTH",
"213 105 OFFCURVE",
"166 65 OFFCURVE",
"111 65 CURVE SMOOTH"
);
}
);
width = 375;
}
);
unicode = 004A;
},
{
glyphname = K;
lastChange = "2016-08-30 19:25:56 +0000";
layers = (
{
hints = (
{
horizontal = 1;
place = "{700, -20}";
target = down;
type = TopGhost;
},
{
horizontal = 1;
place = "{0, 21}";
target = up;
type = BottomGhost;
}
);
layerId = UUID0;
paths = (
{
closed = 1;
nodes = (
"317 355 LINE",
"583 700 LINE",
"478 700 LINE",
"223 360 LINE",
"283 700 LINE",
"193 700 LINE",
"70 0 LINE",
"160 0 LINE",
"221 350 LINE",
"375 0 LINE",
"480 0 LINE"
);
}
);
width = 490;
},
{
hints = (
{
horizontal = 1;
place = "{700, -20}";
target = down;
type = TopGhost;
},
{
horizontal = 1;
place = "{0, 21}";
target = up;
type = BottomGhost;
}
);
layerId = "97C2AB1A-35E1-4EAE-9807-DD7336879977";
paths = (
{
closed = 1;
nodes = (
"367 355 LINE",
"613 700 LINE",
"478 700 LINE",
"257 380 LINE",
"313 700 LINE",
"193 700 LINE",
"70 0 LINE",
"190 0 LINE",
"248 330 LINE",
"375 0 LINE",
"510 0 LINE"
);
}
);
width = 520;
}
);
unicode = 004B;
},
{
glyphname = Kcommaaccent;
lastChange = "2016-08-30 19:25:56 +0000";
layers = (
{
hints = (
{
horizontal = 1;
place = "{-200, 150}";
},
{
horizontal = 1;
place = "{700, -20}";
target = down;
type = TopGhost;
},
{
horizontal = 1;
place = "{0, 21}";
target = up;
type = BottomGhost;
}
);
layerId = UUID0;
paths = (
{
closed = 1;
nodes = (
"174 -200 LINE",
"234 -200 LINE",
"291 -50 LINE",
"201 -50 LINE"
);
},
{
closed = 1;
nodes = (
"317 355 LINE",
"583 700 LINE",
"478 700 LINE",
"223 360 LINE",
"283 700 LINE",
"193 700 LINE",
"70 0 LINE",
"160 0 LINE",
"221 350 LINE",
"375 0 LINE",
"480 0 LINE"
);
}
);
width = 490;
},
{
hints = (
{
horizontal = 1;
place = "{-200, 150}";
},
{
horizontal = 1;
place = "{700, -20}";
target = down;
type = TopGhost;
},
{
horizontal = 1;
place = "{0, 21}";
target = up;
type = BottomGhost;
}
);
layerId = "97C2AB1A-35E1-4EAE-9807-DD7336879977";
paths = (
{
closed = 1;
nodes = (
"179 -200 LINE",
"254 -200 LINE",
"316 -50 LINE",
"206 -50 LINE"
);
},
{
closed = 1;
nodes = (
"367 355 LINE",
"613 700 LINE",
"478 700 LINE",
"257 380 LINE",
"313 700 LINE",
"193 700 LINE",
"70 0 LINE",
"190 0 LINE",
"248 330 LINE",
"375 0 LINE",
"510 0 LINE"
);
}
);
width = 520;
}
);
unicode = 0136;
},
{
glyphname = L;
lastChange = "2016-08-30 19:25:56 +0000";
layers = (
{
hints = (
{
horizontal = 1;
place = "{0, 70}";
},
{
horizontal = 1;
place = "{700, -20}";
target = down;
type = TopGhost;
}
);
layerId = UUID0;
paths = (
{
closed = 1;
nodes = (
"283 700 LINE",
"193 700 LINE",
"70 0 LINE",
"410 0 LINE",
"422 70 LINE",
"172 70 LINE"
);
}
);
width = 420;
},
{
hints = (
{
horizontal = 1;
place = "{0, 80}";
},
{
horizontal = 1;
place = "{700, -20}";
target = down;
type = TopGhost;
}
);
layerId = "97C2AB1A-35E1-4EAE-9807-DD7336879977";
paths = (
{
closed = 1;
nodes = (
"313 700 LINE",
"193 700 LINE",
"70 0 LINE",
"435 0 LINE",
"449 80 LINE",
"204 80 LINE"
);
}
);
width = 445;
}
);
unicode = 004C;
},
{
glyphname = Lcommaaccent;
lastChange = "2016-08-30 19:25:56 +0000";
layers = (
{
hints = (
{
horizontal = 1;
place = "{-210, 150}";
},
{
horizontal = 1;
place = "{0, 70}";
},
{
horizontal = 1;
place = "{700, -20}";
target = down;
type = TopGhost;
}
);
layerId = UUID0;
paths = (
{
closed = 1;
nodes = (
"162 -210 LINE",
"222 -210 LINE",
"279 -60 LINE",
"189 -60 LINE"
);
},
{
closed = 1;
nodes = (
"283 700 LINE",
"193 700 LINE",
"70 0 LINE",
"410 0 LINE",
"422 70 LINE",
"172 70 LINE"
);
}
);
width = 420;
},
{
hints = (
{
horizontal = 1;
place = "{-210, 150}";
},
{
horizontal = 1;
place = "{0, 80}";
},
{
horizontal = 1;
place = "{700, -20}";
target = down;
type = TopGhost;
}
);
layerId = "97C2AB1A-35E1-4EAE-9807-DD7336879977";
paths = (
{
closed = 1;
nodes = (
"313 700 LINE",
"193 700 LINE",
"70 0 LINE",
"435 0 LINE",
"449 80 LINE",
"204 80 LINE"
);
},
{
closed = 1;
nodes = (
"167 -210 LINE",
"242 -210 LINE",
"304 -60 LINE",
"194 -60 LINE"
);
}
);
width = 445;
}
);
unicode = 013B;
},
{
glyphname = Lslash;
lastChange = "2016-08-30 19:25:56 +0000";
layers = (
{
hints = (
{
horizontal = 1;
place = "{0, 70}";
},
{
horizontal = 1;
place = "{700, -20}";
target = down;
type = TopGhost;
}
);
layerId = UUID0;
paths = (
{
closed = 1;
nodes = (
"288 700 LINE",
"198 700 LINE",
"139 365 LINE",
"43 305 LINE",
"69 255 LINE",
"126 290 LINE",
"75 0 LINE",
"415 0 LINE",
"427 70 LINE",
"177 70 LINE",
"227 355 LINE",
"334 420 LINE",
"307 470 LINE",
"240 430 LINE"
);
}
);
width = 425;
},
{
hints = (
{
horizontal = 1;
place = "{0, 80}";
},
{
horizontal = 1;
place = "{700, -20}";
target = down;
type = TopGhost;
}
);
layerId = "97C2AB1A-35E1-4EAE-9807-DD7336879977";
paths = (
{
closed = 1;
nodes = (
"313 700 LINE",
"193 700 LINE",
"133 362 LINE",
"43 305 LINE",
"78 245 LINE",
"117 270 LINE",
"70 0 LINE",
"435 0 LINE",
"449 80 LINE",
"204 80 LINE",
"252 355 LINE",
"354 420 LINE",
"319 480 LINE",
"268 448 LINE"
);
}
);
width = 445;
}
);
unicode = 0141;
},
{
glyphname = M;
lastChange = "2016-08-30 19:25:56 +0000";
layers = (
{
hints = (
{
horizontal = 1;
place = "{0, 21}";
target = up;
type = BottomGhost;
},
{
horizontal = 1;
place = "{700, -20}";
target = down;
type = TopGhost;
}
);
layerId = UUID0;
paths = (
{
closed = 1;
nodes = (
"430 90 LINE",
"651 520 LINE",
"656 520 LINE",
"595 0 LINE",
"685 0 LINE",
"768 700 LINE",
"658 700 LINE",
"410 220 LINE",
"406 220 LINE",
"328 700 LINE",
"218 700 LINE",
"55 0 LINE",
"145 0 LINE",
"266 520 LINE",
"271 520 LINE",
"340 90 LINE"
);
}
);
width = 740;
},
{
hints = (
{
horizontal = 1;
place = "{700, -20}";
target = down;
type = TopGhost;
},
{
horizontal = 1;
place = "{0, 21}";
target = up;
type = BottomGhost;
}
);
layerId = "97C2AB1A-35E1-4EAE-9807-DD7336879977";
paths = (
{
closed = 1;
nodes = (
"213 700 LINE",
"50 0 LINE",
"165 0 LINE",
"275 474 LINE",
"279 474 LINE",
"339 85 LINE",
"449 85 LINE",
"647 474 LINE",
"651 474 LINE",
"595 0 LINE",
"710 0 LINE",
"793 700 LINE",
"663 700 LINE",
"421 225 LINE",
"417 225 LINE",
"343 700 LINE"
);
}
);
width = 760;
}
);
unicode = 004D;
},
{
glyphname = N;
lastChange = "2016-08-30 19:25:56 +0000";
layers = (
{
hints = (
{
horizontal = 1;
place = "{0, 21}";
target = up;
type = BottomGhost;
},
{
horizontal = 1;
place = "{700, -20}";
target = down;
type = TopGhost;
}
);
layerId = UUID0;
paths = (
{
closed = 1;
nodes = (
"247 495 LINE",
"252 495 LINE",
"370 0 LINE",
"470 0 LINE",
"593 700 LINE",
"503 700 LINE",
"416 205 LINE",
"411 205 LINE",
"293 700 LINE",
"193 700 LINE",
"70 0 LINE",
"160 0 LINE"
);
}
);
width = 540;
},
{
hints = (
{
horizontal = 1;
place = "{0, 21}";
target = up;
type = BottomGhost;
},
{
horizontal = 1;
place = "{700, -20}";
target = down;
type = TopGhost;
}
);
layerId = "97C2AB1A-35E1-4EAE-9807-DD7336879977";
paths = (
{
closed = 1;
nodes = (
"380 0 LINE",
"500 0 LINE",
"623 700 LINE",
"508 700 LINE",
"427 240 LINE",
"422 240 LINE",
"313 700 LINE",
"193 700 LINE",
"70 0 LINE",
"185 0 LINE",
"266 460 LINE",
"271 460 LINE"
);
}
);
width = 570;
}
);
unicode = 004E;
},
{
glyphname = Nacute;
lastChange = "2016-08-30 19:25:56 +0000";
layers = (
{
hints = (
{
horizontal = 1;
place = "{880, -20}";
target = down;
type = TopGhost;
},
{
horizontal = 1;
place = "{0, 21}";
target = up;
type = BottomGhost;
},
{
horizontal = 1;
place = "{700, -20}";
target = down;
type = TopGhost;
}
);
layerId = UUID0;
paths = (
{
closed = 1;
nodes = (
"432 750 LINE",
"525 880 LINE",
"430 880 LINE",
"372 750 LINE"
);
},
{
closed = 1;
nodes = (
"247 495 LINE",
"252 495 LINE",
"370 0 LINE",
"470 0 LINE",
"593 700 LINE",
"503 700 LINE",
"416 205 LINE",
"411 205 LINE",
"293 700 LINE",
"193 700 LINE",
"70 0 LINE",
"160 0 LINE"
);
}
);
width = 540;
},
{
hints = (
{
horizontal = 1;
place = "{750, 130}";
},
{
horizontal = 1;
place = "{0, 21}";
target = up;
type = BottomGhost;
},
{
horizontal = 1;
place = "{700, -20}";
target = down;
type = TopGhost;
}
);
layerId = "97C2AB1A-35E1-4EAE-9807-DD7336879977";
paths = (
{
closed = 1;
nodes = (
"380 0 LINE",
"500 0 LINE",
"623 700 LINE",
"508 700 LINE",
"427 240 LINE",
"422 240 LINE",
"313 700 LINE",
"193 700 LINE",
"70 0 LINE",
"185 0 LINE",
"266 460 LINE",
"271 460 LINE"
);
},
{
closed = 1;
nodes = (
"452 750 LINE",
"550 880 LINE",
"435 880 LINE",
"377 750 LINE"
);
}
);
width = 570;
}
);
unicode = 0143;
},
{
glyphname = Ncommaaccent;
lastChange = "2016-08-30 19:25:56 +0000";
layers = (
{
hints = (
{
horizontal = 1;
place = "{-200, 150}";
},
{
horizontal = 1;
place = "{0, 21}";
target = up;
type = BottomGhost;
},
{
horizontal = 1;
place = "{700, -20}";
target = down;
type = TopGhost;
}
);
layerId = UUID0;
paths = (
{
closed = 1;
nodes = (
"184 -200 LINE",
"244 -200 LINE",
"301 -50 LINE",
"211 -50 LINE"
);
},
{
closed = 1;
nodes = (
"247 495 LINE",
"252 495 LINE",
"370 0 LINE",
"470 0 LINE",
"593 700 LINE",
"503 700 LINE",
"416 205 LINE",
"411 205 LINE",
"293 700 LINE",
"193 700 LINE",
"70 0 LINE",
"160 0 LINE"
);
}
);
width = 540;
},
{
hints = (
{
horizontal = 1;
place = "{-200, 150}";
},
{
horizontal = 1;
place = "{0, 21}";
target = up;
type = BottomGhost;
},
{
horizontal = 1;
place = "{700, -20}";
target = down;
type = TopGhost;
}
);
layerId = "97C2AB1A-35E1-4EAE-9807-DD7336879977";
paths = (
{
closed = 1;
nodes = (
"380 0 LINE",
"500 0 LINE",
"623 700 LINE",
"508 700 LINE",
"427 240 LINE",
"422 240 LINE",
"313 700 LINE",
"193 700 LINE",
"70 0 LINE",
"185 0 LINE",
"266 460 LINE",
"271 460 LINE"
);
},
{
closed = 1;
nodes = (
"189 -200 LINE",
"264 -200 LINE",
"326 -50 LINE",
"216 -50 LINE"
);
}
);
width = 570;
}
);
unicode = 0145;
},
{
glyphname = Ntilde;
lastChange = "2016-08-30 19:25:56 +0000";
layers = (
{
hints = (
{
horizontal = 1;
place = "{750, 60}";
},
{
horizontal = 1;
place = "{810, 60}";
},
{
horizontal = 1;
place = "{0, 21}";
target = up;
type = BottomGhost;
},
{
horizontal = 1;
place = "{700, -20}";
target = down;
type = TopGhost;
}
);
layerId = UUID0;
paths = (
{
closed = 1;
nodes = (
"514 765 LINE",
"528 840 OFFCURVE",
"508 870 OFFCURVE",
"458 870 CURVE SMOOTH",
"408 870 OFFCURVE",
"382 810 OFFCURVE",
"357 810 CURVE SMOOTH",
"342 810 OFFCURVE",
"335 825 OFFCURVE",
"340 855 CURVE",
"290 855 LINE",
"277 780 OFFCURVE",
"297 750 OFFCURVE",
"347 750 CURVE SMOOTH",
"397 750 OFFCURVE",
"422 810 OFFCURVE",
"447 810 CURVE SMOOTH",
"462 810 OFFCURVE",
"470 795 OFFCURVE",
"464 765 CURVE"
);
},
{
closed = 1;
nodes = (
"247 495 LINE",
"252 495 LINE",
"370 0 LINE",
"470 0 LINE",
"593 700 LINE",
"503 700 LINE",
"416 205 LINE",
"411 205 LINE",
"293 700 LINE",
"193 700 LINE",
"70 0 LINE",
"160 0 LINE"
);
}
);
width = 540;
},
{
hints = (
{
horizontal = 1;
place = "{745, 80}";
},
{
horizontal = 1;
place = "{795, 30}";
},
{
horizontal = 1;
place = "{795, 80}";
},
{
horizontal = 1;
place = "{0, 21}";
target = up;
type = BottomGhost;
},
{
horizontal = 1;
place = "{700, -20}";
target = down;
type = TopGhost;
}
);
layerId = "97C2AB1A-35E1-4EAE-9807-DD7336879977";
paths = (
{
closed = 1;
nodes = (
"380 0 LINE",
"500 0 LINE",
"623 700 LINE",
"508 700 LINE",
"427 240 LINE",
"422 240 LINE",
"313 700 LINE",
"193 700 LINE",
"70 0 LINE",
"185 0 LINE",
"266 460 LINE",
"271 460 LINE"
);
},
{
closed = 1;
nodes = (
"533 755 LINE",
"548 845 OFFCURVE",
"524 875 OFFCURVE",
"479 875 CURVE SMOOTH",
"434 875 OFFCURVE",
"405 825 OFFCURVE",
"380 825 CURVE SMOOTH",
"365 825 OFFCURVE",
"358 840 OFFCURVE",
"362 865 CURVE",
"302 865 LINE",
"286 775 OFFCURVE",
"311 745 OFFCURVE",
"356 745 CURVE SMOOTH",
"401 745 OFFCURVE",
"430 795 OFFCURVE",
"455 795 CURVE SMOOTH",
"470 795 OFFCURVE",
"477 780 OFFCURVE",
"473 755 CURVE"
);
}
);
width = 570;
}
);
unicode = 00D1;
},
{
glyphname = O;
lastChange = "2016-08-30 19:25:56 +0000";
layers = (
{
hints = (
{
horizontal = 1;
place = "{-10, 60}";
},
{
horizontal = 1;
place = "{650, 60}";
}
);
layerId = UUID0;
paths = (
{
closed = 1;
nodes = (
"255 710 OFFCURVE",
"161 630 OFFCURVE",
"111 350 CURVE SMOOTH",
"62 70 OFFCURVE",
"128 -10 OFFCURVE",
"263 -10 CURVE SMOOTH",
"398 -10 OFFCURVE",
"492 70 OFFCURVE",
"541 350 CURVE SMOOTH",
"591 630 OFFCURVE",
"525 710 OFFCURVE",
"390 710 CURVE SMOOTH"
);
},
{
closed = 1;
nodes = (
"208 50 OFFCURVE",
"159 110 OFFCURVE",
"201 350 CURVE SMOOTH",
"244 590 OFFCURVE",
"314 650 OFFCURVE",
"379 650 CURVE SMOOTH",
"444 650 OFFCURVE",
"494 590 OFFCURVE",
"451 350 CURVE SMOOTH",
"409 110 OFFCURVE",
"338 50 OFFCURVE",
"273 50 CURVE SMOOTH"
);
}
);
width = 530;
},
{
hints = (
{
horizontal = 1;
place = "{-10, 70}";
},
{
horizontal = 1;
place = "{640, 70}";
}
);
layerId = "97C2AB1A-35E1-4EAE-9807-DD7336879977";
paths = (
{
closed = 1;
nodes = (
"230 60 OFFCURVE",
"186 120 OFFCURVE",
"226 350 CURVE",
"267 580 OFFCURVE",
"332 640 OFFCURVE",
"387 640 CURVE",
"442 640 OFFCURVE",
"487 580 OFFCURVE",
"446 350 CURVE SMOOTH",
"406 120 OFFCURVE",
"340 60 OFFCURVE",
"285 60 CURVE SMOOTH"
);
},
{
closed = 1;
nodes = (
"260 710 OFFCURVE",
"154 620 OFFCURVE",
"106 350 CURVE",
"59 80 OFFCURVE",
"133 -10 OFFCURVE",
"273 -10 CURVE",
"413 -10 OFFCURVE",
"519 80 OFFCURVE",
"566 350 CURVE SMOOTH",
"614 620 OFFCURVE",
"540 710 OFFCURVE",
"400 710 CURVE"
);
}
);
width = 550;
}
);
unicode = 004F;
},
{
glyphname = OE;
lastChange = "2016-08-30 19:25:56 +0000";
layers = (
{
hints = (
{
horizontal = 1;
place = "{0, 70}";
},
{
horizontal = 1;
place = "{330, 70}";
},
{
horizontal = 1;
place = "{630, 70}";
}
);
layerId = UUID0;
paths = (
{
closed = 1;
nodes = (
"453 700 LINE",
"263 700 OFFCURVE",
"145 600 OFFCURVE",
"101 350 CURVE",
"57 100 OFFCURVE",
"140 0 OFFCURVE",
"330 0 CURVE SMOOTH",
"700 0 LINE",
"712 70 LINE",
"462 70 LINE",
"508 330 LINE",
"728 330 LINE",
"740 400 LINE",
"520 400 LINE",
"561 630 LINE",
"811 630 LINE",
"823 700 LINE"
);
},
{
closed = 1;
nodes = (
"372 70 LINE",
"342 70 LINE SMOOTH",
"212 70 OFFCURVE",
"154 140 OFFCURVE",
"191 350 CURVE",
"228 560 OFFCURVE",
"311 630 OFFCURVE",
"441 630 CURVE SMOOTH",
"471 630 LINE"
);
}
);
width = 740;
},
{
hints = (
{
horizontal = 1;
place = "{0, 80}";
},
{
horizontal = 1;
place = "{325, 80}";
},
{
horizontal = 1;
place = "{620, 80}";
}
);
layerId = "97C2AB1A-35E1-4EAE-9807-DD7336879977";
paths = (
{
closed = 1;
nodes = (
"468 700 LINE",
"273 700 OFFCURVE",
"144 590 OFFCURVE",
"101 350 CURVE",
"59 110 OFFCURVE",
"150 0 OFFCURVE",
"345 0 CURVE SMOOTH",
"725 0 LINE",
"739 80 LINE",
"494 80 LINE",
"537 325 LINE",
"752 325 LINE",
"766 405 LINE",
"551 405 LINE",
"589 620 LINE",
"834 620 LINE",
"848 700 LINE"
);
},
{
closed = 1;
nodes = (
"374 80 LINE",
"359 80 LINE SMOOTH",
"244 80 OFFCURVE",
"186 150 OFFCURVE",
"221 350 CURVE",
"256 550 OFFCURVE",
"339 620 OFFCURVE",
"454 620 CURVE SMOOTH",
"469 620 LINE"
);
}
);
width = 765;
}
);
unicode = 0152;
},
{
glyphname = Oacute;
lastChange = "2016-08-30 19:25:56 +0000";
layers = (
{
hints = (
{
horizontal = 1;
place = "{-10, 60}";
},
{
horizontal = 1;
place = "{650, 60}";
},
{
horizontal = 1;
place = "{650, 240}";
}
);
layerId = UUID0;
paths = (
{
closed = 1;
nodes = (
"255 710 OFFCURVE",
"161 630 OFFCURVE",
"111 350 CURVE SMOOTH",
"62 70 OFFCURVE",
"128 -10 OFFCURVE",
"263 -10 CURVE SMOOTH",
"398 -10 OFFCURVE",
"492 70 OFFCURVE",
"541 350 CURVE SMOOTH",
"591 630 OFFCURVE",
"525 710 OFFCURVE",
"390 710 CURVE SMOOTH"
);
},
{
closed = 1;
nodes = (
"208 50 OFFCURVE",
"159 110 OFFCURVE",
"201 350 CURVE SMOOTH",
"244 590 OFFCURVE",
"314 650 OFFCURVE",
"379 650 CURVE SMOOTH",
"444 650 OFFCURVE",
"494 590 OFFCURVE",
"451 350 CURVE SMOOTH",
"409 110 OFFCURVE",
"338 50 OFFCURVE",
"273 50 CURVE SMOOTH"
);
},
{
closed = 1;
nodes = (
"424 760 LINE",
"516 890 LINE",
"421 890 LINE",
"364 760 LINE"
);
}
);
width = 530;
},
{
hints = (
{
horizontal = 1;
place = "{-10, 70}";
},
{
horizontal = 1;
place = "{640, 70}";
},
{
horizontal = 1;
place = "{760, 130}";
}
);
layerId = "97C2AB1A-35E1-4EAE-9807-DD7336879977";
paths = (
{
closed = 1;
nodes = (
"230 60 OFFCURVE",
"186 120 OFFCURVE",
"226 350 CURVE",
"267 580 OFFCURVE",
"332 640 OFFCURVE",
"387 640 CURVE",
"442 640 OFFCURVE",
"487 580 OFFCURVE",
"446 350 CURVE SMOOTH",
"406 120 OFFCURVE",
"340 60 OFFCURVE",
"285 60 CURVE SMOOTH"
);
},
{
closed = 1;
nodes = (
"260 710 OFFCURVE",
"154 620 OFFCURVE",
"106 350 CURVE",
"59 80 OFFCURVE",
"133 -10 OFFCURVE",
"273 -10 CURVE",
"413 -10 OFFCURVE",
"519 80 OFFCURVE",
"566 350 CURVE SMOOTH",
"614 620 OFFCURVE",
"540 710 OFFCURVE",
"400 710 CURVE"
);
},
{
closed = 1;
nodes = (
"439 760 LINE",
"536 890 LINE",
"421 890 LINE",
"364 760 LINE"
);
}
);
width = 550;
}
);
unicode = 00D3;
},
{
glyphname = Ocircumflex;
lastChange = "2016-08-30 19:25:56 +0000";
layers = (
{
hints = (
{
horizontal = 1;
place = "{-10, 60}";
},
{
horizontal = 1;
place = "{650, 60}";
},
{
horizontal = 1;
place = "{760, 130}";
}
);
layerId = UUID0;
paths = (
{
closed = 1;
nodes = (
"255 710 OFFCURVE",
"161 630 OFFCURVE",
"111 350 CURVE SMOOTH",
"62 70 OFFCURVE",
"128 -10 OFFCURVE",
"263 -10 CURVE SMOOTH",
"398 -10 OFFCURVE",
"492 70 OFFCURVE",
"541 350 CURVE SMOOTH",
"591 630 OFFCURVE",
"525 710 OFFCURVE",
"390 710 CURVE SMOOTH"
);
},
{
closed = 1;
nodes = (
"208 50 OFFCURVE",
"159 110 OFFCURVE",
"201 350 CURVE SMOOTH",
"244 590 OFFCURVE",
"314 650 OFFCURVE",
"379 650 CURVE SMOOTH",
"444 650 OFFCURVE",
"494 590 OFFCURVE",
"451 350 CURVE SMOOTH",
"409 110 OFFCURVE",
"338 50 OFFCURVE",
"273 50 CURVE SMOOTH"
);
},
{
closed = 1;
nodes = (
"339 760 LINE",
"414 834 LINE",
"464 760 LINE",
"524 760 LINE",
"471 890 LINE",
"376 890 LINE",
"279 760 LINE"
);
}
);
width = 530;
},
{
hints = (
{
horizontal = 1;
place = "{-10, 70}";
},
{
horizontal = 1;
place = "{640, 70}";
},
{
horizontal = 1;
place = "{760, 130}";
}
);
layerId = "97C2AB1A-35E1-4EAE-9807-DD7336879977";
paths = (
{
closed = 1;
nodes = (
"230 60 OFFCURVE",
"186 120 OFFCURVE",
"226 350 CURVE",
"267 580 OFFCURVE",
"332 640 OFFCURVE",
"387 640 CURVE",
"442 640 OFFCURVE",
"487 580 OFFCURVE",
"446 350 CURVE SMOOTH",
"406 120 OFFCURVE",
"340 60 OFFCURVE",
"285 60 CURVE SMOOTH"
);
},
{
closed = 1;
nodes = (
"260 710 OFFCURVE",
"154 620 OFFCURVE",
"106 350 CURVE",
"59 80 OFFCURVE",
"133 -10 OFFCURVE",
"273 -10 CURVE",
"413 -10 OFFCURVE",
"519 80 OFFCURVE",
"566 350 CURVE SMOOTH",
"614 620 OFFCURVE",
"540 710 OFFCURVE",
"400 710 CURVE"
);
},
{
closed = 1;
nodes = (
"355 760 LINE",
"423 830 LINE",
"467 760 LINE",
"544 760 LINE",
"486 890 LINE",
"381 890 LINE",
"279 760 LINE"
);
}
);
width = 550;
}
);
unicode = 00D4;
},
{
glyphname = Odieresis;
lastChange = "2016-08-30 19:25:56 +0000";
layers = (
{
hints = (
{
horizontal = 1;
place = "{-10, 60}";
},
{
horizontal = 1;
place = "{650, 60}";
},
{
horizontal = 1;
place = "{770, 110}";
}
);
layerId = UUID0;
paths = (
{
closed = 1;
nodes = (
"255 710 OFFCURVE",
"161 630 OFFCURVE",
"111 350 CURVE SMOOTH",
"62 70 OFFCURVE",
"128 -10 OFFCURVE",
"263 -10 CURVE SMOOTH",
"398 -10 OFFCURVE",
"492 70 OFFCURVE",
"541 350 CURVE SMOOTH",
"591 630 OFFCURVE",
"525 710 OFFCURVE",
"390 710 CURVE SMOOTH"
);
},
{
closed = 1;
nodes = (
"208 50 OFFCURVE",
"159 110 OFFCURVE",
"201 350 CURVE SMOOTH",
"244 590 OFFCURVE",
"314 650 OFFCURVE",
"379 650 CURVE SMOOTH",
"444 650 OFFCURVE",
"494 590 OFFCURVE",
"451 350 CURVE SMOOTH",
"409 110 OFFCURVE",
"338 50 OFFCURVE",
"273 50 CURVE SMOOTH"
);
},
{
closed = 1;
nodes = (
"295 880 LINE",
"275 770 LINE",
"365 770 LINE",
"385 880 LINE"
);
},
{
closed = 1;
nodes = (
"455 880 LINE",
"435 770 LINE",
"525 770 LINE",
"545 880 LINE"
);
}
);
width = 530;
},
{
hints = (
{
horizontal = 1;
place = "{-10, 70}";
},
{
horizontal = 1;
place = "{640, 70}";
},
{
horizontal = 1;
place = "{760, 120}";
}
);
layerId = "97C2AB1A-35E1-4EAE-9807-DD7336879977";
paths = (
{
closed = 1;
nodes = (
"230 60 OFFCURVE",
"186 120 OFFCURVE",
"226 350 CURVE",
"267 580 OFFCURVE",
"332 640 OFFCURVE",
"387 640 CURVE",
"442 640 OFFCURVE",
"487 580 OFFCURVE",
"446 350 CURVE SMOOTH",
"406 120 OFFCURVE",
"340 60 OFFCURVE",
"285 60 CURVE SMOOTH"
);
},
{
closed = 1;
nodes = (
"260 710 OFFCURVE",
"154 620 OFFCURVE",
"106 350 CURVE",
"59 80 OFFCURVE",
"133 -10 OFFCURVE",
"273 -10 CURVE",
"413 -10 OFFCURVE",
"519 80 OFFCURVE",
"566 350 CURVE SMOOTH",
"614 620 OFFCURVE",
"540 710 OFFCURVE",
"400 710 CURVE"
);
},
{
closed = 1;
nodes = (
"295 880 LINE",
"274 760 LINE",
"384 760 LINE",
"405 880 LINE"
);
},
{
closed = 1;
nodes = (
"455 880 LINE",
"434 760 LINE",
"544 760 LINE",
"565 880 LINE"
);
}
);
width = 550;
}
);
unicode = 00D6;
},
{
glyphname = Ograve;
lastChange = "2016-08-30 19:25:56 +0000";
layers = (
{
hints = (
{
horizontal = 1;
place = "{-10, 60}";
},
{
horizontal = 1;
place = "{650, 60}";
},
{
horizontal = 1;
place = "{760, 130}";
}
);
layerId = UUID0;
paths = (
{
closed = 1;
nodes = (
"255 710 OFFCURVE",
"161 630 OFFCURVE",
"111 350 CURVE SMOOTH",
"62 70 OFFCURVE",
"128 -10 OFFCURVE",
"263 -10 CURVE SMOOTH",
"398 -10 OFFCURVE",
"492 70 OFFCURVE",
"541 350 CURVE SMOOTH",
"591 630 OFFCURVE",
"525 710 OFFCURVE",
"390 710 CURVE SMOOTH"
);
},
{
closed = 1;
nodes = (
"208 50 OFFCURVE",
"159 110 OFFCURVE",
"201 350 CURVE SMOOTH",
"244 590 OFFCURVE",
"314 650 OFFCURVE",
"379 650 CURVE SMOOTH",
"444 650 OFFCURVE",
"494 590 OFFCURVE",
"451 350 CURVE SMOOTH",
"409 110 OFFCURVE",
"338 50 OFFCURVE",
"273 50 CURVE SMOOTH"
);
},
{
closed = 1;
nodes = (
"434 760 LINE",
"421 890 LINE",
"326 890 LINE",
"374 760 LINE"
);
}
);
width = 530;
},
{
hints = (
{
horizontal = 1;
place = "{-10, 70}";
},
{
horizontal = 1;
place = "{640, 70}";
},
{
horizontal = 1;
place = "{760, 130}";
}
);
layerId = "97C2AB1A-35E1-4EAE-9807-DD7336879977";
paths = (
{
closed = 1;
nodes = (
"230 60 OFFCURVE",
"186 120 OFFCURVE",
"226 350 CURVE",
"267 580 OFFCURVE",
"332 640 OFFCURVE",
"387 640 CURVE",
"442 640 OFFCURVE",
"487 580 OFFCURVE",
"446 350 CURVE SMOOTH",
"406 120 OFFCURVE",
"340 60 OFFCURVE",
"285 60 CURVE SMOOTH"
);
},
{
closed = 1;
nodes = (
"260 710 OFFCURVE",
"154 620 OFFCURVE",
"106 350 CURVE",
"59 80 OFFCURVE",
"133 -10 OFFCURVE",
"273 -10 CURVE",
"413 -10 OFFCURVE",
"519 80 OFFCURVE",
"566 350 CURVE SMOOTH",
"614 620 OFFCURVE",
"540 710 OFFCURVE",
"400 710 CURVE"
);
},
{
closed = 1;
nodes = (
"449 760 LINE",
"436 890 LINE",
"321 890 LINE",
"374 760 LINE"
);
}
);
width = 550;
}
);
unicode = 00D2;
},
{
glyphname = Omacron;
lastChange = "2016-08-30 19:25:56 +0000";
layers = (
{
hints = (
{
horizontal = 1;
place = "{-10, 60}";
},
{
horizontal = 1;
place = "{650, 60}";
},
{
horizontal = 1;
place = "{770, 60}";
}
);
layerId = UUID0;
paths = (
{
closed = 1;
nodes = (
"255 710 OFFCURVE",
"161 630 OFFCURVE",
"111 350 CURVE SMOOTH",
"62 70 OFFCURVE",
"128 -10 OFFCURVE",
"263 -10 CURVE SMOOTH",
"398 -10 OFFCURVE",
"492 70 OFFCURVE",
"541 350 CURVE SMOOTH",
"591 630 OFFCURVE",
"525 710 OFFCURVE",
"390 710 CURVE SMOOTH"
);
},
{
closed = 1;
nodes = (
"208 50 OFFCURVE",
"159 110 OFFCURVE",
"201 350 CURVE SMOOTH",
"244 590 OFFCURVE",
"314 650 OFFCURVE",
"379 650 CURVE SMOOTH",
"444 650 OFFCURVE",
"494 590 OFFCURVE",
"451 350 CURVE SMOOTH",
"409 110 OFFCURVE",
"338 50 OFFCURVE",
"273 50 CURVE SMOOTH"
);
},
{
closed = 1;
nodes = (
"285 770 LINE",
"515 770 LINE",
"526 830 LINE",
"296 830 LINE"
);
}
);
width = 530;
},
{
hints = (
{
horizontal = 1;
place = "{-10, 70}";
},
{
horizontal = 1;
place = "{640, 70}";
},
{
horizontal = 1;
place = "{760, 70}";
}
);
layerId = "97C2AB1A-35E1-4EAE-9807-DD7336879977";
paths = (
{
closed = 1;
nodes = (
"230 60 OFFCURVE",
"186 120 OFFCURVE",
"226 350 CURVE",
"267 580 OFFCURVE",
"332 640 OFFCURVE",
"387 640 CURVE",
"442 640 OFFCURVE",
"487 580 OFFCURVE",
"446 350 CURVE SMOOTH",
"406 120 OFFCURVE",
"340 60 OFFCURVE",
"285 60 CURVE SMOOTH"
);
},
{
closed = 1;
nodes = (
"260 710 OFFCURVE",
"154 620 OFFCURVE",
"106 350 CURVE",
"59 80 OFFCURVE",
"133 -10 OFFCURVE",
"273 -10 CURVE",
"413 -10 OFFCURVE",
"519 80 OFFCURVE",
"566 350 CURVE SMOOTH",
"614 620 OFFCURVE",
"540 710 OFFCURVE",
"400 710 CURVE"
);
},
{
closed = 1;
nodes = (
"289 760 LINE",
"529 760 LINE",
"541 830 LINE",
"301 830 LINE"
);
}
);
width = 550;
}
);
unicode = 014C;
},
{
glyphname = Oslash;
lastChange = "2016-08-30 19:25:56 +0000";
layers = (
{
hints = (
{
horizontal = 1;
place = "{-10, 60}";
},
{
horizontal = 1;
place = "{650, 60}";
}
);
layerId = UUID0;
paths = (
{
closed = 1;
nodes = (
"260 710 OFFCURVE",
"166 630 OFFCURVE",
"116 350 CURVE SMOOTH",
"99 253 OFFCURVE",
"96 180 OFFCURVE",
"105 126 CURVE",
"38 50 LINE",
"73 20 LINE",
"119 73 LINE",
"146 12 OFFCURVE",
"197 -10 OFFCURVE",
"268 -10 CURVE SMOOTH",
"403 -10 OFFCURVE",
"497 70 OFFCURVE",
"546 350 CURVE SMOOTH",
"563 447 OFFCURVE",
"566 520 OFFCURVE",
"558 574 CURVE",
"624 650 LINE",
"589 680 LINE",
"543 627 LINE",
"517 688 OFFCURVE",
"465 710 OFFCURVE",
"395 710 CURVE SMOOTH"
);
},
{
closed = 1;
nodes = (
"249 590 OFFCURVE",
"319 650 OFFCURVE",
"384 650 CURVE SMOOTH",
"426 650 OFFCURVE",
"461 625 OFFCURVE",
"469 543 CURVE",
"191 225 LINE",
"192 260 OFFCURVE",
"198 301 OFFCURVE",
"206 350 CURVE SMOOTH"
);
},
{
closed = 1;
nodes = (
"236 50 OFFCURVE",
"201 75 OFFCURVE",
"192 156 CURVE",
"471 475 LINE",
"469 440 OFFCURVE",
"465 399 OFFCURVE",
"456 350 CURVE SMOOTH",
"414 110 OFFCURVE",
"343 50 OFFCURVE",
"278 50 CURVE SMOOTH"
);
}
);
width = 540;
},
{
hints = (
{
horizontal = 1;
place = "{-10, 70}";
},
{
horizontal = 1;
place = "{640, 70}";
}
);
layerId = "97C2AB1A-35E1-4EAE-9807-DD7336879977";
paths = (
{
closed = 1;
nodes = (
"33 50 LINE",
"76 10 LINE",
"122 62 LINE",
"153 11 OFFCURVE",
"205 -10 OFFCURVE",
"273 -10 CURVE SMOOTH",
"413 -10 OFFCURVE",
"519 80 OFFCURVE",
"566 350 CURVE SMOOTH",
"583 447 OFFCURVE",
"584 520 OFFCURVE",
"573 575 CURVE",
"639 650 LINE",
"596 690 LINE",
"550 637 LINE",
"519 689 OFFCURVE",
"467 710 OFFCURVE",
"400 710 CURVE SMOOTH",
"260 710 OFFCURVE",
"154 620 OFFCURVE",
"106 350 CURVE SMOOTH",
"89 253 OFFCURVE",
"88 180 OFFCURVE",
"100 125 CURVE"
);
},
{
closed = 1;
nodes = (
"267 580 OFFCURVE",
"332 640 OFFCURVE",
"387 640 CURVE SMOOTH",
"422 640 OFFCURVE",
"454 615 OFFCURVE",
"460 535 CURVE",
"213 254 LINE",
"215 282 OFFCURVE",
"220 314 OFFCURVE",
"226 350 CURVE SMOOTH"
);
},
{
closed = 1;
nodes = (
"249 60 OFFCURVE",
"218 85 OFFCURVE",
"211 164 CURVE",
"459 445 LINE",
"456 417 OFFCURVE",
"453 386 OFFCURVE",
"446 350 CURVE SMOOTH",
"406 120 OFFCURVE",
"340 60 OFFCURVE",
"285 60 CURVE SMOOTH"
);
}
);
width = 550;
}
);
unicode = 00D8;
},
{
glyphname = Otilde;
lastChange = "2016-08-30 19:25:56 +0000";
layers = (
{
hints = (
{
horizontal = 1;
place = "{-10, 60}";
},
{
horizontal = 1;
place = "{650, 60}";
},
{
horizontal = 1;
place = "{760, 60}";
},
{
horizontal = 1;
place = "{820, 60}";
}
);
layerId = UUID0;
paths = (
{
closed = 1;
nodes = (
"255 710 OFFCURVE",
"161 630 OFFCURVE",
"111 350 CURVE SMOOTH",
"62 70 OFFCURVE",
"128 -10 OFFCURVE",
"263 -10 CURVE SMOOTH",
"398 -10 OFFCURVE",
"492 70 OFFCURVE",
"541 350 CURVE SMOOTH",
"591 630 OFFCURVE",
"525 710 OFFCURVE",
"390 710 CURVE SMOOTH"
);
},
{
closed = 1;
nodes = (
"208 50 OFFCURVE",
"159 110 OFFCURVE",
"201 350 CURVE SMOOTH",
"244 590 OFFCURVE",
"314 650 OFFCURVE",
"379 650 CURVE SMOOTH",
"444 650 OFFCURVE",
"494 590 OFFCURVE",
"451 350 CURVE SMOOTH",
"409 110 OFFCURVE",
"338 50 OFFCURVE",
"273 50 CURVE SMOOTH"
);
},
{
closed = 1;
nodes = (
"516 775 LINE",
"529 850 OFFCURVE",
"510 880 OFFCURVE",
"460 880 CURVE SMOOTH",
"410 880 OFFCURVE",
"384 820 OFFCURVE",
"359 820 CURVE SMOOTH",
"344 820 OFFCURVE",
"337 835 OFFCURVE",
"342 865 CURVE",
"292 865 LINE",
"279 790 OFFCURVE",
"299 760 OFFCURVE",
"349 760 CURVE SMOOTH",
"399 760 OFFCURVE",
"424 820 OFFCURVE",
"449 820 CURVE SMOOTH",
"464 820 OFFCURVE",
"471 805 OFFCURVE",
"466 775 CURVE"
);
}
);
width = 530;
},
{
hints = (
{
horizontal = 1;
place = "{-10, 70}";
},
{
horizontal = 1;
place = "{640, 70}";
},
{
horizontal = 1;
place = "{755, 80}";
},
{
horizontal = 1;
place = "{805, 30}";
},
{
horizontal = 1;
place = "{805, 80}";
}
);
layerId = "97C2AB1A-35E1-4EAE-9807-DD7336879977";
paths = (
{
closed = 1;
nodes = (
"230 60 OFFCURVE",
"186 120 OFFCURVE",
"226 350 CURVE",
"267 580 OFFCURVE",
"332 640 OFFCURVE",
"387 640 CURVE",
"442 640 OFFCURVE",
"487 580 OFFCURVE",
"446 350 CURVE SMOOTH",
"406 120 OFFCURVE",
"340 60 OFFCURVE",
"285 60 CURVE SMOOTH"
);
},
{
closed = 1;
nodes = (
"260 710 OFFCURVE",
"154 620 OFFCURVE",
"106 350 CURVE",
"59 80 OFFCURVE",
"133 -10 OFFCURVE",
"273 -10 CURVE",
"413 -10 OFFCURVE",
"519 80 OFFCURVE",
"566 350 CURVE SMOOTH",
"614 620 OFFCURVE",
"540 710 OFFCURVE",
"400 710 CURVE"
);
},
{
closed = 1;
nodes = (
"529 765 LINE",
"545 855 OFFCURVE",
"521 885 OFFCURVE",
"476 885 CURVE SMOOTH",
"431 885 OFFCURVE",
"402 835 OFFCURVE",
"377 835 CURVE SMOOTH",
"362 835 OFFCURVE",
"354 850 OFFCURVE",
"359 875 CURVE",
"299 875 LINE",
"283 785 OFFCURVE",
"308 755 OFFCURVE",
"353 755 CURVE SMOOTH",
"398 755 OFFCURVE",
"426 805 OFFCURVE",
"451 805 CURVE SMOOTH",
"466 805 OFFCURVE",
"474 790 OFFCURVE",
"469 765 CURVE"
);
}
);
width = 550;
}
);
unicode = 00D5;
},
{
glyphname = P;
lastChange = "2016-08-30 19:25:56 +0000";
layers = (
{
hints = (
{
horizontal = 1;
place = "{645, 65}";
},
{
horizontal = 1;
place = "{205, 70}";
},
{
horizontal = 1;
place = "{0, 21}";
target = up;
type = BottomGhost;
}
);
layerId = UUID0;
paths = (
{
closed = 1;
nodes = (
"208 275 LINE",
"273 645 LINE",
"343 645 LINE SMOOTH",
"433 645 OFFCURVE",
"466 605 OFFCURVE",
"441 460 CURVE SMOOTH",
"415 315 OFFCURVE",
"368 275 OFFCURVE",
"278 275 CURVE SMOOTH"
);
},
{
closed = 1;
nodes = (
"197 215 LINE",
"222 210 OFFCURVE",
"266 205 OFFCURVE",
"296 205 CURVE SMOOTH",
"426 205 OFFCURVE",
"496 265 OFFCURVE",
"531 460 CURVE SMOOTH",
"564 650 OFFCURVE",
"515 710 OFFCURVE",
"355 710 CURVE SMOOTH",
"295 710 OFFCURVE",
"244 705 OFFCURVE",
"191 690 CURVE",
"70 0 LINE",
"160 0 LINE"
);
}
);
width = 490;
},
{
hints = (
{
horizontal = 1;
place = "{635, 75}";
},
{
horizontal = 1;
place = "{200, 80}";
},
{
horizontal = 1;
place = "{0, 21}";
target = up;
type = BottomGhost;
}
);
layerId = "97C2AB1A-35E1-4EAE-9807-DD7336879977";
paths = (
{
closed = 1;
nodes = (
"239 280 LINE",
"301 635 LINE",
"356 635 LINE SMOOTH",
"431 635 OFFCURVE",
"464 595 OFFCURVE",
"441 460 CURVE SMOOTH",
"416 320 OFFCURVE",
"369 280 OFFCURVE",
"294 280 CURVE SMOOTH"
);
},
{
closed = 1;
nodes = (
"227 210 LINE",
"251 205 OFFCURVE",
"295 200 OFFCURVE",
"310 200 CURVE SMOOTH",
"445 200 OFFCURVE",
"527 270 OFFCURVE",
"561 460 CURVE SMOOTH",
"592 640 OFFCURVE",
"535 710 OFFCURVE",
"370 710 CURVE SMOOTH",
"295 710 OFFCURVE",
"244 705 OFFCURVE",
"191 690 CURVE",
"70 0 LINE",
"190 0 LINE"
);
}
);
width = 515;
}
);
unicode = 0050;
},
{
glyphname = Q;
lastChange = "2016-08-30 19:25:56 +0000";
layers = (
{
hints = (
{
horizontal = 1;
place = "{-10, 60}";
},
{
horizontal = 1;
place = "{650, 60}";
}
);
layerId = UUID0;
paths = (
{
closed = 1;
nodes = (
"255 710 OFFCURVE",
"161 630 OFFCURVE",
"111 350 CURVE SMOOTH",
"62 70 OFFCURVE",
"128 -10 OFFCURVE",
"263 -10 CURVE SMOOTH",
"528 -10 LINE",
"535 30 LINE",
"507 40 OFFCURVE",
"468 50 OFFCURVE",
"418 50 CURVE",
"473 105 OFFCURVE",
"514 195 OFFCURVE",
"541 350 CURVE SMOOTH",
"591 630 OFFCURVE",
"525 710 OFFCURVE",
"390 710 CURVE SMOOTH"
);
},
{
closed = 1;
nodes = (
"208 50 OFFCURVE",
"159 110 OFFCURVE",
"201 350 CURVE SMOOTH",
"244 590 OFFCURVE",
"314 650 OFFCURVE",
"379 650 CURVE SMOOTH",
"444 650 OFFCURVE",
"494 590 OFFCURVE",
"451 350 CURVE SMOOTH",
"409 110 OFFCURVE",
"338 50 OFFCURVE",
"273 50 CURVE SMOOTH"
);
}
);
width = 540;
},
{
hints = (
{
horizontal = 1;
place = "{-10, 70}";
},
{
horizontal = 1;
place = "{640, 70}";
}
);
layerId = "97C2AB1A-35E1-4EAE-9807-DD7336879977";
paths = (
{
closed = 1;
nodes = (
"260 710 OFFCURVE",
"154 620 OFFCURVE",
"106 350 CURVE SMOOTH",
"59 80 OFFCURVE",
"133 -10 OFFCURVE",
"273 -10 CURVE SMOOTH",
"548 -10 LINE",
"557 40 LINE",
"528 50 OFFCURVE",
"500 60 OFFCURVE",
"440 60 CURVE",
"489 110 OFFCURVE",
"540 200 OFFCURVE",
"566 350 CURVE SMOOTH",
"614 620 OFFCURVE",
"540 710 OFFCURVE",
"400 710 CURVE SMOOTH"
);
},
{
closed = 1;
nodes = (
"235 60 OFFCURVE",
"184 110 OFFCURVE",
"226 350 CURVE SMOOTH",
"267 580 OFFCURVE",
"332 640 OFFCURVE",
"387 640 CURVE SMOOTH",
"442 640 OFFCURVE",
"487 580 OFFCURVE",
"446 350 CURVE SMOOTH",
"406 120 OFFCURVE",
"340 60 OFFCURVE",
"285 60 CURVE SMOOTH"
);
}
);
width = 555;
}
);
unicode = 0051;
},
{
glyphname = R;
lastChange = "2016-08-30 19:25:56 +0000";
layers = (
{
hints = (
{
horizontal = 1;
place = "{230, 70}";
},
{
horizontal = 1;
place = "{645, 65}";
},
{
horizontal = 1;
place = "{0, 21}";
target = up;
type = BottomGhost;
}
);
layerId = UUID0;
paths = (
{
closed = 1;
nodes = (
"564 650 OFFCURVE",
"515 710 OFFCURVE",
"355 710 CURVE SMOOTH",
"295 710 OFFCURVE",
"244 705 OFFCURVE",
"191 690 CURVE",
"70 0 LINE",
"160 0 LINE",
"200 230 LINE",
"300 230 LINE",
"370 0 LINE",
"470 0 LINE",
"394 250 LINE",
"463 275 OFFCURVE",
"509 335 OFFCURVE",
"532 470 CURVE SMOOTH"
);
},
{
closed = 1;
nodes = (
"212 300 LINE",
"273 645 LINE",
"343 645 LINE SMOOTH",
"433 645 OFFCURVE",
"466 605 OFFCURVE",
"442 470 CURVE SMOOTH",
"419 340 OFFCURVE",
"372 300 OFFCURVE",
"282 300 CURVE SMOOTH"
);
}
);
width = 505;
},
{
hints = (
{
horizontal = 1;
place = "{225, 80}";
},
{
horizontal = 1;
place = "{635, 75}";
},
{
horizontal = 1;
place = "{0, 21}";
target = up;
type = BottomGhost;
}
);
layerId = "97C2AB1A-35E1-4EAE-9807-DD7336879977";
paths = (
{
closed = 1;
nodes = (
"592 640 OFFCURVE",
"535 710 OFFCURVE",
"370 710 CURVE SMOOTH",
"295 710 OFFCURVE",
"244 705 OFFCURVE",
"191 690 CURVE",
"70 0 LINE",
"190 0 LINE",
"229 225 LINE",
"294 225 LINE",
"370 0 LINE",
"505 0 LINE",
"414 250 LINE",
"484 280 OFFCURVE",
"539 335 OFFCURVE",
"562 470 CURVE SMOOTH"
);
},
{
closed = 1;
nodes = (
"243 305 LINE",
"301 635 LINE",
"356 635 LINE SMOOTH",
"431 635 OFFCURVE",
"464 595 OFFCURVE",
"442 470 CURVE SMOOTH",
"420 345 OFFCURVE",
"373 305 OFFCURVE",
"298 305 CURVE SMOOTH"
);
}
);
width = 535;
}
);
unicode = 0052;
},
{
glyphname = Rcommaaccent;
lastChange = "2016-08-30 19:25:56 +0000";
layers = (
{
hints = (
{
horizontal = 1;
place = "{-200, 150}";
},
{
horizontal = 1;
place = "{230, 70}";
},
{
horizontal = 1;
place = "{645, 65}";
},
{
horizontal = 1;
place = "{0, 21}";
target = up;
type = BottomGhost;
}
);
layerId = UUID0;
paths = (
{
closed = 1;
nodes = (
"184 -200 LINE",
"244 -200 LINE",
"301 -50 LINE",
"211 -50 LINE"
);
},
{
closed = 1;
nodes = (
"564 650 OFFCURVE",
"515 710 OFFCURVE",
"355 710 CURVE SMOOTH",
"295 710 OFFCURVE",
"244 705 OFFCURVE",
"191 690 CURVE",
"70 0 LINE",
"160 0 LINE",
"200 230 LINE",
"300 230 LINE",
"370 0 LINE",
"470 0 LINE",
"394 250 LINE",
"463 275 OFFCURVE",
"509 335 OFFCURVE",
"532 470 CURVE SMOOTH"
);
},
{
closed = 1;
nodes = (
"212 300 LINE",
"273 645 LINE",
"343 645 LINE SMOOTH",
"433 645 OFFCURVE",
"466 605 OFFCURVE",
"442 470 CURVE SMOOTH",
"419 340 OFFCURVE",
"372 300 OFFCURVE",
"282 300 CURVE SMOOTH"
);
}
);
width = 505;
},
{
hints = (
{
horizontal = 1;
place = "{-200, 150}";
},
{
horizontal = 1;
place = "{225, 80}";
},
{
horizontal = 1;
place = "{635, 75}";
},
{
horizontal = 1;
place = "{0, 21}";
target = up;
type = BottomGhost;
}
);
layerId = "97C2AB1A-35E1-4EAE-9807-DD7336879977";
paths = (
{
closed = 1;
nodes = (
"592 640 OFFCURVE",
"535 710 OFFCURVE",
"370 710 CURVE SMOOTH",
"295 710 OFFCURVE",
"244 705 OFFCURVE",
"191 690 CURVE",
"70 0 LINE",
"190 0 LINE",
"229 225 LINE",
"294 225 LINE",
"370 0 LINE",
"505 0 LINE",
"414 250 LINE",
"484 280 OFFCURVE",
"539 335 OFFCURVE",
"562 470 CURVE SMOOTH"
);
},
{
closed = 1;
nodes = (
"243 305 LINE",
"301 635 LINE",
"356 635 LINE SMOOTH",
"431 635 OFFCURVE",
"464 595 OFFCURVE",
"442 470 CURVE SMOOTH",
"420 345 OFFCURVE",
"373 305 OFFCURVE",
"298 305 CURVE SMOOTH"
);
},
{
closed = 1;
nodes = (
"189 -200 LINE",
"264 -200 LINE",
"326 -50 LINE",
"216 -50 LINE"
);
}
);
width = 535;
}
);
unicode = 0156;
},
{
glyphname = S;
lastChange = "2016-08-30 19:25:56 +0000";
layers = (
{
hints = (
{
horizontal = 1;
place = "{-10, 65}";
},
{
horizontal = 1;
place = "{645, 65}";
}
);
layerId = UUID0;
paths = (
{
closed = 1;
nodes = (
"83 275 OFFCURVE",
"382 355 OFFCURVE",
"351 180 CURVE SMOOTH",
"336 95 OFFCURVE",
"289 55 OFFCURVE",
"174 55 CURVE SMOOTH",
"44 55 LINE",
"36 10 LINE",
"65 0 OFFCURVE",
"123 -10 OFFCURVE",
"183 -10 CURVE SMOOTH",
"348 -10 OFFCURVE",
"418 50 OFFCURVE",
"441 180 CURVE SMOOTH",
"484 425 OFFCURVE",
"185 345 OFFCURVE",
"218 530 CURVE SMOOTH",
"231 605 OFFCURVE",
"278 645 OFFCURVE",
"358 645 CURVE SMOOTH",
"488 645 LINE",
"496 690 LINE",
"468 700 OFFCURVE",
"410 710 OFFCURVE",
"350 710 CURVE SMOOTH",
"220 710 OFFCURVE",
"149 650 OFFCURVE",
"128 530 CURVE SMOOTH"
);
}
);
width = 445;
},
{
hints = (
{
horizontal = 1;
place = "{-10, 75}";
},
{
horizontal = 1;
place = "{635, 75}";
}
);
layerId = "97C2AB1A-35E1-4EAE-9807-DD7336879977";
paths = (
{
closed = 1;
nodes = (
"78 275 OFFCURVE",
"375 345 OFFCURVE",
"346 180 CURVE SMOOTH",
"333 105 OFFCURVE",
"286 65 OFFCURVE",
"186 65 CURVE SMOOTH",
"46 65 LINE",
"36 10 LINE",
"65 0 OFFCURVE",
"123 -10 OFFCURVE",
"193 -10 CURVE SMOOTH",
"363 -10 OFFCURVE",
"445 60 OFFCURVE",
"466 180 CURVE SMOOTH",
"509 425 OFFCURVE",
"212 355 OFFCURVE",
"243 530 CURVE SMOOTH",
"254 595 OFFCURVE",
"301 635 OFFCURVE",
"366 635 CURVE SMOOTH",
"506 635 LINE",
"516 690 LINE",
"488 700 OFFCURVE",
"430 710 OFFCURVE",
"360 710 CURVE SMOOTH",
"225 710 OFFCURVE",
"142 640 OFFCURVE",
"123 530 CURVE SMOOTH"
);
}
);
width = 465;
}
);
unicode = 0053;
},
{
glyphname = Sacute;
lastChange = "2016-08-30 19:25:56 +0000";
layers = (
{
hints = (
{
horizontal = 1;
place = "{-10, 65}";
},
{
horizontal = 1;
place = "{645, 65}";
},
{
horizontal = 1;
place = "{760, 130}";
}
);
layerId = UUID0;
paths = (
{
closed = 1;
nodes = (
"83 275 OFFCURVE",
"382 355 OFFCURVE",
"351 180 CURVE SMOOTH",
"336 95 OFFCURVE",
"289 55 OFFCURVE",
"174 55 CURVE SMOOTH",
"44 55 LINE",
"36 10 LINE",
"65 0 OFFCURVE",
"123 -10 OFFCURVE",
"183 -10 CURVE SMOOTH",
"348 -10 OFFCURVE",
"418 50 OFFCURVE",
"441 180 CURVE SMOOTH",
"484 425 OFFCURVE",
"185 345 OFFCURVE",
"218 530 CURVE SMOOTH",
"231 605 OFFCURVE",
"278 645 OFFCURVE",
"358 645 CURVE SMOOTH",
"488 645 LINE",
"496 690 LINE",
"468 700 OFFCURVE",
"410 710 OFFCURVE",
"350 710 CURVE SMOOTH",
"220 710 OFFCURVE",
"149 650 OFFCURVE",
"128 530 CURVE SMOOTH"
);
},
{
closed = 1;
nodes = (
"384 760 LINE",
"476 890 LINE",
"381 890 LINE",
"324 760 LINE"
);
}
);
width = 445;
},
{
hints = (
{
horizontal = 1;
place = "{-10, 75}";
},
{
horizontal = 1;
place = "{635, 75}";
},
{
horizontal = 1;
place = "{760, 130}";
}
);
layerId = "97C2AB1A-35E1-4EAE-9807-DD7336879977";
paths = (
{
closed = 1;
nodes = (
"78 275 OFFCURVE",
"375 345 OFFCURVE",
"346 180 CURVE SMOOTH",
"333 105 OFFCURVE",
"286 65 OFFCURVE",
"186 65 CURVE SMOOTH",
"46 65 LINE",
"36 10 LINE",
"65 0 OFFCURVE",
"123 -10 OFFCURVE",
"193 -10 CURVE SMOOTH",
"363 -10 OFFCURVE",
"445 60 OFFCURVE",
"466 180 CURVE SMOOTH",
"509 425 OFFCURVE",
"212 355 OFFCURVE",
"243 530 CURVE SMOOTH",
"254 595 OFFCURVE",
"301 635 OFFCURVE",
"366 635 CURVE SMOOTH",
"506 635 LINE",
"516 690 LINE",
"488 700 OFFCURVE",
"430 710 OFFCURVE",
"360 710 CURVE SMOOTH",
"225 710 OFFCURVE",
"142 640 OFFCURVE",
"123 530 CURVE SMOOTH"
);
},
{
closed = 1;
nodes = (
"399 760 LINE",
"496 890 LINE",
"381 890 LINE",
"324 760 LINE"
);
}
);
width = 465;
}
);
unicode = 015A;
},
{
glyphname = Scaron;
lastChange = "2016-08-30 19:25:56 +0000";
layers = (
{
hints = (
{
horizontal = 1;
place = "{-10, 65}";
},
{
horizontal = 1;
place = "{645, 65}";
},
{
horizontal = 1;
place = "{760, 130}";
}
);
layerId = UUID0;
paths = (
{
closed = 1;
nodes = (
"83 275 OFFCURVE",
"382 355 OFFCURVE",
"351 180 CURVE SMOOTH",
"336 95 OFFCURVE",
"289 55 OFFCURVE",
"174 55 CURVE SMOOTH",
"44 55 LINE",
"36 10 LINE",
"65 0 OFFCURVE",
"123 -10 OFFCURVE",
"183 -10 CURVE SMOOTH",
"348 -10 OFFCURVE",
"418 50 OFFCURVE",
"441 180 CURVE SMOOTH",
"484 425 OFFCURVE",
"185 345 OFFCURVE",
"218 530 CURVE SMOOTH",
"231 605 OFFCURVE",
"278 645 OFFCURVE",
"358 645 CURVE SMOOTH",
"488 645 LINE",
"496 690 LINE",
"468 700 OFFCURVE",
"410 710 OFFCURVE",
"350 710 CURVE SMOOTH",
"220 710 OFFCURVE",
"149 650 OFFCURVE",
"128 530 CURVE SMOOTH"
);
},
{
closed = 1;
nodes = (
"249 890 LINE",
"302 760 LINE",
"397 760 LINE",
"494 890 LINE",
"434 890 LINE",
"358 816 LINE",
"309 890 LINE"
);
}
);
width = 445;
},
{
hints = (
{
horizontal = 1;
place = "{-10, 75}";
},
{
horizontal = 1;
place = "{635, 75}";
},
{
horizontal = 1;
place = "{760, 130}";
}
);
layerId = "97C2AB1A-35E1-4EAE-9807-DD7336879977";
paths = (
{
closed = 1;
nodes = (
"78 275 OFFCURVE",
"375 345 OFFCURVE",
"346 180 CURVE SMOOTH",
"333 105 OFFCURVE",
"286 65 OFFCURVE",
"186 65 CURVE SMOOTH",
"46 65 LINE",
"36 10 LINE",
"65 0 OFFCURVE",
"123 -10 OFFCURVE",
"193 -10 CURVE SMOOTH",
"363 -10 OFFCURVE",
"445 60 OFFCURVE",
"466 180 CURVE SMOOTH",
"509 425 OFFCURVE",
"212 355 OFFCURVE",
"243 530 CURVE SMOOTH",
"254 595 OFFCURVE",
"301 635 OFFCURVE",
"366 635 CURVE SMOOTH",
"506 635 LINE",
"516 690 LINE",
"488 700 OFFCURVE",
"430 710 OFFCURVE",
"360 710 CURVE SMOOTH",
"225 710 OFFCURVE",
"142 640 OFFCURVE",
"123 530 CURVE SMOOTH"
);
},
{
closed = 1;
nodes = (
"249 890 LINE",
"307 760 LINE",
"412 760 LINE",
"514 890 LINE",
"437 890 LINE",
"369 820 LINE",
"325 890 LINE"
);
}
);
width = 465;
}
);
unicode = 0160;
},
{
glyphname = Scedilla;
lastChange = "2016-08-30 19:25:56 +0000";
layers = (
{
hints = (
{
horizontal = 1;
place = "{-165, 45}";
},
{
horizontal = 1;
place = "{-70, 45}";
},
{
horizontal = 1;
place = "{-10, 65}";
},
{
horizontal = 1;
place = "{645, 65}";
}
);
layerId = UUID0;
paths = (
{
closed = 1;
nodes = (
"230 -25 LINE",
"233 -7 LINE",
"362 4 OFFCURVE",
"421 64 OFFCURVE",
"441 180 CURVE SMOOTH",
"484 425 OFFCURVE",
"185 345 OFFCURVE",
"218 530 CURVE SMOOTH",
"231 605 OFFCURVE",
"278 645 OFFCURVE",
"358 645 CURVE SMOOTH",
"488 645 LINE",
"496 690 LINE",
"468 700 OFFCURVE",
"410 710 OFFCURVE",
"350 710 CURVE SMOOTH",
"220 710 OFFCURVE",
"149 650 OFFCURVE",
"128 530 CURVE SMOOTH",
"83 275 OFFCURVE",
"382 355 OFFCURVE",
"351 180 CURVE SMOOTH",
"336 95 OFFCURVE",
"289 55 OFFCURVE",
"174 55 CURVE SMOOTH",
"44 55 LINE",
"36 10 LINE",
"65 0 OFFCURVE",
"123 -10 OFFCURVE",
"183 -10 CURVE",
"172 -70 LINE",
"227 -70 LINE SMOOTH",
"247 -70 OFFCURVE",
"255 -80 OFFCURVE",
"253 -95 CURVE SMOOTH",
"250 -110 OFFCURVE",
"238 -120 OFFCURVE",
"208 -120 CURVE SMOOTH",
"143 -120 LINE",
"138 -150 LINE",
"138 -150 OFFCURVE",
"165 -165 OFFCURVE",
"210 -165 CURVE SMOOTH",
"275 -165 OFFCURVE",
"311 -135 OFFCURVE",
"318 -95 CURVE SMOOTH",
"325 -55 OFFCURVE",
"300 -25 OFFCURVE",
"245 -25 CURVE SMOOTH"
);
}
);
width = 445;
},
{
hints = (
{
horizontal = 1;
place = "{-170, 49}";
},
{
horizontal = 1;
place = "{-79, 49}";
},
{
horizontal = 1;
place = "{-8, 73}";
},
{
horizontal = 1;
place = "{635, 75}";
}
);
layerId = "97C2AB1A-35E1-4EAE-9807-DD7336879977";
paths = (
{
closed = 1;
nodes = (
"234 -30 LINE",
"238 -8 LINE",
"377 3 OFFCURVE",
"447 71 OFFCURVE",
"466 180 CURVE SMOOTH",
"509 425 OFFCURVE",
"212 355 OFFCURVE",
"243 530 CURVE SMOOTH",
"254 595 OFFCURVE",
"301 635 OFFCURVE",
"366 635 CURVE SMOOTH",
"506 635 LINE",
"516 690 LINE",
"488 700 OFFCURVE",
"430 710 OFFCURVE",
"360 710 CURVE SMOOTH",
"225 710 OFFCURVE",
"142 640 OFFCURVE",
"123 530 CURVE SMOOTH",
"78 275 OFFCURVE",
"375 345 OFFCURVE",
"346 180 CURVE SMOOTH",
"333 105 OFFCURVE",
"286 65 OFFCURVE",
"186 65 CURVE SMOOTH",
"46 65 LINE",
"36 10 LINE",
"63 0 OFFCURVE",
"117 -9 OFFCURVE",
"183 -10 CURVE",
"171 -79 LINE",
"226 -79 LINE SMOOTH",
"251 -79 OFFCURVE",
"254 -90 OFFCURVE",
"252 -100 CURVE SMOOTH",
"250 -111 OFFCURVE",
"243 -121 OFFCURVE",
"213 -121 CURVE SMOOTH",
"148 -121 LINE",
"142 -155 LINE",
"142 -155 OFFCURVE",
"165 -170 OFFCURVE",
"215 -170 CURVE SMOOTH",
"280 -170 OFFCURVE",
"320 -140 OFFCURVE",
"327 -100 CURVE SMOOTH",
"334 -60 OFFCURVE",
"309 -30 OFFCURVE",
"249 -30 CURVE SMOOTH"
);
}
);
width = 465;
}
);
unicode = 015E;
},
{
glyphname = T;
lastChange = "2016-08-30 19:25:56 +0000";
layers = (
{
hints = (
{
horizontal = 1;
place = "{630, 70}";
},
{
horizontal = 1;
place = "{0, 21}";
target = up;
type = BottomGhost;
}
);
layerId = UUID0;
paths = (
{
closed = 1;
nodes = (
"121 630 LINE",
"281 630 LINE",
"170 0 LINE",
"260 0 LINE",
"371 630 LINE",
"531 630 LINE",
"543 700 LINE",
"133 700 LINE"
);
}
);
width = 430;
},
{
hints = (
{
horizontal = 1;
place = "{620, 80}";
},
{
horizontal = 1;
place = "{0, 21}";
target = up;
type = BottomGhost;
}
);
layerId = "97C2AB1A-35E1-4EAE-9807-DD7336879977";
paths = (
{
closed = 1;
nodes = (
"119 620 LINE",
"274 620 LINE",
"165 0 LINE",
"285 0 LINE",
"394 620 LINE",
"549 620 LINE",
"563 700 LINE",
"133 700 LINE"
);
}
);
width = 450;
}
);
unicode = 0054;
},
{
glyphname = Thorn;
lastChange = "2016-08-30 19:25:56 +0000";
layers = (
{
hints = (
{
horizontal = 1;
place = "{565, 145}";
},
{
horizontal = 1;
place = "{565, 65}";
},
{
horizontal = 1;
place = "{70, 65}";
},
{
horizontal = 1;
place = "{-10, 21}";
target = up;
type = BottomGhost;
}
);
layerId = UUID0;
paths = (
{
closed = 1;
nodes = (
"285 710 LINE",
"195 710 LINE",
"68 -10 LINE",
"158 -10 LINE",
"172 70 LINE",
"379 80 OFFCURVE",
"490 175 OFFCURVE",
"521 350 CURVE",
"552 525 OFFCURVE",
"474 620 OFFCURVE",
"271 630 CURVE"
);
},
{
closed = 1;
nodes = (
"259 565 LINE",
"398 560 OFFCURVE",
"456 490 OFFCURVE",
"431 350 CURVE",
"407 210 OFFCURVE",
"324 140 OFFCURVE",
"183 135 CURVE"
);
}
);
width = 500;
},
{
hints = (
{
horizontal = 1;
place = "{560, 150}";
},
{
horizontal = 1;
place = "{560, 75}";
},
{
horizontal = 1;
place = "{65, 75}";
},
{
horizontal = 1;
place = "{-10, 21}";
target = up;
type = BottomGhost;
}
);
layerId = "97C2AB1A-35E1-4EAE-9807-DD7336879977";
paths = (
{
closed = 1;
nodes = (
"315 710 LINE",
"195 710 LINE",
"68 -10 LINE",
"188 -10 LINE",
"201 65 LINE",
"413 75 OFFCURVE",
"520 175 OFFCURVE",
"551 350 CURVE SMOOTH",
"582 525 OFFCURVE",
"510 625 OFFCURVE",
"301 635 CURVE"
);
},
{
closed = 1;
nodes = (
"288 560 LINE",
"397 555 OFFCURVE",
"454 480 OFFCURVE",
"431 350 CURVE SMOOTH",
"408 220 OFFCURVE",
"325 145 OFFCURVE",
"214 140 CURVE"
);
}
);
width = 525;
}
);
unicode = 00DE;
},
{
glyphname = U;
lastChange = "2016-08-30 19:25:56 +0000";
layers = (
{
hints = (
{
horizontal = 1;
place = "{-10, 60}";
},
{
horizontal = 1;
place = "{700, -20}";
target = down;
type = TopGhost;
}
);
layerId = UUID0;
paths = (
{
closed = 1;
nodes = (
"198 50 OFFCURVE",
"165 90 OFFCURVE",
"192 240 CURVE SMOOTH",
"273 700 LINE",
"183 700 LINE",
"102 240 LINE SMOOTH",
"68 50 OFFCURVE",
"118 -10 OFFCURVE",
"258 -10 CURVE SMOOTH",
"398 -10 OFFCURVE",
"468 50 OFFCURVE",
"502 240 CURVE SMOOTH",
"583 700 LINE",
"493 700 LINE",
"412 240 LINE SMOOTH",
"385 90 OFFCURVE",
"338 50 OFFCURVE",
"268 50 CURVE SMOOTH"
);
}
);
width = 520;
},
{
hints = (
{
horizontal = 1;
place = "{-10, 70}";
},
{
horizontal = 1;
place = "{700, -20}";
target = down;
type = TopGhost;
}
);
layerId = "97C2AB1A-35E1-4EAE-9807-DD7336879977";
paths = (
{
closed = 1;
nodes = (
"230 60 OFFCURVE",
"197 100 OFFCURVE",
"222 240 CURVE SMOOTH",
"303 700 LINE",
"183 700 LINE",
"102 240 LINE SMOOTH",
"70 60 OFFCURVE",
"128 -10 OFFCURVE",
"273 -10 CURVE SMOOTH",
"418 -10 OFFCURVE",
"500 60 OFFCURVE",
"532 240 CURVE SMOOTH",
"613 700 LINE",
"493 700 LINE",
"412 240 LINE SMOOTH",
"387 100 OFFCURVE",
"340 60 OFFCURVE",
"285 60 CURVE SMOOTH"
);
}
);
width = 550;
}
);
unicode = 0055;
},
{
glyphname = Uacute;
lastChange = "2016-08-30 19:25:56 +0000";
layers = (
{
hints = (
{
horizontal = 1;
place = "{-10, 60}";
},
{
horizontal = 1;
place = "{700, -20}";
target = down;
type = TopGhost;
},
{
horizontal = 1;
place = "{870, -20}";
target = down;
type = TopGhost;
}
);
layerId = UUID0;
paths = (
{
closed = 1;
nodes = (
"198 50 OFFCURVE",
"165 90 OFFCURVE",
"192 240 CURVE SMOOTH",
"273 700 LINE",
"183 700 LINE",
"102 240 LINE SMOOTH",
"68 50 OFFCURVE",
"118 -10 OFFCURVE",
"258 -10 CURVE SMOOTH",
"398 -10 OFFCURVE",
"468 50 OFFCURVE",
"502 240 CURVE SMOOTH",
"583 700 LINE",
"493 700 LINE",
"412 240 LINE SMOOTH",
"385 90 OFFCURVE",
"338 50 OFFCURVE",
"268 50 CURVE SMOOTH"
);
},
{
closed = 1;
nodes = (
"415 740 LINE",
"508 870 LINE",
"413 870 LINE",
"355 740 LINE"
);
}
);
width = 520;
},
{
hints = (
{
horizontal = 1;
place = "{-10, 70}";
},
{
horizontal = 1;
place = "{740, 130}";
},
{
horizontal = 1;
place = "{700, -20}";
target = down;
type = TopGhost;
}
);
layerId = "97C2AB1A-35E1-4EAE-9807-DD7336879977";
paths = (
{
closed = 1;
nodes = (
"230 60 OFFCURVE",
"197 100 OFFCURVE",
"222 240 CURVE SMOOTH",
"303 700 LINE",
"183 700 LINE",
"102 240 LINE SMOOTH",
"70 60 OFFCURVE",
"128 -10 OFFCURVE",
"273 -10 CURVE SMOOTH",
"418 -10 OFFCURVE",
"500 60 OFFCURVE",
"532 240 CURVE SMOOTH",
"613 700 LINE",
"493 700 LINE",
"412 240 LINE SMOOTH",
"387 100 OFFCURVE",
"340 60 OFFCURVE",
"285 60 CURVE SMOOTH"
);
},
{
closed = 1;
nodes = (
"435 740 LINE",
"533 870 LINE",
"418 870 LINE",
"360 740 LINE"
);
}
);
width = 550;
}
);
unicode = 00DA;
},
{
glyphname = Ucircumflex;
lastChange = "2016-08-30 19:25:56 +0000";
layers = (
{
hints = (
{
horizontal = 1;
place = "{-10, 60}";
},
{
horizontal = 1;
place = "{740, 130}";
},
{
horizontal = 1;
place = "{700, -20}";
target = down;
type = TopGhost;
}
);
layerId = UUID0;
paths = (
{
closed = 1;
nodes = (
"198 50 OFFCURVE",
"165 90 OFFCURVE",
"192 240 CURVE SMOOTH",
"273 700 LINE",
"183 700 LINE",
"102 240 LINE SMOOTH",
"68 50 OFFCURVE",
"118 -10 OFFCURVE",
"258 -10 CURVE SMOOTH",
"398 -10 OFFCURVE",
"468 50 OFFCURVE",
"502 240 CURVE SMOOTH",
"583 700 LINE",
"493 700 LINE",
"412 240 LINE SMOOTH",
"385 90 OFFCURVE",
"338 50 OFFCURVE",
"268 50 CURVE SMOOTH"
);
},
{
closed = 1;
nodes = (
"328 740 LINE",
"403 814 LINE",
"453 740 LINE",
"513 740 LINE",
"461 870 LINE",
"366 870 LINE",
"268 740 LINE"
);
}
);
width = 520;
},
{
hints = (
{
horizontal = 1;
place = "{-10, 70}";
},
{
horizontal = 1;
place = "{740, 130}";
},
{
horizontal = 1;
place = "{700, -20}";
target = down;
type = TopGhost;
}
);
layerId = "97C2AB1A-35E1-4EAE-9807-DD7336879977";
paths = (
{
closed = 1;
nodes = (
"230 60 OFFCURVE",
"197 100 OFFCURVE",
"222 240 CURVE SMOOTH",
"303 700 LINE",
"183 700 LINE",
"102 240 LINE SMOOTH",
"70 60 OFFCURVE",
"128 -10 OFFCURVE",
"273 -10 CURVE SMOOTH",
"418 -10 OFFCURVE",
"500 60 OFFCURVE",
"532 240 CURVE SMOOTH",
"613 700 LINE",
"493 700 LINE",
"412 240 LINE SMOOTH",
"387 100 OFFCURVE",
"340 60 OFFCURVE",
"285 60 CURVE SMOOTH"
);
},
{
closed = 1;
nodes = (
"349 740 LINE",
"417 810 LINE",
"461 740 LINE",
"538 740 LINE",
"481 870 LINE",
"376 870 LINE",
"273 740 LINE"
);
}
);
width = 550;
}
);
unicode = 00DB;
},
{
glyphname = Udieresis;
lastChange = "2016-08-30 19:25:56 +0000";
layers = (
{
hints = (
{
horizontal = 1;
place = "{-10, 60}";
},
{
horizontal = 1;
place = "{750, 110}";
},
{
horizontal = 1;
place = "{700, -20}";
target = down;
type = TopGhost;
}
);
layerId = UUID0;
paths = (
{
closed = 1;
nodes = (
"198 50 OFFCURVE",
"165 90 OFFCURVE",
"192 240 CURVE SMOOTH",
"273 700 LINE",
"183 700 LINE",
"102 240 LINE SMOOTH",
"68 50 OFFCURVE",
"118 -10 OFFCURVE",
"258 -10 CURVE SMOOTH",
"398 -10 OFFCURVE",
"468 50 OFFCURVE",
"502 240 CURVE SMOOTH",
"583 700 LINE",
"493 700 LINE",
"412 240 LINE SMOOTH",
"385 90 OFFCURVE",
"338 50 OFFCURVE",
"268 50 CURVE SMOOTH"
);
},
{
closed = 1;
nodes = (
"286 860 LINE",
"267 750 LINE",
"357 750 LINE",
"376 860 LINE"
);
},
{
closed = 1;
nodes = (
"446 860 LINE",
"427 750 LINE",
"517 750 LINE",
"536 860 LINE"
);
}
);
width = 520;
},
{
hints = (
{
horizontal = 1;
place = "{-10, 70}";
},
{
horizontal = 1;
place = "{740, 120}";
},
{
horizontal = 1;
place = "{700, -20}";
target = down;
type = TopGhost;
}
);
layerId = "97C2AB1A-35E1-4EAE-9807-DD7336879977";
paths = (
{
closed = 1;
nodes = (
"230 60 OFFCURVE",
"197 100 OFFCURVE",
"222 240 CURVE SMOOTH",
"303 700 LINE",
"183 700 LINE",
"102 240 LINE SMOOTH",
"70 60 OFFCURVE",
"128 -10 OFFCURVE",
"273 -10 CURVE SMOOTH",
"418 -10 OFFCURVE",
"500 60 OFFCURVE",
"532 240 CURVE SMOOTH",
"613 700 LINE",
"493 700 LINE",
"412 240 LINE SMOOTH",
"387 100 OFFCURVE",
"340 60 OFFCURVE",
"285 60 CURVE SMOOTH"
);
},
{
closed = 1;
nodes = (
"291 860 LINE",
"270 740 LINE",
"380 740 LINE",
"401 860 LINE"
);
},
{
closed = 1;
nodes = (
"451 860 LINE",
"430 740 LINE",
"540 740 LINE",
"561 860 LINE"
);
}
);
width = 550;
}
);
unicode = 00DC;
},
{
glyphname = Ugrave;
lastChange = "2016-08-30 19:25:56 +0000";
layers = (
{
hints = (
{
horizontal = 1;
place = "{-10, 60}";
},
{
horizontal = 1;
place = "{740, 130}";
},
{
horizontal = 1;
place = "{700, -20}";
target = down;
type = TopGhost;
}
);
layerId = UUID0;
paths = (
{
closed = 1;
nodes = (
"198 50 OFFCURVE",
"165 90 OFFCURVE",
"192 240 CURVE SMOOTH",
"273 700 LINE",
"183 700 LINE",
"102 240 LINE SMOOTH",
"68 50 OFFCURVE",
"118 -10 OFFCURVE",
"258 -10 CURVE SMOOTH",
"398 -10 OFFCURVE",
"468 50 OFFCURVE",
"502 240 CURVE SMOOTH",
"583 700 LINE",
"493 700 LINE",
"412 240 LINE SMOOTH",
"385 90 OFFCURVE",
"338 50 OFFCURVE",
"268 50 CURVE SMOOTH"
);
},
{
closed = 1;
nodes = (
"425 740 LINE",
"413 870 LINE",
"318 870 LINE",
"365 740 LINE"
);
}
);
width = 520;
},
{
hints = (
{
horizontal = 1;
place = "{-10, 70}";
},
{
horizontal = 1;
place = "{740, 130}";
},
{
horizontal = 1;
place = "{700, -20}";
target = down;
type = TopGhost;
}
);
layerId = "97C2AB1A-35E1-4EAE-9807-DD7336879977";
paths = (
{
closed = 1;
nodes = (
"230 60 OFFCURVE",
"197 100 OFFCURVE",
"222 240 CURVE SMOOTH",
"303 700 LINE",
"183 700 LINE",
"102 240 LINE SMOOTH",
"70 60 OFFCURVE",
"128 -10 OFFCURVE",
"273 -10 CURVE SMOOTH",
"418 -10 OFFCURVE",
"500 60 OFFCURVE",
"532 240 CURVE SMOOTH",
"613 700 LINE",
"493 700 LINE",
"412 240 LINE SMOOTH",
"387 100 OFFCURVE",
"340 60 OFFCURVE",
"285 60 CURVE SMOOTH"
);
},
{
closed = 1;
nodes = (
"450 740 LINE",
"438 870 LINE",
"323 870 LINE",
"375 740 LINE"
);
}
);
width = 550;
}
);
unicode = 00D9;
},
{
glyphname = Umacron;
lastChange = "2016-08-30 19:25:56 +0000";
layers = (
{
hints = (
{
horizontal = 1;
place = "{-10, 60}";
},
{
horizontal = 1;
place = "{770, 60}";
},
{
horizontal = 1;
place = "{700, -20}";
target = down;
type = TopGhost;
}
);
layerId = UUID0;
paths = (
{
closed = 1;
nodes = (
"198 50 OFFCURVE",
"165 90 OFFCURVE",
"192 240 CURVE SMOOTH",
"273 700 LINE",
"183 700 LINE",
"102 240 LINE SMOOTH",
"68 50 OFFCURVE",
"118 -10 OFFCURVE",
"258 -10 CURVE SMOOTH",
"398 -10 OFFCURVE",
"468 50 OFFCURVE",
"502 240 CURVE SMOOTH",
"583 700 LINE",
"493 700 LINE",
"412 240 LINE SMOOTH",
"385 90 OFFCURVE",
"338 50 OFFCURVE",
"268 50 CURVE SMOOTH"
);
},
{
closed = 1;
nodes = (
"280 770 LINE",
"510 770 LINE",
"521 830 LINE",
"291 830 LINE"
);
}
);
width = 520;
},
{
hints = (
{
horizontal = 1;
place = "{-10, 70}";
},
{
horizontal = 1;
place = "{760, 70}";
},
{
horizontal = 1;
place = "{700, -20}";
target = down;
type = TopGhost;
}
);
layerId = "97C2AB1A-35E1-4EAE-9807-DD7336879977";
paths = (
{
closed = 1;
nodes = (
"230 60 OFFCURVE",
"197 100 OFFCURVE",
"222 240 CURVE SMOOTH",
"303 700 LINE",
"183 700 LINE",
"102 240 LINE SMOOTH",
"70 60 OFFCURVE",
"128 -10 OFFCURVE",
"273 -10 CURVE SMOOTH",
"418 -10 OFFCURVE",
"500 60 OFFCURVE",
"532 240 CURVE SMOOTH",
"613 700 LINE",
"493 700 LINE",
"412 240 LINE SMOOTH",
"387 100 OFFCURVE",
"340 60 OFFCURVE",
"285 60 CURVE SMOOTH"
);
},
{
closed = 1;
nodes = (
"289 760 LINE",
"529 760 LINE",
"541 830 LINE",
"301 830 LINE"
);
}
);
width = 550;
}
);
unicode = 016A;
},
{
glyphname = Uogonek;
lastChange = "2016-08-30 19:25:56 +0000";
layers = (
{
hints = (
{
horizontal = 1;
place = "{-160, 56}";
},
{
horizontal = 1;
place = "{-9, 59}";
},
{
horizontal = 1;
place = "{700, -20}";
target = down;
type = TopGhost;
}
);
layerId = UUID0;
paths = (
{
closed = 1;
nodes = (
"278 -9 LINE",
"405 -4 OFFCURVE",
"470 59 OFFCURVE",
"502 240 CURVE SMOOTH",
"583 700 LINE",
"493 700 LINE",
"412 240 LINE SMOOTH",
"385 90 OFFCURVE",
"338 50 OFFCURVE",
"268 50 CURVE SMOOTH",
"198 50 OFFCURVE",
"165 90 OFFCURVE",
"192 240 CURVE SMOOTH",
"273 700 LINE",
"183 700 LINE",
"102 240 LINE SMOOTH",
"70 61 OFFCURVE",
"112 -2 OFFCURVE",
"232 -9 CURVE",
"223 -22 OFFCURVE",
"206 -48 OFFCURVE",
"200 -80 CURVE SMOOTH",
"192 -130 OFFCURVE",
"216 -160 OFFCURVE",
"271 -160 CURVE SMOOTH",
"316 -160 OFFCURVE",
"349 -145 OFFCURVE",
"349 -145 CURVE",
"356 -104 LINE",
"321 -104 LINE SMOOTH",
"276 -104 OFFCURVE",
"264 -90 OFFCURVE",
"272 -45 CURVE SMOOTH"
);
}
);
width = 520;
},
{
hints = (
{
horizontal = 1;
place = "{-160, 60}";
},
{
horizontal = 1;
place = "{-9, 69}";
},
{
horizontal = 1;
place = "{700, -20}";
target = down;
type = TopGhost;
}
);
layerId = "97C2AB1A-35E1-4EAE-9807-DD7336879977";
paths = (
{
closed = 1;
nodes = (
"230 60 OFFCURVE",
"197 100 OFFCURVE",
"222 240 CURVE SMOOTH",
"303 700 LINE",
"183 700 LINE",
"102 240 LINE SMOOTH",
"72 73 OFFCURVE",
"120 1 OFFCURVE",
"241 -9 CURVE",
"232 -21 OFFCURVE",
"215 -46 OFFCURVE",
"209 -80 CURVE SMOOTH",
"201 -125 OFFCURVE",
"230 -160 OFFCURVE",
"285 -160 CURVE SMOOTH",
"330 -160 OFFCURVE",
"364 -145 OFFCURVE",
"364 -145 CURVE",
"372 -100 LINE",
"336 -100 LINE SMOOTH",
"301 -100 OFFCURVE",
"285 -80 OFFCURVE",
"292 -45 CURVE SMOOTH",
"298 -9 LINE",
"427 -1 OFFCURVE",
"502 70 OFFCURVE",
"532 240 CURVE SMOOTH",
"613 700 LINE",
"493 700 LINE",
"412 240 LINE SMOOTH",
"387 100 OFFCURVE",
"340 60 OFFCURVE",
"285 60 CURVE SMOOTH"
);
}
);
width = 550;
}
);
unicode = 0172;
},
{
glyphname = V;
lastChange = "2016-08-30 19:25:56 +0000";
layers = (
{
hints = (
{
place = "{161, 85}";
},
{
horizontal = 1;
place = "{700, -20}";
target = down;
type = TopGhost;
},
{
horizontal = 1;
place = "{0, 21}";
target = up;
type = BottomGhost;
}
);
layerId = UUID0;
paths = (
{
closed = 1;
nodes = (
"233 700 LINE",
"143 700 LINE",
"180 0 LINE",
"310 0 LINE",
"593 700 LINE",
"503 700 LINE",
"263 95 LINE",
"259 95 LINE"
);
}
);
width = 490;
},
{
hints = (
{
place = "{161, 113}";
},
{
horizontal = 1;
place = "{700, -20}";
target = down;
type = TopGhost;
},
{
horizontal = 1;
place = "{0, 21}";
target = up;
type = BottomGhost;
}
);
layerId = "97C2AB1A-35E1-4EAE-9807-DD7336879977";
paths = (
{
closed = 1;
nodes = (
"138 700 LINE",
"185 0 LINE",
"335 0 LINE",
"628 700 LINE",
"503 700 LINE",
"289 155 LINE",
"285 155 LINE",
"263 700 LINE"
);
}
);
width = 520;
}
);
unicode = 0056;
},
{
glyphname = W;
lastChange = "2016-08-30 19:25:56 +0000";
layers = (
{
hints = (
{
place = "{139, 91}";
},
{
horizontal = 1;
place = "{700, -20}";
target = down;
type = TopGhost;
},
{
horizontal = 1;
place = "{0, 21}";
target = up;
type = BottomGhost;
}
);
layerId = UUID0;
paths = (
{
closed = 1;
nodes = (
"415 570 LINE",
"233 160 LINE",
"228 160 LINE",
"233 700 LINE",
"143 700 LINE",
"135 0 LINE",
"245 0 LINE",
"432 420 LINE",
"436 420 LINE",
"475 0 LINE",
"585 0 LINE",
"823 700 LINE",
"733 700 LINE",
"548 160 LINE",
"543 160 LINE",
"505 570 LINE"
);
}
);
width = 720;
},
{
hints = (
{
place = "{139, 122}";
},
{
horizontal = 1;
place = "{700, -20}";
target = down;
type = TopGhost;
},
{
horizontal = 1;
place = "{0, 21}";
target = up;
type = BottomGhost;
}
);
layerId = "97C2AB1A-35E1-4EAE-9807-DD7336879977";
paths = (
{
closed = 1;
nodes = (
"263 195 LINE",
"259 195 LINE",
"263 700 LINE",
"138 700 LINE",
"140 0 LINE",
"270 0 LINE",
"441 390 LINE",
"445 390 LINE",
"480 0 LINE",
"610 0 LINE",
"858 700 LINE",
"733 700 LINE",
"559 195 LINE",
"555 195 LINE",
"525 570 LINE",
"425 570 LINE"
);
}
);
width = 750;
}
);
unicode = 0057;
},
{
glyphname = X;
lastChange = "2016-08-30 19:25:56 +0000";
layers = (
{
hints = (
{
horizontal = 1;
place = "{700, -20}";
target = down;
type = TopGhost;
},
{
horizontal = 1;
place = "{0, 21}";
target = up;
type = BottomGhost;
}
);
layerId = UUID0;
paths = (
{
closed = 1;
nodes = (
"304 420 LINE",
"243 700 LINE",
"153 700 LINE",
"228 360 LINE",
"15 0 LINE",
"105 0 LINE",
"282 300 LINE",
"355 0 LINE",
"445 0 LINE",
"358 360 LINE",
"553 700 LINE",
"463 700 LINE"
);
}
);
width = 460;
},
{
hints = (
{
horizontal = 1;
place = "{700, -20}";
target = down;
type = TopGhost;
},
{
horizontal = 1;
place = "{0, 21}";
target = up;
type = BottomGhost;
}
);
layerId = "97C2AB1A-35E1-4EAE-9807-DD7336879977";
paths = (
{
closed = 1;
nodes = (
"148 700 LINE",
"218 360 LINE",
"10 0 LINE",
"135 0 LINE",
"295 285 LINE",
"355 0 LINE",
"480 0 LINE",
"398 360 LINE",
"588 700 LINE",
"463 700 LINE",
"322 440 LINE",
"273 700 LINE"
);
}
);
width = 490;
}
);
unicode = 0058;
},
{
glyphname = Y;
lastChange = "2016-08-30 19:25:56 +0000";
layers = (
{
hints = (
{
horizontal = 1;
place = "{700, -20}";
target = down;
type = TopGhost;
},
{
horizontal = 1;
place = "{0, 21}";
target = up;
type = BottomGhost;
}
);
layerId = UUID0;
paths = (
{
closed = 1;
nodes = (
"285 345 LINE",
"223 700 LINE",
"133 700 LINE",
"218 220 LINE",
"180 0 LINE",
"270 0 LINE",
"308 220 LINE",
"563 700 LINE",
"473 700 LINE"
);
}
);
width = 450;
},
{
hints = (
{
horizontal = 1;
place = "{700, -20}";
target = down;
type = TopGhost;
},
{
horizontal = 1;
place = "{0, 21}";
target = up;
type = BottomGhost;
}
);
layerId = "97C2AB1A-35E1-4EAE-9807-DD7336879977";
paths = (
{
closed = 1;
nodes = (
"253 700 LINE",
"128 700 LINE",
"217 210 LINE",
"180 0 LINE",
"300 0 LINE",
"337 210 LINE",
"598 700 LINE",
"473 700 LINE",
"306 365 LINE",
"302 365 LINE"
);
}
);
width = 480;
}
);
unicode = 0059;
},
{
glyphname = Yacute;
lastChange = "2016-08-30 19:25:56 +0000";
layers = (
{
hints = (
{
horizontal = 1;
place = "{870, -20}";
target = down;
type = TopGhost;
},
{
horizontal = 1;
place = "{700, -20}";
target = down;
type = TopGhost;
},
{
horizontal = 1;
place = "{0, 21}";
target = up;
type = BottomGhost;
}
);
layerId = UUID0;
paths = (
{
closed = 1;
nodes = (
"380 740 LINE",
"473 870 LINE",
"378 870 LINE",
"320 740 LINE"
);
},
{
closed = 1;
nodes = (
"285 345 LINE",
"223 700 LINE",
"133 700 LINE",
"218 220 LINE",
"180 0 LINE",
"270 0 LINE",
"308 220 LINE",
"563 700 LINE",
"473 700 LINE"
);
}
);
width = 450;
},
{
hints = (
{
horizontal = 1;
place = "{740, 130}";
},
{
horizontal = 1;
place = "{700, -20}";
target = down;
type = TopGhost;
},
{
horizontal = 1;
place = "{0, 21}";
target = up;
type = BottomGhost;
}
);
layerId = "97C2AB1A-35E1-4EAE-9807-DD7336879977";
paths = (
{
closed = 1;
nodes = (
"253 700 LINE",
"128 700 LINE",
"217 210 LINE",
"180 0 LINE",
"300 0 LINE",
"337 210 LINE",
"598 700 LINE",
"473 700 LINE",
"306 365 LINE",
"302 365 LINE"
);
},
{
closed = 1;
nodes = (
"404 740 LINE",
"502 870 LINE",
"387 870 LINE",
"329 740 LINE"
);
}
);
width = 480;
}
);
unicode = 00DD;
},
{
glyphname = Ydieresis;
lastChange = "2016-08-30 19:25:56 +0000";
layers = (
{
hints = (
{
horizontal = 1;
place = "{770, 110}";
},
{
horizontal = 1;
place = "{700, -20}";
target = down;
type = TopGhost;
},
{
horizontal = 1;
place = "{0, 21}";
target = up;
type = BottomGhost;
}
);
layerId = UUID0;
paths = (
{
closed = 1;
nodes = (
"255 880 LINE",
"235 770 LINE",
"325 770 LINE",
"345 880 LINE"
);
},
{
closed = 1;
nodes = (
"415 880 LINE",
"395 770 LINE",
"485 770 LINE",
"505 880 LINE"
);
},
{
closed = 1;
nodes = (
"285 345 LINE",
"223 700 LINE",
"133 700 LINE",
"218 220 LINE",
"180 0 LINE",
"270 0 LINE",
"308 220 LINE",
"563 700 LINE",
"473 700 LINE"
);
}
);
width = 450;
},
{
hints = (
{
horizontal = 1;
place = "{760, 120}";
},
{
horizontal = 1;
place = "{700, -20}";
target = down;
type = TopGhost;
},
{
horizontal = 1;
place = "{0, 21}";
target = up;
type = BottomGhost;
}
);
layerId = "97C2AB1A-35E1-4EAE-9807-DD7336879977";
paths = (
{
closed = 1;
nodes = (
"253 700 LINE",
"128 700 LINE",
"217 210 LINE",
"180 0 LINE",
"300 0 LINE",
"337 210 LINE",
"598 700 LINE",
"473 700 LINE",
"306 365 LINE",
"302 365 LINE"
);
},
{
closed = 1;
nodes = (
"260 880 LINE",
"239 760 LINE",
"349 760 LINE",
"370 880 LINE"
);
},
{
closed = 1;
nodes = (
"420 880 LINE",
"399 760 LINE",
"509 760 LINE",
"530 880 LINE"
);
}
);
width = 480;
}
);
unicode = 0178;
},
{
glyphname = Z;
lastChange = "2016-08-30 19:25:56 +0000";
layers = (
{
hints = (
{
horizontal = 1;
place = "{0, 70}";
},
{
horizontal = 1;
place = "{630, 70}";
}
);
layerId = UUID0;
paths = (
{
closed = 1;
nodes = (
"496 635 LINE",
"508 700 LINE",
"148 700 LINE",
"136 630 LINE",
"391 630 LINE",
"31 65 LINE",
"20 0 LINE",
"380 0 LINE",
"392 70 LINE",
"137 70 LINE"
);
}
);
width = 405;
},
{
hints = (
{
horizontal = 1;
place = "{0, 80}";
},
{
horizontal = 1;
place = "{620, 80}";
}
);
layerId = "97C2AB1A-35E1-4EAE-9807-DD7336879977";
paths = (
{
closed = 1;
nodes = (
"525 625 LINE",
"538 700 LINE",
"148 700 LINE",
"134 620 LINE",
"389 620 LINE",
"33 75 LINE",
"20 0 LINE",
"410 0 LINE",
"424 80 LINE",
"169 80 LINE"
);
}
);
width = 435;
}
);
unicode = 005A;
},
{
glyphname = Zacute;
lastChange = "2016-08-30 19:25:56 +0000";
layers = (
{
hints = (
{
horizontal = 1;
place = "{0, 70}";
},
{
horizontal = 1;
place = "{630, 70}";
},
{
horizontal = 1;
place = "{630, 250}";
}
);
layerId = UUID0;
paths = (
{
closed = 1;
nodes = (
"496 635 LINE",
"508 700 LINE",
"148 700 LINE",
"136 630 LINE",
"391 630 LINE",
"31 65 LINE",
"20 0 LINE",
"380 0 LINE",
"392 70 LINE",
"137 70 LINE"
);
},
{
closed = 1;
nodes = (
"362 750 LINE",
"455 880 LINE",
"360 880 LINE",
"302 750 LINE"
);
}
);
width = 405;
},
{
hints = (
{
horizontal = 1;
place = "{0, 80}";
},
{
horizontal = 1;
place = "{620, 80}";
},
{
horizontal = 1;
place = "{750, 130}";
}
);
layerId = "97C2AB1A-35E1-4EAE-9807-DD7336879977";
paths = (
{
closed = 1;
nodes = (
"382 750 LINE",
"480 880 LINE",
"365 880 LINE",
"307 750 LINE"
);
},
{
closed = 1;
nodes = (
"525 625 LINE",
"538 700 LINE",
"148 700 LINE",
"134 620 LINE",
"389 620 LINE",
"33 75 LINE",
"20 0 LINE",
"410 0 LINE",
"424 80 LINE",
"169 80 LINE"
);
}
);
width = 435;
}
);
unicode = 0179;
},
{
glyphname = Zcaron;
lastChange = "2016-08-30 19:25:56 +0000";
layers = (
{
hints = (
{
horizontal = 1;
place = "{0, 70}";
},
{
horizontal = 1;
place = "{630, 70}";
},
{
horizontal = 1;
place = "{760, 130}";
}
);
layerId = UUID0;
paths = (
{
closed = 1;
nodes = (
"496 635 LINE",
"508 700 LINE",
"148 700 LINE",
"136 630 LINE",
"391 630 LINE",
"31 65 LINE",
"20 0 LINE",
"380 0 LINE",
"392 70 LINE",
"137 70 LINE"
);
},
{
closed = 1;
nodes = (
"249 890 LINE",
"302 760 LINE",
"397 760 LINE",
"494 890 LINE",
"434 890 LINE",
"358 816 LINE",
"309 890 LINE"
);
}
);
width = 405;
},
{
hints = (
{
horizontal = 1;
place = "{0, 80}";
},
{
horizontal = 1;
place = "{620, 80}";
},
{
horizontal = 1;
place = "{760, 130}";
}
);
layerId = "97C2AB1A-35E1-4EAE-9807-DD7336879977";
paths = (
{
closed = 1;
nodes = (
"254 890 LINE",
"312 760 LINE",
"417 760 LINE",
"519 890 LINE",
"442 890 LINE",
"374 820 LINE",
"330 890 LINE"
);
},
{
closed = 1;
nodes = (
"525 625 LINE",
"538 700 LINE",
"148 700 LINE",
"134 620 LINE",
"389 620 LINE",
"33 75 LINE",
"20 0 LINE",
"410 0 LINE",
"424 80 LINE",
"169 80 LINE"
);
}
);
width = 435;
}
);
unicode = 017D;
},
{
glyphname = Zdotaccent;
lastChange = "2016-08-30 19:25:56 +0000";
layers = (
{
hints = (
{
horizontal = 1;
place = "{0, 70}";
},
{
horizontal = 1;
place = "{630, 70}";
},
{
horizontal = 1;
place = "{770, 110}";
}
);
layerId = UUID0;
paths = (
{
closed = 1;
nodes = (
"496 635 LINE",
"508 700 LINE",
"148 700 LINE",
"136 630 LINE",
"391 630 LINE",
"31 65 LINE",
"20 0 LINE",
"380 0 LINE",
"392 70 LINE",
"137 70 LINE"
);
},
{
closed = 1;
nodes = (
"315 880 LINE",
"295 770 LINE",
"385 770 LINE",
"405 880 LINE"
);
}
);
width = 405;
},
{
hints = (
{
horizontal = 1;
place = "{0, 80}";
},
{
horizontal = 1;
place = "{620, 80}";
},
{
horizontal = 1;
place = "{760, 120}";
}
);
layerId = "97C2AB1A-35E1-4EAE-9807-DD7336879977";
paths = (
{
closed = 1;
nodes = (
"320 880 LINE",
"299 760 LINE",
"409 760 LINE",
"430 880 LINE"
);
},
{
closed = 1;
nodes = (
"525 625 LINE",
"538 700 LINE",
"148 700 LINE",
"134 620 LINE",
"389 620 LINE",
"33 75 LINE",
"20 0 LINE",
"410 0 LINE",
"424 80 LINE",
"169 80 LINE"
);
}
);
width = 435;
}
);
unicode = 017B;
},
{
glyphname = a;
lastChange = "2016-08-30 19:25:56 +0000";
layers = (
{
hints = (
{
horizontal = 1;
place = "{-10, 60}";
},
{
horizontal = 1;
place = "{450, 60}";
},
{
horizontal = 1;
place = "{0, 21}";
target = up;
type = BottomGhost;
}
);
layerId = UUID0;
paths = (
{
closed = 1;
nodes = (
"484 480 LINE",
"438 500 OFFCURVE",
"389 510 OFFCURVE",
"329 510 CURVE SMOOTH",
"194 510 OFFCURVE",
"124 450 OFFCURVE",
"89 250 CURVE SMOOTH",
"53 50 OFFCURVE",
"103 -10 OFFCURVE",
"208 -10 CURVE",
"248 -10 OFFCURVE",
"290 5 OFFCURVE",
"320 30 CURVE",
"325 30 LINE",
"325 0 LINE",
"400 0 LINE"
);
},
{
closed = 1;
nodes = (
"389 450 LINE",
"322 70 LINE",
"305 60 OFFCURVE",
"273 50 OFFCURVE",
"248 50 CURVE SMOOTH",
"183 50 OFFCURVE",
"150 90 OFFCURVE",
"179 250 CURVE SMOOTH",
"207 410 OFFCURVE",
"254 450 OFFCURVE",
"319 450 CURVE SMOOTH"
);
}
);
width = 465;
},
{
hints = (
{
horizontal = 1;
place = "{-10, 70}";
},
{
horizontal = 1;
place = "{440, 70}";
},
{
horizontal = 1;
place = "{0, 21}";
target = up;
type = BottomGhost;
}
);
layerId = "97C2AB1A-35E1-4EAE-9807-DD7336879977";
paths = (
{
closed = 1;
nodes = (
"382 440 LINE",
"319 80 LINE",
"307 70 OFFCURVE",
"285 60 OFFCURVE",
"260 60 CURVE SMOOTH",
"210 60 OFFCURVE",
"177 100 OFFCURVE",
"204 250 CURVE SMOOTH",
"230 400 OFFCURVE",
"277 440 OFFCURVE",
"337 440 CURVE SMOOTH"
);
},
{
closed = 1;
nodes = (
"509 480 LINE",
"463 500 OFFCURVE",
"419 510 OFFCURVE",
"349 510 CURVE SMOOTH",
"199 510 OFFCURVE",
"117 440 OFFCURVE",
"84 250 CURVE SMOOTH",
"50 60 OFFCURVE",
"108 -10 OFFCURVE",
"208 -10 CURVE",
"263 -10 OFFCURVE",
"300 10 OFFCURVE",
"325 30 CURVE",
"330 30 LINE",
"340 0 LINE",
"425 0 LINE"
);
}
);
width = 490;
}
);
unicode = 0061;
},
{
glyphname = aacute;
lastChange = "2016-08-30 19:25:56 +0000";
layers = (
{
hints = (
{
horizontal = 1;
place = "{-10, 60}";
},
{
horizontal = 1;
place = "{450, 60}";
},
{
horizontal = 1;
place = "{560, 130}";
},
{
horizontal = 1;
place = "{0, 21}";
target = up;
type = BottomGhost;
}
);
layerId = UUID0;
paths = (
{
closed = 1;
nodes = (
"368 560 LINE",
"461 690 LINE",
"366 690 LINE",
"308 560 LINE"
);
},
{
closed = 1;
nodes = (
"484 480 LINE",
"438 500 OFFCURVE",
"389 510 OFFCURVE",
"329 510 CURVE SMOOTH",
"194 510 OFFCURVE",
"124 450 OFFCURVE",
"89 250 CURVE SMOOTH",
"53 50 OFFCURVE",
"103 -10 OFFCURVE",
"208 -10 CURVE SMOOTH",
"248 -10 OFFCURVE",
"290 5 OFFCURVE",
"320 30 CURVE",
"325 30 LINE",
"325 0 LINE",
"400 0 LINE"
);
},
{
closed = 1;
nodes = (
"389 450 LINE",
"322 70 LINE",
"305 60 OFFCURVE",
"273 50 OFFCURVE",
"248 50 CURVE SMOOTH",
"183 50 OFFCURVE",
"150 90 OFFCURVE",
"179 250 CURVE SMOOTH",
"207 410 OFFCURVE",
"254 450 OFFCURVE",
"319 450 CURVE SMOOTH"
);
}
);
width = 465;
},
{
hints = (
{
horizontal = 1;
place = "{-10, 70}";
},
{
horizontal = 1;
place = "{440, 70}";
},
{
horizontal = 1;
place = "{560, 130}";
},
{
horizontal = 1;
place = "{0, 21}";
target = up;
type = BottomGhost;
}
);
layerId = "97C2AB1A-35E1-4EAE-9807-DD7336879977";
paths = (
{
closed = 1;
nodes = (
"383 560 LINE",
"481 690 LINE",
"366 690 LINE",
"308 560 LINE"
);
},
{
closed = 1;
nodes = (
"382 440 LINE",
"319 80 LINE",
"307 70 OFFCURVE",
"285 60 OFFCURVE",
"260 60 CURVE SMOOTH",
"210 60 OFFCURVE",
"177 100 OFFCURVE",
"204 250 CURVE SMOOTH",
"230 400 OFFCURVE",
"277 440 OFFCURVE",
"337 440 CURVE SMOOTH"
);
},
{
closed = 1;
nodes = (
"509 480 LINE",
"463 500 OFFCURVE",
"419 510 OFFCURVE",
"349 510 CURVE SMOOTH",
"199 510 OFFCURVE",
"117 440 OFFCURVE",
"84 250 CURVE SMOOTH",
"50 60 OFFCURVE",
"108 -10 OFFCURVE",
"208 -10 CURVE SMOOTH",
"263 -10 OFFCURVE",
"300 10 OFFCURVE",
"325 30 CURVE",
"330 30 LINE",
"340 0 LINE",
"425 0 LINE"
);
}
);
width = 490;
}
);
unicode = 00E1;
},
{
glyphname = acircumflex;
lastChange = "2016-08-30 19:25:56 +0000";
layers = (
{
hints = (
{
horizontal = 1;
place = "{-10, 60}";
},
{
horizontal = 1;
place = "{450, 60}";
},
{
horizontal = 1;
place = "{550, 130}";
},
{
horizontal = 1;
place = "{0, 21}";
target = up;
type = BottomGhost;
}
);
layerId = UUID0;
paths = (
{
closed = 1;
nodes = (
"280 550 LINE",
"356 624 LINE",
"405 550 LINE",
"465 550 LINE",
"413 680 LINE",
"318 680 LINE",
"220 550 LINE"
);
},
{
closed = 1;
nodes = (
"483 480 LINE",
"437 500 OFFCURVE",
"388 510 OFFCURVE",
"328 510 CURVE SMOOTH",
"193 510 OFFCURVE",
"123 450 OFFCURVE",
"88 250 CURVE SMOOTH",
"52 50 OFFCURVE",
"102 -10 OFFCURVE",
"207 -10 CURVE SMOOTH",
"247 -10 OFFCURVE",
"289 5 OFFCURVE",
"319 30 CURVE",
"324 30 LINE",
"324 0 LINE",
"399 0 LINE"
);
},
{
closed = 1;
nodes = (
"388 450 LINE",
"321 70 LINE",
"304 60 OFFCURVE",
"272 50 OFFCURVE",
"247 50 CURVE SMOOTH",
"182 50 OFFCURVE",
"149 90 OFFCURVE",
"178 250 CURVE SMOOTH",
"206 410 OFFCURVE",
"253 450 OFFCURVE",
"318 450 CURVE SMOOTH"
);
}
);
width = 464;
},
{
hints = (
{
horizontal = 1;
place = "{-10, 70}";
},
{
horizontal = 1;
place = "{440, 70}";
},
{
horizontal = 1;
place = "{550, 130}";
},
{
horizontal = 1;
place = "{0, 21}";
target = up;
type = BottomGhost;
}
);
layerId = "97C2AB1A-35E1-4EAE-9807-DD7336879977";
paths = (
{
closed = 1;
nodes = (
"297 550 LINE",
"366 620 LINE",
"409 550 LINE",
"486 550 LINE",
"429 680 LINE",
"324 680 LINE",
"221 550 LINE"
);
},
{
closed = 1;
nodes = (
"382 440 LINE",
"319 80 LINE",
"307 70 OFFCURVE",
"285 60 OFFCURVE",
"260 60 CURVE SMOOTH",
"210 60 OFFCURVE",
"177 100 OFFCURVE",
"204 250 CURVE SMOOTH",
"230 400 OFFCURVE",
"277 440 OFFCURVE",
"337 440 CURVE SMOOTH"
);
},
{
closed = 1;
nodes = (
"509 480 LINE",
"463 500 OFFCURVE",
"419 510 OFFCURVE",
"349 510 CURVE SMOOTH",
"199 510 OFFCURVE",
"117 440 OFFCURVE",
"84 250 CURVE SMOOTH",
"50 60 OFFCURVE",
"108 -10 OFFCURVE",
"208 -10 CURVE SMOOTH",
"263 -10 OFFCURVE",
"300 10 OFFCURVE",
"325 30 CURVE",
"330 30 LINE",
"340 0 LINE",
"425 0 LINE"
);
}
);
width = 490;
}
);
unicode = 00E2;
},
{
glyphname = acute;
lastChange = "2016-08-30 19:25:56 +0000";
layers = (
{
hints = (
{
horizontal = 1;
place = "{560, 130}";
}
);
layerId = UUID0;
paths = (
{
closed = 1;
nodes = (
"178 560 LINE",
"271 690 LINE",
"176 690 LINE",
"118 560 LINE"
);
}
);
width = 170;
},
{
hints = (
{
horizontal = 1;
place = "{560, 130}";
}
);
layerId = "97C2AB1A-35E1-4EAE-9807-DD7336879977";
paths = (
{
closed = 1;
nodes = (
"193 560 LINE",
"291 690 LINE",
"176 690 LINE",
"118 560 LINE"
);
}
);
width = 190;
}
);
unicode = 00B4;
},
{
glyphname = adieresis;
lastChange = "2016-08-30 19:25:56 +0000";
layers = (
{
hints = (
{
horizontal = 1;
place = "{-10, 60}";
},
{
horizontal = 1;
place = "{450, 60}";
},
{
horizontal = 1;
place = "{570, 110}";
},
{
horizontal = 1;
place = "{0, 21}";
target = up;
type = BottomGhost;
}
);
layerId = UUID0;
paths = (
{
closed = 1;
nodes = (
"238 680 LINE",
"219 570 LINE",
"309 570 LINE",
"328 680 LINE"
);
},
{
closed = 1;
nodes = (
"398 680 LINE",
"379 570 LINE",
"469 570 LINE",
"488 680 LINE"
);
},
{
closed = 1;
nodes = (
"483 480 LINE",
"437 500 OFFCURVE",
"388 510 OFFCURVE",
"328 510 CURVE SMOOTH",
"193 510 OFFCURVE",
"123 450 OFFCURVE",
"88 250 CURVE SMOOTH",
"52 50 OFFCURVE",
"102 -10 OFFCURVE",
"207 -10 CURVE SMOOTH",
"247 -10 OFFCURVE",
"289 5 OFFCURVE",
"319 30 CURVE",
"324 30 LINE",
"324 0 LINE",
"399 0 LINE"
);
},
{
closed = 1;
nodes = (
"388 450 LINE",
"321 70 LINE",
"304 60 OFFCURVE",
"272 50 OFFCURVE",
"247 50 CURVE SMOOTH",
"182 50 OFFCURVE",
"149 90 OFFCURVE",
"178 250 CURVE SMOOTH",
"206 410 OFFCURVE",
"253 450 OFFCURVE",
"318 450 CURVE SMOOTH"
);
}
);
width = 464;
},
{
hints = (
{
horizontal = 1;
place = "{-10, 70}";
},
{
horizontal = 1;
place = "{440, 70}";
},
{
horizontal = 1;
place = "{560, 120}";
},
{
horizontal = 1;
place = "{0, 21}";
target = up;
type = BottomGhost;
}
);
layerId = "97C2AB1A-35E1-4EAE-9807-DD7336879977";
paths = (
{
closed = 1;
nodes = (
"239 680 LINE",
"218 560 LINE",
"328 560 LINE",
"349 680 LINE"
);
},
{
closed = 1;
nodes = (
"399 680 LINE",
"378 560 LINE",
"488 560 LINE",
"509 680 LINE"
);
},
{
closed = 1;
nodes = (
"382 440 LINE",
"319 80 LINE",
"307 70 OFFCURVE",
"285 60 OFFCURVE",
"260 60 CURVE SMOOTH",
"210 60 OFFCURVE",
"177 100 OFFCURVE",
"204 250 CURVE SMOOTH",
"230 400 OFFCURVE",
"277 440 OFFCURVE",
"337 440 CURVE SMOOTH"
);
},
{
closed = 1;
nodes = (
"509 480 LINE",
"463 500 OFFCURVE",
"419 510 OFFCURVE",
"349 510 CURVE SMOOTH",
"199 510 OFFCURVE",
"117 440 OFFCURVE",
"84 250 CURVE SMOOTH",
"50 60 OFFCURVE",
"108 -10 OFFCURVE",
"208 -10 CURVE SMOOTH",
"263 -10 OFFCURVE",
"300 10 OFFCURVE",
"325 30 CURVE",
"330 30 LINE",
"340 0 LINE",
"425 0 LINE"
);
}
);
width = 490;
}
);
unicode = 00E4;
},
{
glyphname = ae;
lastChange = "2016-08-30 19:25:56 +0000";
layers = (
{
hints = (
{
horizontal = 1;
place = "{-10, 60}";
},
{
horizontal = 1;
place = "{225, 55}";
},
{
horizontal = 1;
place = "{455, 55}";
}
);
layerId = UUID0;
paths = (
{
closed = 1;
nodes = (
"309 80 LINE",
"309 80 OFFCURVE",
"273 50 OFFCURVE",
"223 50 CURVE SMOOTH",
"183 50 OFFCURVE",
"147 70 OFFCURVE",
"159 140 CURVE SMOOTH",
"171 205 OFFCURVE",
"214 225 OFFCURVE",
"264 225 CURVE SMOOTH",
"334 225 LINE"
);
},
{
closed = 1;
nodes = (
"434 280 LINE",
"458 415 OFFCURVE",
"505 455 OFFCURVE",
"560 455 CURVE SMOOTH",
"610 455 OFFCURVE",
"639 420 OFFCURVE",
"628 360 CURVE SMOOTH",
"619 310 OFFCURVE",
"584 280 OFFCURVE",
"529 280 CURVE SMOOTH"
);
},
{
closed = 1;
nodes = (
"504 510 OFFCURVE",
"455 485 OFFCURVE",
"422 440 CURVE",
"405 485 OFFCURVE",
"354 510 OFFCURVE",
"294 510 CURVE SMOOTH",
"254 510 OFFCURVE",
"203 500 OFFCURVE",
"171 490 CURVE",
"164 450 LINE",
"264 450 LINE SMOOTH",
"334 450 OFFCURVE",
"370 430 OFFCURVE",
"354 340 CURVE SMOOTH",
"343 275 LINE",
"314 280 OFFCURVE",
"275 285 OFFCURVE",
"245 285 CURVE SMOOTH",
"155 285 OFFCURVE",
"89 255 OFFCURVE",
"69 140 CURVE SMOOTH",
"48 20 OFFCURVE",
"103 -10 OFFCURVE",
"193 -10 CURVE SMOOTH",
"263 -10 OFFCURVE",
"317 15 OFFCURVE",
"355 60 CURVE",
"381 10 OFFCURVE",
"423 -10 OFFCURVE",
"503 -10 CURVE SMOOTH",
"543 -10 OFFCURVE",
"595 0 OFFCURVE",
"626 10 CURVE",
"633 50 LINE",
"533 50 LINE SMOOTH",
"433 50 OFFCURVE",
"400 90 OFFCURVE",
"423 220 CURVE",
"518 220 LINE SMOOTH",
"643 220 OFFCURVE",
"702 270 OFFCURVE",
"718 360 CURVE SMOOTH",
"735 455 OFFCURVE",
"689 510 OFFCURVE",
"569 510 CURVE SMOOTH"
);
}
);
width = 685;
},
{
hints = (
{
horizontal = 1;
place = "{-10, 70}";
},
{
horizontal = 1;
place = "{220, 70}";
},
{
horizontal = 1;
place = "{440, 70}";
}
);
layerId = "97C2AB1A-35E1-4EAE-9807-DD7336879977";
paths = (
{
closed = 1;
nodes = (
"304 80 LINE",
"292 70 OFFCURVE",
"270 60 OFFCURVE",
"245 60 CURVE SMOOTH",
"210 60 OFFCURVE",
"174 80 OFFCURVE",
"184 140 CURVE SMOOTH",
"195 200 OFFCURVE",
"238 220 OFFCURVE",
"273 220 CURVE SMOOTH",
"328 220 LINE"
);
},
{
closed = 1;
nodes = (
"514 510 OFFCURVE",
"470 485 OFFCURVE",
"434 450 CURVE",
"410 485 OFFCURVE",
"369 510 OFFCURVE",
"294 510 CURVE SMOOTH",
"254 510 OFFCURVE",
"203 500 OFFCURVE",
"171 490 CURVE",
"162 440 LINE",
"262 440 LINE SMOOTH",
"327 440 OFFCURVE",
"364 420 OFFCURVE",
"349 340 CURVE SMOOTH",
"339 280 LINE",
"315 285 OFFCURVE",
"286 290 OFFCURVE",
"256 290 CURVE SMOOTH",
"161 290 OFFCURVE",
"85 260 OFFCURVE",
"64 140 CURVE SMOOTH",
"43 20 OFFCURVE",
"108 -10 OFFCURVE",
"203 -10 CURVE SMOOTH",
"283 -10 OFFCURVE",
"327 15 OFFCURVE",
"363 50 CURVE",
"387 15 OFFCURVE",
"428 -10 OFFCURVE",
"513 -10 CURVE SMOOTH",
"563 -10 OFFCURVE",
"615 0 OFFCURVE",
"646 10 CURVE",
"655 60 LINE",
"545 60 LINE SMOOTH",
"460 60 OFFCURVE",
"427 100 OFFCURVE",
"447 215 CURVE",
"527 215 LINE SMOOTH",
"652 215 OFFCURVE",
"730 260 OFFCURVE",
"748 360 CURVE SMOOTH",
"765 455 OFFCURVE",
"704 510 OFFCURVE",
"579 510 CURVE SMOOTH"
);
},
{
closed = 1;
nodes = (
"460 285 LINE",
"483 415 OFFCURVE",
"518 445 OFFCURVE",
"573 445 CURVE SMOOTH",
"613 445 OFFCURVE",
"639 420 OFFCURVE",
"628 360 CURVE SMOOTH",
"619 310 OFFCURVE",
"585 285 OFFCURVE",
"540 285 CURVE SMOOTH"
);
}
);
width = 715;
}
);
unicode = 00E6;
},
{
glyphname = agrave;
lastChange = "2016-08-30 19:25:56 +0000";
layers = (
{
hints = (
{
horizontal = 1;
place = "{-10, 60}";
},
{
horizontal = 1;
place = "{450, 60}";
},
{
horizontal = 1;
place = "{560, 130}";
},
{
horizontal = 1;
place = "{0, 21}";
target = up;
type = BottomGhost;
}
);
layerId = UUID0;
paths = (
{
closed = 1;
nodes = (
"387 560 LINE",
"375 690 LINE",
"280 690 LINE",
"327 560 LINE"
);
},
{
closed = 1;
nodes = (
"484 480 LINE",
"438 500 OFFCURVE",
"389 510 OFFCURVE",
"329 510 CURVE SMOOTH",
"194 510 OFFCURVE",
"124 450 OFFCURVE",
"89 250 CURVE SMOOTH",
"53 50 OFFCURVE",
"103 -10 OFFCURVE",
"208 -10 CURVE SMOOTH",
"248 -10 OFFCURVE",
"290 5 OFFCURVE",
"320 30 CURVE",
"325 30 LINE",
"325 0 LINE",
"400 0 LINE"
);
},
{
closed = 1;
nodes = (
"389 450 LINE",
"322 70 LINE",
"305 60 OFFCURVE",
"273 50 OFFCURVE",
"248 50 CURVE SMOOTH",
"183 50 OFFCURVE",
"150 90 OFFCURVE",
"179 250 CURVE SMOOTH",
"207 410 OFFCURVE",
"254 450 OFFCURVE",
"319 450 CURVE SMOOTH"
);
}
);
width = 464;
},
{
hints = (
{
horizontal = 1;
place = "{-10, 70}";
},
{
horizontal = 1;
place = "{440, 70}";
},
{
horizontal = 1;
place = "{560, 130}";
},
{
horizontal = 1;
place = "{0, 21}";
target = up;
type = BottomGhost;
}
);
layerId = "97C2AB1A-35E1-4EAE-9807-DD7336879977";
paths = (
{
closed = 1;
nodes = (
"404 560 LINE",
"392 690 LINE",
"277 690 LINE",
"329 560 LINE"
);
},
{
closed = 1;
nodes = (
"382 440 LINE",
"319 80 LINE",
"307 70 OFFCURVE",
"285 60 OFFCURVE",
"260 60 CURVE SMOOTH",
"210 60 OFFCURVE",
"177 100 OFFCURVE",
"204 250 CURVE SMOOTH",
"230 400 OFFCURVE",
"277 440 OFFCURVE",
"337 440 CURVE SMOOTH"
);
},
{
closed = 1;
nodes = (
"509 480 LINE",
"463 500 OFFCURVE",
"419 510 OFFCURVE",
"349 510 CURVE SMOOTH",
"199 510 OFFCURVE",
"117 440 OFFCURVE",
"84 250 CURVE SMOOTH",
"50 60 OFFCURVE",
"108 -10 OFFCURVE",
"208 -10 CURVE SMOOTH",
"263 -10 OFFCURVE",
"300 10 OFFCURVE",
"325 30 CURVE",
"330 30 LINE",
"340 0 LINE",
"425 0 LINE"
);
}
);
width = 490;
}
);
unicode = 00E0;
},
{
glyphname = amacron;
lastChange = "2016-08-30 19:25:56 +0000";
layers = (
{
hints = (
{
horizontal = 1;
place = "{-10, 60}";
},
{
horizontal = 1;
place = "{450, 60}";
},
{
horizontal = 1;
place = "{580, 60}";
},
{
horizontal = 1;
place = "{0, 21}";
target = up;
type = BottomGhost;
}
);
layerId = UUID0;
paths = (
{
closed = 1;
nodes = (
"237 580 LINE",
"467 580 LINE",
"477 640 LINE",
"247 640 LINE"
);
},
{
closed = 1;
nodes = (
"484 480 LINE",
"438 500 OFFCURVE",
"389 510 OFFCURVE",
"329 510 CURVE SMOOTH",
"194 510 OFFCURVE",
"124 450 OFFCURVE",
"89 250 CURVE SMOOTH",
"53 50 OFFCURVE",
"103 -10 OFFCURVE",
"208 -10 CURVE SMOOTH",
"248 -10 OFFCURVE",
"290 5 OFFCURVE",
"320 30 CURVE",
"325 30 LINE",
"325 0 LINE",
"400 0 LINE"
);
},
{
closed = 1;
nodes = (
"389 450 LINE",
"322 70 LINE",
"305 60 OFFCURVE",
"273 50 OFFCURVE",
"248 50 CURVE SMOOTH",
"183 50 OFFCURVE",
"150 90 OFFCURVE",
"179 250 CURVE SMOOTH",
"207 410 OFFCURVE",
"254 450 OFFCURVE",
"319 450 CURVE SMOOTH"
);
}
);
width = 465;
},
{
hints = (
{
horizontal = 1;
place = "{-10, 70}";
},
{
horizontal = 1;
place = "{440, 70}";
},
{
horizontal = 1;
place = "{570, 70}";
},
{
horizontal = 1;
place = "{0, 21}";
target = up;
type = BottomGhost;
}
);
layerId = "97C2AB1A-35E1-4EAE-9807-DD7336879977";
paths = (
{
closed = 1;
nodes = (
"240 570 LINE",
"480 570 LINE",
"492 640 LINE",
"252 640 LINE"
);
},
{
closed = 1;
nodes = (
"382 440 LINE",
"319 80 LINE",
"307 70 OFFCURVE",
"285 60 OFFCURVE",
"260 60 CURVE SMOOTH",
"210 60 OFFCURVE",
"177 100 OFFCURVE",
"204 250 CURVE SMOOTH",
"230 400 OFFCURVE",
"277 440 OFFCURVE",
"337 440 CURVE SMOOTH"
);
},
{
closed = 1;
nodes = (
"509 480 LINE",
"463 500 OFFCURVE",
"419 510 OFFCURVE",
"349 510 CURVE SMOOTH",
"199 510 OFFCURVE",
"117 440 OFFCURVE",
"84 250 CURVE SMOOTH",
"50 60 OFFCURVE",
"108 -10 OFFCURVE",
"208 -10 CURVE SMOOTH",
"263 -10 OFFCURVE",
"300 10 OFFCURVE",
"325 30 CURVE",
"330 30 LINE",
"340 0 LINE",
"425 0 LINE"
);
}
);
width = 490;
}
);
unicode = 0101;
},
{
glyphname = ampersand;
lastChange = "2016-08-30 19:25:56 +0000";
layers = (
{
hints = (
{
horizontal = 1;
place = "{-10, 65}";
},
{
horizontal = 1;
place = "{645, 65}";
},
{
horizontal = 1;
place = "{0, 21}";
target = up;
type = BottomGhost;
}
);
layerId = UUID0;
paths = (
{
closed = 1;
nodes = (
"505 0 LINE",
"414 170 LINE",
"543 390 LINE",
"453 390 LINE",
"374 255 LINE",
"291 405 OFFCURVE",
"292 466 OFFCURVE",
"303 530 CURVE SMOOTH",
"316 605 OFFCURVE",
"363 645 OFFCURVE",
"423 645 CURVE SMOOTH",
"553 645 LINE",
"561 690 LINE",
"533 700 OFFCURVE",
"475 710 OFFCURVE",
"415 710 CURVE SMOOTH",
"305 710 OFFCURVE",
"234 650 OFFCURVE",
"213 530 CURVE SMOOTH",
"197 440 OFFCURVE",
"214 365 OFFCURVE",
"323 160 CURVE",
"268 75 OFFCURVE",
"244 55 OFFCURVE",
"204 55 CURVE SMOOTH",
"174 55 OFFCURVE",
"138 75 OFFCURVE",
"156 180 CURVE SMOOTH",
"183 330 LINE",
"113 330 LINE",
"97 300 OFFCURVE",
"77 240 OFFCURVE",
"66 180 CURVE SMOOTH",
"43 50 OFFCURVE",
"93 -10 OFFCURVE",
"193 -10 CURVE SMOOTH",
"283 -10 OFFCURVE",
"318 20 OFFCURVE",
"364 80 CURVE",
"405 0 LINE"
);
}
);
width = 515;
},
{
hints = (
{
horizontal = 1;
place = "{-10, 75}";
},
{
horizontal = 1;
place = "{635, 75}";
},
{
horizontal = 1;
place = "{0, 21}";
target = up;
type = BottomGhost;
}
);
layerId = "97C2AB1A-35E1-4EAE-9807-DD7336879977";
paths = (
{
closed = 1;
nodes = (
"344 595 OFFCURVE",
"391 635 OFFCURVE",
"436 635 CURVE SMOOTH",
"576 635 LINE",
"586 690 LINE",
"558 700 OFFCURVE",
"500 710 OFFCURVE",
"430 710 CURVE SMOOTH",
"315 710 OFFCURVE",
"232 640 OFFCURVE",
"213 530 CURVE SMOOTH",
"195 430 OFFCURVE",
"221 350 OFFCURVE",
"323 160 CURVE",
"291 95 OFFCURVE",
"256 65 OFFCURVE",
"226 65 CURVE SMOOTH",
"201 65 OFFCURVE",
"164 85 OFFCURVE",
"181 180 CURVE SMOOTH",
"208 330 LINE",
"113 330 LINE",
"97 300 OFFCURVE",
"77 240 OFFCURVE",
"66 180 CURVE SMOOTH",
"45 60 OFFCURVE",
"103 -10 OFFCURVE",
"208 -10 CURVE SMOOTH",
"282 -10 OFFCURVE",
"326 16 OFFCURVE",
"369 68 CURVE",
"405 0 LINE",
"535 0 LINE",
"444 170 LINE",
"573 390 LINE",
"453 390 LINE",
"388 275 LINE",
"325 400 OFFCURVE",
"321 462 OFFCURVE",
"333 530 CURVE SMOOTH"
);
}
);
width = 545;
}
);
unicode = 0026;
},
{
glyphname = aogonek;
lastChange = "2016-08-30 19:25:56 +0000";
layers = (
{
hints = (
{
horizontal = 1;
place = "{-160, 56}";
},
{
horizontal = 1;
place = "{-10, 60}";
},
{
horizontal = 1;
place = "{450, 60}";
},
{
horizontal = 1;
place = "{0, 21}";
target = up;
type = BottomGhost;
}
);
layerId = UUID0;
paths = (
{
closed = 1;
nodes = (
"484 480 LINE",
"438 500 OFFCURVE",
"389 510 OFFCURVE",
"329 510 CURVE SMOOTH",
"194 510 OFFCURVE",
"124 450 OFFCURVE",
"89 250 CURVE SMOOTH",
"53 50 OFFCURVE",
"103 -10 OFFCURVE",
"208 -10 CURVE SMOOTH",
"248 -10 OFFCURVE",
"290 5 OFFCURVE",
"320 30 CURVE",
"325 30 LINE",
"325 0 LINE",
"335 0 LINE",
"335 0 OFFCURVE",
"303 -35 OFFCURVE",
"295 -80 CURVE SMOOTH",
"287 -130 OFFCURVE",
"311 -160 OFFCURVE",
"366 -160 CURVE SMOOTH",
"411 -160 OFFCURVE",
"444 -145 OFFCURVE",
"444 -145 CURVE",
"451 -104 LINE",
"416 -104 LINE SMOOTH",
"371 -104 OFFCURVE",
"359 -90 OFFCURVE",
"367 -45 CURVE SMOOTH",
"375 0 LINE",
"400 0 LINE"
);
},
{
closed = 1;
nodes = (
"389 450 LINE",
"322 70 LINE",
"305 60 OFFCURVE",
"273 50 OFFCURVE",
"248 50 CURVE SMOOTH",
"183 50 OFFCURVE",
"150 90 OFFCURVE",
"179 250 CURVE SMOOTH",
"207 410 OFFCURVE",
"254 450 OFFCURVE",
"319 450 CURVE SMOOTH"
);
}
);
width = 465;
},
{
hints = (
{
horizontal = 1;
place = "{-160, 60}";
},
{
horizontal = 1;
place = "{-10, 70}";
},
{
horizontal = 1;
place = "{440, 70}";
},
{
horizontal = 1;
place = "{0, 21}";
target = up;
type = BottomGhost;
}
);
layerId = "97C2AB1A-35E1-4EAE-9807-DD7336879977";
paths = (
{
closed = 1;
nodes = (
"509 480 LINE",
"463 500 OFFCURVE",
"419 510 OFFCURVE",
"349 510 CURVE SMOOTH",
"199 510 OFFCURVE",
"117 440 OFFCURVE",
"84 250 CURVE SMOOTH",
"50 60 OFFCURVE",
"108 -10 OFFCURVE",
"208 -10 CURVE SMOOTH",
"263 -10 OFFCURVE",
"300 10 OFFCURVE",
"325 30 CURVE",
"330 30 LINE",
"340 0 LINE",
"351 0 LINE",
"351 0 OFFCURVE",
"319 -30 OFFCURVE",
"310 -80 CURVE SMOOTH",
"302 -125 OFFCURVE",
"331 -160 OFFCURVE",
"386 -160 CURVE SMOOTH",
"431 -160 OFFCURVE",
"465 -145 OFFCURVE",
"465 -145 CURVE",
"473 -100 LINE",
"437 -100 LINE SMOOTH",
"402 -100 OFFCURVE",
"386 -80 OFFCURVE",
"393 -45 CURVE SMOOTH",
"401 0 LINE",
"425 0 LINE"
);
},
{
closed = 1;
nodes = (
"382 440 LINE",
"319 80 LINE",
"307 70 OFFCURVE",
"285 60 OFFCURVE",
"260 60 CURVE SMOOTH",
"210 60 OFFCURVE",
"177 100 OFFCURVE",
"204 250 CURVE SMOOTH",
"230 400 OFFCURVE",
"277 440 OFFCURVE",
"337 440 CURVE SMOOTH"
);
}
);
width = 486;
}
);
unicode = 0105;
},
{
glyphname = aring;
lastChange = "2016-08-30 19:25:56 +0000";
layers = (
{
hints = (
{
horizontal = 1;
place = "{-10, 60}";
},
{
horizontal = 1;
place = "{450, 60}";
},
{
horizontal = 1;
place = "{540, 45}";
},
{
horizontal = 1;
place = "{655, 45}";
},
{
horizontal = 1;
place = "{0, 21}";
target = up;
type = BottomGhost;
}
);
layerId = UUID0;
paths = (
{
closed = 1;
nodes = (
"384 595 OFFCURVE",
"368 585 OFFCURVE",
"348 585 CURVE SMOOTH",
"328 585 OFFCURVE",
"314 595 OFFCURVE",
"319 620 CURVE SMOOTH",
"323 645 OFFCURVE",
"340 655 OFFCURVE",
"360 655 CURVE SMOOTH",
"380 655 OFFCURVE",
"393 645 OFFCURVE",
"389 620 CURVE SMOOTH"
);
},
{
closed = 1;
nodes = (
"448 670 OFFCURVE",
"418 700 OFFCURVE",
"368 700 CURVE SMOOTH",
"318 700 OFFCURVE",
"278 670 OFFCURVE",
"269 620 CURVE SMOOTH",
"260 570 OFFCURVE",
"290 540 OFFCURVE",
"340 540 CURVE SMOOTH",
"390 540 OFFCURVE",
"430 570 OFFCURVE",
"439 620 CURVE SMOOTH"
);
},
{
closed = 1;
nodes = (
"484 480 LINE",
"438 500 OFFCURVE",
"389 510 OFFCURVE",
"329 510 CURVE SMOOTH",
"194 510 OFFCURVE",
"124 450 OFFCURVE",
"89 250 CURVE SMOOTH",
"53 50 OFFCURVE",
"103 -10 OFFCURVE",
"208 -10 CURVE SMOOTH",
"248 -10 OFFCURVE",
"290 5 OFFCURVE",
"320 30 CURVE",
"325 30 LINE",
"325 0 LINE",
"400 0 LINE"
);
},
{
closed = 1;
nodes = (
"389 450 LINE",
"322 70 LINE",
"305 60 OFFCURVE",
"273 50 OFFCURVE",
"248 50 CURVE SMOOTH",
"183 50 OFFCURVE",
"150 90 OFFCURVE",
"179 250 CURVE SMOOTH",
"207 410 OFFCURVE",
"254 450 OFFCURVE",
"319 450 CURVE SMOOTH"
);
}
);
width = 465;
},
{
hints = (
{
horizontal = 1;
place = "{-10, 70}";
},
{
horizontal = 1;
place = "{440, 70}";
},
{
horizontal = 1;
place = "{535, 55}";
},
{
horizontal = 1;
place = "{650, 55}";
},
{
horizontal = 1;
place = "{0, 21}";
target = up;
type = BottomGhost;
}
);
layerId = "97C2AB1A-35E1-4EAE-9807-DD7336879977";
paths = (
{
closed = 1;
nodes = (
"390 600 OFFCURVE",
"374 590 OFFCURVE",
"359 590 CURVE SMOOTH",
"344 590 OFFCURVE",
"330 600 OFFCURVE",
"334 620 CURVE SMOOTH",
"337 640 OFFCURVE",
"354 650 OFFCURVE",
"369 650 CURVE SMOOTH",
"384 650 OFFCURVE",
"397 640 OFFCURVE",
"394 620 CURVE SMOOTH"
);
},
{
closed = 1;
nodes = (
"468 670 OFFCURVE",
"434 705 OFFCURVE",
"379 705 CURVE SMOOTH",
"324 705 OFFCURVE",
"278 670 OFFCURVE",
"269 620 CURVE SMOOTH",
"260 570 OFFCURVE",
"294 535 OFFCURVE",
"349 535 CURVE SMOOTH",
"404 535 OFFCURVE",
"450 570 OFFCURVE",
"459 620 CURVE SMOOTH"
);
},
{
closed = 1;
nodes = (
"382 440 LINE",
"319 80 LINE",
"307 70 OFFCURVE",
"285 60 OFFCURVE",
"260 60 CURVE SMOOTH",
"210 60 OFFCURVE",
"177 100 OFFCURVE",
"204 250 CURVE SMOOTH",
"230 400 OFFCURVE",
"277 440 OFFCURVE",
"337 440 CURVE SMOOTH"
);
},
{
closed = 1;
nodes = (
"509 480 LINE",
"463 500 OFFCURVE",
"419 510 OFFCURVE",
"349 510 CURVE SMOOTH",
"199 510 OFFCURVE",
"117 440 OFFCURVE",
"84 250 CURVE SMOOTH",
"50 60 OFFCURVE",
"108 -10 OFFCURVE",
"208 -10 CURVE SMOOTH",
"263 -10 OFFCURVE",
"300 10 OFFCURVE",
"325 30 CURVE",
"330 30 LINE",
"340 0 LINE",
"425 0 LINE"
);
}
);
width = 490;
}
);
unicode = 00E5;
},
{
glyphname = asciicircum;
lastChange = "2016-08-30 19:25:56 +0000";
layers = (
{
hints = (
{
horizontal = 1;
place = "{410, 21}";
target = up;
type = BottomGhost;
},
{
horizontal = 1;
place = "{700, -20}";
target = down;
type = TopGhost;
}
);
layerId = UUID0;
paths = (
{
closed = 1;
nodes = (
"327 610 LINE",
"332 610 LINE",
"422 410 LINE",
"494 450 LINE",
"388 700 LINE",
"303 700 LINE",
"109 450 LINE",
"167 410 LINE"
);
}
);
width = 445;
},
{
hints = (
{
horizontal = 1;
place = "{395, 21}";
target = up;
type = BottomGhost;
},
{
horizontal = 1;
place = "{700, -20}";
target = down;
type = TopGhost;
}
);
layerId = "97C2AB1A-35E1-4EAE-9807-DD7336879977";
paths = (
{
closed = 1;
nodes = (
"344 595 LINE",
"429 395 LINE",
"524 450 LINE",
"413 700 LINE",
"308 700 LINE",
"109 450 LINE",
"184 395 LINE",
"339 595 LINE"
);
}
);
width = 475;
}
);
unicode = 005E;
},
{
glyphname = asciitilde;
lastChange = "2016-08-30 19:25:56 +0000";
layers = (
{
hints = (
{
horizontal = 1;
place = "{195, 90}";
},
{
horizontal = 1;
place = "{275, 90}";
}
);
layerId = UUID0;
paths = (
{
closed = 1;
nodes = (
"455 200 LINE",
"473 305 OFFCURVE",
"454 365 OFFCURVE",
"364 365 CURVE SMOOTH",
"274 365 OFFCURVE",
"245 285 OFFCURVE",
"200 285 CURVE SMOOTH",
"165 285 OFFCURVE",
"155 315 OFFCURVE",
"163 360 CURVE",
"93 360 LINE",
"74 255 OFFCURVE",
"94 195 OFFCURVE",
"184 195 CURVE SMOOTH",
"274 195 OFFCURVE",
"303 275 OFFCURVE",
"348 275 CURVE SMOOTH",
"383 275 OFFCURVE",
"393 245 OFFCURVE",
"385 200 CURVE"
);
}
);
width = 450;
},
{
hints = (
{
horizontal = 1;
place = "{185, 110}";
},
{
horizontal = 1;
place = "{265, 30}";
},
{
horizontal = 1;
place = "{265, 110}";
}
);
layerId = "97C2AB1A-35E1-4EAE-9807-DD7336879977";
paths = (
{
closed = 1;
nodes = (
"463 190 LINE",
"483 305 OFFCURVE",
"466 375 OFFCURVE",
"371 375 CURVE SMOOTH",
"281 375 OFFCURVE",
"252 295 OFFCURVE",
"207 295 CURVE SMOOTH",
"177 295 OFFCURVE",
"167 325 OFFCURVE",
"175 370 CURVE",
"95 370 LINE",
"74 255 OFFCURVE",
"92 185 OFFCURVE",
"187 185 CURVE SMOOTH",
"277 185 OFFCURVE",
"306 265 OFFCURVE",
"351 265 CURVE SMOOTH",
"381 265 OFFCURVE",
"391 235 OFFCURVE",
"383 190 CURVE"
);
}
);
width = 460;
}
);
unicode = 007E;
},
{
glyphname = asterisk;
lastChange = "2016-08-30 19:25:56 +0000";
layers = (
{
hints = (
{
horizontal = 1;
place = "{325, 21}";
target = up;
type = BottomGhost;
},
{
horizontal = 1;
place = "{700, -20}";
target = down;
type = TopGhost;
}
);
layerId = UUID0;
paths = (
{
closed = 1;
nodes = (
"342 325 LINE",
"413 360 LINE",
"366 490 LINE",
"500 515 LINE",
"497 585 LINE",
"352 555 LINE",
"378 700 LINE",
"298 700 LINE",
"272 555 LINE",
"139 585 LINE",
"110 515 LINE",
"236 490 LINE",
"143 360 LINE",
"202 325 LINE",
"295 455 LINE"
);
}
);
width = 430;
},
{
hints = (
{
horizontal = 1;
place = "{700, -20}";
target = down;
type = TopGhost;
},
{
horizontal = 1;
place = "{310, 21}";
target = up;
type = BottomGhost;
}
);
layerId = "97C2AB1A-35E1-4EAE-9807-DD7336879977";
paths = (
{
closed = 1;
nodes = (
"298 700 LINE",
"274 563 LINE",
"146 592 LINE",
"108 500 LINE",
"222 474 LINE",
"139 357 LINE",
"217 310 LINE",
"300 428 LINE",
"341 310 LINE",
"435 357 LINE",
"394 474 LINE",
"518 500 LINE",
"512 592 LINE",
"374 563 LINE",
"398 700 LINE"
);
}
);
width = 450;
}
);
unicode = 002A;
},
{
glyphname = at;
lastChange = "2016-08-30 19:25:56 +0000";
layers = (
{
hints = (
{
horizontal = 1;
place = "{-90, 65}";
},
{
horizontal = 1;
place = "{80, 60}";
},
{
horizontal = 1;
place = "{480, 60}";
},
{
horizontal = 1;
place = "{650, 60}";
},
{
horizontal = 1;
place = "{80, 75}";
}
);
layerId = UUID0;
paths = (
{
closed = 1;
nodes = (
"574 480 LINE",
"518 160 LINE",
"501 150 OFFCURVE",
"469 140 OFFCURVE",
"444 140 CURVE SMOOTH",
"394 140 OFFCURVE",
"361 180 OFFCURVE",
"381 290 CURVE SMOOTH",
"407 440 OFFCURVE",
"454 480 OFFCURVE",
"534 480 CURVE SMOOTH"
);
},
{
closed = 1;
nodes = (
"671 520 LINE",
"643 530 OFFCURVE",
"585 540 OFFCURVE",
"545 540 CURVE SMOOTH",
"395 540 OFFCURVE",
"324 480 OFFCURVE",
"291 290 CURVE SMOOTH",
"264 140 OFFCURVE",
"324 80 OFFCURVE",
"404 80 CURVE SMOOTH",
"444 80 OFFCURVE",
"486 95 OFFCURVE",
"516 120 CURVE",
"521 120 LINE",
"520 90 LINE",
"730 90 OFFCURVE",
"808 160 OFFCURVE",
"844 365 CURVE SMOOTH",
"882 580 OFFCURVE",
"775 710 OFFCURVE",
"535 710 CURVE SMOOTH",
"305 710 OFFCURVE",
"152 580 OFFCURVE",
"104 310 CURVE SMOOTH",
"57 40 OFFCURVE",
"164 -90 OFFCURVE",
"414 -90 CURVE SMOOTH",
"474 -90 OFFCURVE",
"535 -80 OFFCURVE",
"567 -70 CURVE",
"575 -25 LINE",
"445 -25 LINE SMOOTH",
"235 -25 OFFCURVE",
"151 65 OFFCURVE",
"194 310 CURVE SMOOTH",
"238 560 OFFCURVE",
"354 650 OFFCURVE",
"524 650 CURVE SMOOTH",
"704 650 OFFCURVE",
"786 550 OFFCURVE",
"754 365 CURVE SMOOTH",
"724 195 OFFCURVE",
"677 155 OFFCURVE",
"607 155 CURVE"
);
}
);
width = 830;
},
{
hints = (
{
horizontal = 1;
place = "{-90, 75}";
},
{
horizontal = 1;
place = "{80, 70}";
},
{
horizontal = 1;
place = "{470, 70}";
},
{
horizontal = 1;
place = "{640, 70}";
}
);
layerId = "97C2AB1A-35E1-4EAE-9807-DD7336879977";
paths = (
{
closed = 1;
nodes = (
"567 470 LINE",
"514 170 LINE",
"503 160 OFFCURVE",
"481 150 OFFCURVE",
"456 150 CURVE SMOOTH",
"421 150 OFFCURVE",
"388 190 OFFCURVE",
"407 300 CURVE SMOOTH",
"430 430 OFFCURVE",
"477 470 OFFCURVE",
"542 470 CURVE SMOOTH"
);
},
{
closed = 1;
nodes = (
"696 520 LINE",
"668 530 OFFCURVE",
"610 540 OFFCURVE",
"555 540 CURVE SMOOTH",
"400 540 OFFCURVE",
"317 470 OFFCURVE",
"287 300 CURVE SMOOTH",
"261 150 OFFCURVE",
"329 80 OFFCURVE",
"414 80 CURVE SMOOTH",
"459 80 OFFCURVE",
"491 95 OFFCURVE",
"521 120 CURVE",
"526 120 LINE",
"535 90 LINE",
"740 90 OFFCURVE",
"834 170 OFFCURVE",
"869 365 CURVE SMOOTH",
"905 570 OFFCURVE",
"790 710 OFFCURVE",
"545 710 CURVE SMOOTH",
"310 710 OFFCURVE",
"145 570 OFFCURVE",
"99 310 CURVE SMOOTH",
"53 50 OFFCURVE",
"169 -90 OFFCURVE",
"424 -90 CURVE SMOOTH",
"494 -90 OFFCURVE",
"555 -80 OFFCURVE",
"587 -70 CURVE",
"597 -15 LINE",
"457 -15 LINE SMOOTH",
"252 -15 OFFCURVE",
"169 85 OFFCURVE",
"209 310 CURVE SMOOTH",
"250 540 OFFCURVE",
"367 640 OFFCURVE",
"532 640 CURVE SMOOTH",
"707 640 OFFCURVE",
"790 540 OFFCURVE",
"759 365 CURVE SMOOTH",
"730 200 OFFCURVE",
"677 155 OFFCURVE",
"632 155 CURVE"
);
}
);
width = 850;
}
);
unicode = 0040;
},
{
glyphname = atilde;
lastChange = "2016-08-30 19:25:56 +0000";
layers = (
{
hints = (
{
horizontal = 1;
place = "{-10, 60}";
},
{
horizontal = 1;
place = "{450, 60}";
},
{
horizontal = 1;
place = "{565, 60}";
},
{
horizontal = 1;
place = "{625, 60}";
},
{
horizontal = 1;
place = "{0, 21}";
target = up;
type = BottomGhost;
}
);
layerId = UUID0;
paths = (
{
closed = 1;
nodes = (
"466 580 LINE",
"479 655 OFFCURVE",
"459 685 OFFCURVE",
"409 685 CURVE SMOOTH",
"359 685 OFFCURVE",
"334 625 OFFCURVE",
"309 625 CURVE SMOOTH",
"294 625 OFFCURVE",
"286 640 OFFCURVE",
"292 670 CURVE",
"242 670 LINE",
"228 595 OFFCURVE",
"248 565 OFFCURVE",
"298 565 CURVE SMOOTH",
"348 565 OFFCURVE",
"374 625 OFFCURVE",
"399 625 CURVE SMOOTH",
"414 625 OFFCURVE",
"421 610 OFFCURVE",
"416 580 CURVE"
);
},
{
closed = 1;
nodes = (
"483 480 LINE",
"437 500 OFFCURVE",
"388 510 OFFCURVE",
"328 510 CURVE SMOOTH",
"193 510 OFFCURVE",
"123 450 OFFCURVE",
"88 250 CURVE SMOOTH",
"52 50 OFFCURVE",
"102 -10 OFFCURVE",
"207 -10 CURVE SMOOTH",
"247 -10 OFFCURVE",
"289 5 OFFCURVE",
"319 30 CURVE",
"324 30 LINE",
"324 0 LINE",
"399 0 LINE"
);
},
{
closed = 1;
nodes = (
"388 450 LINE",
"321 70 LINE",
"304 60 OFFCURVE",
"272 50 OFFCURVE",
"247 50 CURVE SMOOTH",
"182 50 OFFCURVE",
"149 90 OFFCURVE",
"178 250 CURVE SMOOTH",
"206 410 OFFCURVE",
"253 450 OFFCURVE",
"318 450 CURVE SMOOTH"
);
}
);
width = 464;
},
{
hints = (
{
horizontal = 1;
place = "{-10, 70}";
},
{
horizontal = 1;
place = "{440, 70}";
},
{
horizontal = 1;
place = "{560, 80}";
},
{
horizontal = 1;
place = "{610, 30}";
},
{
horizontal = 1;
place = "{610, 80}";
},
{
horizontal = 1;
place = "{0, 21}";
target = up;
type = BottomGhost;
}
);
layerId = "97C2AB1A-35E1-4EAE-9807-DD7336879977";
paths = (
{
closed = 1;
nodes = (
"480 570 LINE",
"496 660 OFFCURVE",
"471 690 OFFCURVE",
"426 690 CURVE SMOOTH",
"381 690 OFFCURVE",
"352 640 OFFCURVE",
"327 640 CURVE SMOOTH",
"312 640 OFFCURVE",
"305 655 OFFCURVE",
"309 680 CURVE",
"249 680 LINE",
"234 590 OFFCURVE",
"258 560 OFFCURVE",
"303 560 CURVE SMOOTH",
"348 560 OFFCURVE",
"377 610 OFFCURVE",
"402 610 CURVE SMOOTH",
"417 610 OFFCURVE",
"424 595 OFFCURVE",
"420 570 CURVE"
);
},
{
closed = 1;
nodes = (
"382 440 LINE",
"319 80 LINE",
"307 70 OFFCURVE",
"285 60 OFFCURVE",
"260 60 CURVE SMOOTH",
"210 60 OFFCURVE",
"177 100 OFFCURVE",
"204 250 CURVE SMOOTH",
"230 400 OFFCURVE",
"277 440 OFFCURVE",
"337 440 CURVE SMOOTH"
);
},
{
closed = 1;
nodes = (
"509 480 LINE",
"463 500 OFFCURVE",
"419 510 OFFCURVE",
"349 510 CURVE SMOOTH",
"199 510 OFFCURVE",
"117 440 OFFCURVE",
"84 250 CURVE SMOOTH",
"50 60 OFFCURVE",
"108 -10 OFFCURVE",
"208 -10 CURVE SMOOTH",
"263 -10 OFFCURVE",
"300 10 OFFCURVE",
"325 30 CURVE",
"330 30 LINE",
"340 0 LINE",
"425 0 LINE"
);
}
);
width = 490;
}
);
unicode = 00E3;
},
{
glyphname = b;
lastChange = "2016-08-30 19:25:56 +0000";
layers = (
{
hints = (
{
horizontal = 1;
place = "{-10, 60}";
},
{
horizontal = 1;
place = "{450, 60}";
},
{
horizontal = 1;
place = "{450, 250}";
}
);
layerId = UUID0;
paths = (
{
closed = 1;
nodes = (
"283 700 LINE",
"193 700 LINE",
"73 20 LINE",
"120 0 OFFCURVE",
"168 -10 OFFCURVE",
"228 -10 CURVE SMOOTH",
"363 -10 OFFCURVE",
"433 50 OFFCURVE",
"469 250 CURVE SMOOTH",
"504 450 OFFCURVE",
"454 510 OFFCURVE",
"349 510 CURVE SMOOTH",
"309 510 OFFCURVE",
"278 500 OFFCURVE",
"245 485 CURVE"
);
},
{
closed = 1;
nodes = (
"235 430 LINE",
"252 440 OFFCURVE",
"284 450 OFFCURVE",
"309 450 CURVE SMOOTH",
"374 450 OFFCURVE",
"407 410 OFFCURVE",
"379 250 CURVE SMOOTH",
"350 90 OFFCURVE",
"303 50 OFFCURVE",
"238 50 CURVE SMOOTH",
"168 50 LINE"
);
}
);
width = 470;
},
{
hints = (
{
horizontal = 1;
place = "{-10, 70}";
},
{
horizontal = 1;
place = "{440, 70}";
},
{
horizontal = 1;
place = "{700, -20}";
target = down;
type = TopGhost;
}
);
layerId = "97C2AB1A-35E1-4EAE-9807-DD7336879977";
paths = (
{
closed = 1;
nodes = (
"313 700 LINE",
"193 700 LINE",
"73 20 LINE",
"120 0 OFFCURVE",
"163 -10 OFFCURVE",
"233 -10 CURVE SMOOTH",
"383 -10 OFFCURVE",
"465 60 OFFCURVE",
"499 250 CURVE SMOOTH",
"532 440 OFFCURVE",
"474 510 OFFCURVE",
"364 510 CURVE SMOOTH",
"329 510 OFFCURVE",
"299 500 OFFCURVE",
"275 485 CURVE"
);
},
{
closed = 1;
nodes = (
"264 420 LINE",
"275 430 OFFCURVE",
"297 440 OFFCURVE",
"322 440 CURVE SMOOTH",
"372 440 OFFCURVE",
"405 400 OFFCURVE",
"379 250 CURVE SMOOTH",
"352 100 OFFCURVE",
"305 60 OFFCURVE",
"245 60 CURVE SMOOTH",
"200 60 LINE"
);
}
);
width = 495;
}
);
unicode = 0062;
},
{
glyphname = backslash;
lastChange = "2016-08-30 19:25:56 +0000";
layers = (
{
hints = (
{
horizontal = 1;
place = "{700, -20}";
target = down;
type = TopGhost;
},
{
horizontal = 1;
place = "{0, 21}";
target = up;
type = BottomGhost;
}
);
layerId = UUID0;
paths = (
{
closed = 1;
nodes = (
"123 700 LINE",
"300 0 LINE",
"390 0 LINE",
"213 700 LINE"
);
}
);
width = 390;
},
{
hints = (
{
horizontal = 1;
place = "{700, -20}";
target = down;
type = TopGhost;
},
{
horizontal = 1;
place = "{0, 21}";
target = up;
type = BottomGhost;
}
);
layerId = "97C2AB1A-35E1-4EAE-9807-DD7336879977";
paths = (
{
closed = 1;
nodes = (
"123 700 LINE",
"300 0 LINE",
"420 0 LINE",
"243 700 LINE"
);
}
);
width = 420;
}
);
unicode = 005C;
},
{
glyphname = bar;
lastChange = "2016-08-30 19:25:56 +0000";
layers = (
{
hints = (
{
horizontal = 1;
place = "{700, -20}";
target = down;
type = TopGhost;
},
{
horizontal = 1;
place = "{-200, 21}";
target = up;
type = BottomGhost;
}
);
layerId = UUID0;
paths = (
{
closed = 1;
nodes = (
"193 700 LINE",
"34 -200 LINE",
"124 -200 LINE",
"283 700 LINE"
);
}
);
width = 230;
},
{
hints = (
{
horizontal = 1;
place = "{700, -20}";
target = down;
type = TopGhost;
},
{
horizontal = 1;
place = "{-200, 21}";
target = up;
type = BottomGhost;
}
);
layerId = "97C2AB1A-35E1-4EAE-9807-DD7336879977";
paths = (
{
closed = 1;
nodes = (
"193 700 LINE",
"34 -200 LINE",
"154 -200 LINE",
"313 700 LINE"
);
}
);
width = 260;
}
);
unicode = 007C;
},
{
glyphname = braceleft;
lastChange = "2016-08-30 19:25:56 +0000";
layers = (
{
hints = (
{
horizontal = 1;
place = "{-180, 60}";
},
{
horizontal = 1;
place = "{680, 60}";
}
);
layerId = UUID0;
paths = (
{
closed = 1;
nodes = (
"290 570 LINE",
"306 660 OFFCURVE",
"349 680 OFFCURVE",
"409 680 CURVE",
"420 740 LINE",
"290 740 OFFCURVE",
"225 710 OFFCURVE",
"200 570 CURVE SMOOTH",
"177 440 LINE SMOOTH",
"162 355 OFFCURVE",
"127 325 OFFCURVE",
"74 310 CURVE",
"64 250 LINE",
"111 235 OFFCURVE",
"136 205 OFFCURVE",
"121 120 CURVE SMOOTH",
"98 -10 LINE SMOOTH",
"73 -150 OFFCURVE",
"128 -180 OFFCURVE",
"258 -180 CURVE",
"268 -120 LINE",
"208 -120 OFFCURVE",
"172 -100 OFFCURVE",
"188 -10 CURVE SMOOTH",
"207 100 LINE SMOOTH",
"227 210 OFFCURVE",
"202 240 OFFCURVE",
"159 278 CURVE",
"159 282 LINE",
"216 320 OFFCURVE",
"251 350 OFFCURVE",
"271 460 CURVE SMOOTH"
);
}
);
width = 290;
},
{
hints = (
{
horizontal = 1;
place = "{740, -20}";
target = down;
type = TopGhost;
},
{
horizontal = 1;
place = "{-180, 21}";
target = up;
type = BottomGhost;
}
);
layerId = "97C2AB1A-35E1-4EAE-9807-DD7336879977";
paths = (
{
closed = 1;
nodes = (
"315 570 LINE",
"329 650 OFFCURVE",
"373 670 OFFCURVE",
"418 670 CURVE",
"430 740 LINE",
"295 740 OFFCURVE",
"220 710 OFFCURVE",
"195 570 CURVE SMOOTH",
"172 440 LINE SMOOTH",
"158 360 OFFCURVE",
"123 330 OFFCURVE",
"75 315 CURVE",
"63 245 LINE",
"105 230 OFFCURVE",
"130 200 OFFCURVE",
"116 120 CURVE SMOOTH",
"93 -10 LINE SMOOTH",
"68 -150 OFFCURVE",
"133 -180 OFFCURVE",
"268 -180 CURVE",
"280 -110 LINE",
"235 -110 OFFCURVE",
"197 -99 OFFCURVE",
"213 -10 CURVE SMOOTH",
"232 100 LINE SMOOTH",
"252 210 OFFCURVE",
"218 245 OFFCURVE",
"174 278 CURVE",
"174 282 LINE",
"230 315 OFFCURVE",
"276 350 OFFCURVE",
"296 460 CURVE SMOOTH"
);
}
);
width = 300;
}
);
unicode = 007B;
},
{
glyphname = braceright;
lastChange = "2016-08-30 19:25:56 +0000";
layers = (
{
hints = (
{
horizontal = 1;
place = "{-180, 60}";
},
{
horizontal = 1;
place = "{680, 60}";
}
);
layerId = UUID0;
paths = (
{
closed = 1;
nodes = (
"181 460 LINE",
"161 350 OFFCURVE",
"186 320 OFFCURVE",
"229 282 CURVE",
"229 278 LINE",
"172 240 OFFCURVE",
"137 210 OFFCURVE",
"117 100 CURVE SMOOTH",
"98 -10 LINE SMOOTH",
"82 -100 OFFCURVE",
"38 -120 OFFCURVE",
"-21 -120 CURVE",
"-31 -180 LINE",
"98 -180 OFFCURVE",
"163 -150 OFFCURVE",
"188 -10 CURVE SMOOTH",
"211 120 LINE SMOOTH",
"226 205 OFFCURVE",
"261 235 OFFCURVE",
"314 250 CURVE",
"324 310 LINE",
"277 325 OFFCURVE",
"252 355 OFFCURVE",
"267 440 CURVE SMOOTH",
"290 570 LINE SMOOTH",
"315 710 OFFCURVE",
"260 740 OFFCURVE",
"130 740 CURVE",
"119 680 LINE",
"179 680 OFFCURVE",
"216 660 OFFCURVE",
"200 570 CURVE SMOOTH"
);
}
);
width = 290;
},
{
hints = (
{
horizontal = 1;
place = "{-180, 21}";
target = up;
type = BottomGhost;
},
{
horizontal = 1;
place = "{740, -20}";
target = down;
type = TopGhost;
}
);
layerId = "97C2AB1A-35E1-4EAE-9807-DD7336879977";
paths = (
{
closed = 1;
nodes = (
"166 460 LINE SMOOTH",
"146 350 OFFCURVE",
"180 315 OFFCURVE",
"224 282 CURVE",
"224 278 LINE",
"168 245 OFFCURVE",
"122 210 OFFCURVE",
"102 100 CURVE SMOOTH",
"83 -10 LINE SMOOTH",
"67 -99 OFFCURVE",
"25 -110 OFFCURVE",
"-19 -110 CURVE",
"-31 -180 LINE",
"103 -180 OFFCURVE",
"178 -150 OFFCURVE",
"203 -10 CURVE SMOOTH",
"226 120 LINE SMOOTH",
"240 200 OFFCURVE",
"275 230 OFFCURVE",
"323 245 CURVE",
"335 315 LINE",
"293 330 OFFCURVE",
"268 360 OFFCURVE",
"282 440 CURVE SMOOTH",
"305 570 LINE SMOOTH",
"330 710 OFFCURVE",
"265 740 OFFCURVE",
"130 740 CURVE",
"118 670 LINE",
"163 670 OFFCURVE",
"199 650 OFFCURVE",
"185 570 CURVE"
);
}
);
width = 300;
}
);
unicode = 007D;
},
{
glyphname = bracketleft;
lastChange = "2016-08-30 19:25:56 +0000";
layers = (
{
hints = (
{
horizontal = 1;
place = "{-180, 60}";
},
{
horizontal = 1;
place = "{680, 60}";
}
);
layerId = UUID0;
paths = (
{
closed = 1;
nodes = (
"390 740 LINE",
"200 740 LINE",
"38 -180 LINE",
"228 -180 LINE",
"238 -120 LINE",
"138 -120 LINE",
"279 680 LINE",
"379 680 LINE"
);
}
);
width = 260;
},
{
hints = (
{
horizontal = 1;
place = "{-180, 70}";
},
{
horizontal = 1;
place = "{670, 70}";
}
);
layerId = "97C2AB1A-35E1-4EAE-9807-DD7336879977";
paths = (
{
closed = 1;
nodes = (
"415 740 LINE",
"200 740 LINE",
"38 -180 LINE",
"253 -180 LINE",
"265 -110 LINE",
"170 -110 LINE",
"308 670 LINE",
"403 670 LINE"
);
}
);
width = 285;
}
);
unicode = 005B;
},
{
glyphname = bracketright;
lastChange = "2016-08-30 19:25:56 +0000";
layers = (
{
hints = (
{
horizontal = 1;
place = "{-180, 60}";
},
{
horizontal = 1;
place = "{680, 60}";
}
);
layerId = UUID0;
paths = (
{
closed = 1;
nodes = (
"119 680 LINE",
"219 680 LINE",
"78 -120 LINE",
"-21 -120 LINE",
"-31 -180 LINE",
"158 -180 LINE",
"320 740 LINE",
"130 740 LINE"
);
}
);
width = 260;
},
{
hints = (
{
horizontal = 1;
place = "{-180, 70}";
},
{
horizontal = 1;
place = "{670, 70}";
}
);
layerId = "97C2AB1A-35E1-4EAE-9807-DD7336879977";
paths = (
{
closed = 1;
nodes = (
"118 670 LINE",
"213 670 LINE",
"75 -110 LINE",
"-19 -110 LINE",
"-31 -180 LINE",
"183 -180 LINE",
"345 740 LINE",
"130 740 LINE"
);
}
);
width = 285;
}
);
unicode = 005D;
},
{
glyphname = brokenbar;
lastChange = "2016-08-30 19:25:56 +0000";
layers = (
{
hints = (
{
horizontal = 1;
place = "{-200, 21}";
target = up;
type = BottomGhost;
},
{
horizontal = 1;
place = "{680, -20}";
target = down;
type = TopGhost;
}
);
layerId = UUID0;
paths = (
{
closed = 1;
nodes = (
"98 160 LINE",
"34 -200 LINE",
"124 -200 LINE",
"188 160 LINE"
);
},
{
closed = 1;
nodes = (
"189 680 LINE",
"126 320 LINE",
"216 320 LINE",
"279 680 LINE"
);
}
);
width = 230;
},
{
hints = (
{
horizontal = 1;
place = "{-200, 21}";
target = up;
type = BottomGhost;
},
{
horizontal = 1;
place = "{680, -20}";
target = down;
type = TopGhost;
}
);
layerId = "97C2AB1A-35E1-4EAE-9807-DD7336879977";
paths = (
{
closed = 1;
nodes = (
"99 170 LINE",
"34 -200 LINE",
"154 -200 LINE",
"219 170 LINE"
);
},
{
closed = 1;
nodes = (
"189 680 LINE",
"124 310 LINE",
"244 310 LINE",
"309 680 LINE"
);
}
);
width = 260;
}
);
unicode = 00A6;
},
{
glyphname = bullet;
lastChange = "2016-08-30 19:25:56 +0000";
layers = (
{
hints = (
{
horizontal = 1;
place = "{270, 159}";
}
);
layerId = UUID0;
paths = (
{
closed = 1;
nodes = (
"280 429 LINE",
"120 429 LINE",
"92 270 LINE",
"252 270 LINE"
);
}
);
width = 250;
},
{
hints = (
{
horizontal = 1;
place = "{260, 179}";
}
);
layerId = "97C2AB1A-35E1-4EAE-9807-DD7336879977";
paths = (
{
closed = 1;
nodes = (
"302 439 LINE",
"122 439 LINE",
"90 260 LINE",
"270 260 LINE"
);
}
);
width = 270;
}
);
unicode = 2022;
},
{
glyphname = c;
lastChange = "2016-08-30 19:25:56 +0000";
layers = (
{
hints = (
{
horizontal = 1;
place = "{-10, 60}";
},
{
horizontal = 1;
place = "{450, 60}";
}
);
layerId = UUID0;
paths = (
{
closed = 1;
nodes = (
"429 450 LINE",
"436 490 LINE",
"408 500 OFFCURVE",
"359 510 OFFCURVE",
"319 510 CURVE SMOOTH",
"194 510 OFFCURVE",
"124 450 OFFCURVE",
"89 250 CURVE SMOOTH",
"53 50 OFFCURVE",
"103 -10 OFFCURVE",
"238 -10 CURVE SMOOTH",
"278 -10 OFFCURVE",
"330 0 OFFCURVE",
"361 10 CURVE",
"368 50 LINE",
"268 50 LINE SMOOTH",
"183 50 OFFCURVE",
"150 90 OFFCURVE",
"179 250 CURVE SMOOTH",
"207 410 OFFCURVE",
"254 450 OFFCURVE",
"329 450 CURVE SMOOTH"
);
}
);
width = 375;
},
{
hints = (
{
horizontal = 1;
place = "{-10, 70}";
},
{
horizontal = 1;
place = "{440, 70}";
}
);
layerId = "97C2AB1A-35E1-4EAE-9807-DD7336879977";
paths = (
{
closed = 1;
nodes = (
"447 440 LINE",
"456 490 LINE",
"428 500 OFFCURVE",
"379 510 OFFCURVE",
"329 510 CURVE SMOOTH",
"199 510 OFFCURVE",
"117 440 OFFCURVE",
"84 250 CURVE SMOOTH",
"50 60 OFFCURVE",
"108 -10 OFFCURVE",
"248 -10 CURVE SMOOTH",
"298 -10 OFFCURVE",
"350 0 OFFCURVE",
"381 10 CURVE",
"390 60 LINE",
"280 60 LINE SMOOTH",
"210 60 OFFCURVE",
"177 100 OFFCURVE",
"204 250 CURVE SMOOTH",
"230 400 OFFCURVE",
"277 440 OFFCURVE",
"337 440 CURVE SMOOTH"
);
}
);
width = 395;
}
);
unicode = 0063;
},
{
glyphname = cacute;
lastChange = "2016-08-30 19:25:56 +0000";
layers = (
{
hints = (
{
horizontal = 1;
place = "{-10, 60}";
},
{
horizontal = 1;
place = "{450, 60}";
},
{
horizontal = 1;
place = "{560, 130}";
}
);
layerId = UUID0;
paths = (
{
closed = 1;
nodes = (
"429 450 LINE",
"436 490 LINE",
"408 500 OFFCURVE",
"359 510 OFFCURVE",
"319 510 CURVE SMOOTH",
"194 510 OFFCURVE",
"124 450 OFFCURVE",
"89 250 CURVE SMOOTH",
"53 50 OFFCURVE",
"103 -10 OFFCURVE",
"238 -10 CURVE SMOOTH",
"278 -10 OFFCURVE",
"330 0 OFFCURVE",
"361 10 CURVE",
"368 50 LINE",
"268 50 LINE SMOOTH",
"183 50 OFFCURVE",
"150 90 OFFCURVE",
"179 250 CURVE SMOOTH",
"207 410 OFFCURVE",
"254 450 OFFCURVE",
"329 450 CURVE SMOOTH"
);
},
{
closed = 1;
nodes = (
"348 560 LINE",
"441 690 LINE",
"346 690 LINE",
"288 560 LINE"
);
}
);
width = 375;
},
{
hints = (
{
horizontal = 1;
place = "{-10, 70}";
},
{
horizontal = 1;
place = "{440, 70}";
},
{
horizontal = 1;
place = "{560, 130}";
}
);
layerId = "97C2AB1A-35E1-4EAE-9807-DD7336879977";
paths = (
{
closed = 1;
nodes = (
"447 440 LINE",
"456 490 LINE",
"428 500 OFFCURVE",
"379 510 OFFCURVE",
"329 510 CURVE SMOOTH",
"199 510 OFFCURVE",
"117 440 OFFCURVE",
"84 250 CURVE SMOOTH",
"50 60 OFFCURVE",
"108 -10 OFFCURVE",
"248 -10 CURVE SMOOTH",
"298 -10 OFFCURVE",
"350 0 OFFCURVE",
"381 10 CURVE",
"390 60 LINE",
"280 60 LINE SMOOTH",
"210 60 OFFCURVE",
"177 100 OFFCURVE",
"204 250 CURVE SMOOTH",
"230 400 OFFCURVE",
"277 440 OFFCURVE",
"337 440 CURVE SMOOTH"
);
},
{
closed = 1;
nodes = (
"363 560 LINE",
"461 690 LINE",
"346 690 LINE",
"288 560 LINE"
);
}
);
width = 395;
}
);
unicode = 0107;
},
{
glyphname = caron;
lastChange = "2016-08-30 19:25:56 +0000";
layers = (
{
hints = (
{
horizontal = 1;
place = "{560, 130}";
}
);
layerId = UUID0;
paths = (
{
closed = 1;
nodes = (
"141 690 LINE",
"193 560 LINE",
"288 560 LINE",
"386 690 LINE",
"326 690 LINE",
"250 616 LINE",
"201 690 LINE"
);
}
);
width = 285;
},
{
hints = (
{
horizontal = 1;
place = "{560, 130}";
}
);
layerId = "97C2AB1A-35E1-4EAE-9807-DD7336879977";
paths = (
{
closed = 1;
nodes = (
"141 690 LINE",
"198 560 LINE",
"303 560 LINE",
"406 690 LINE",
"329 690 LINE",
"261 620 LINE",
"217 690 LINE"
);
}
);
width = 305;
}
);
unicode = 02C7;
},
{
glyphname = ccaron;
lastChange = "2016-08-30 19:25:56 +0000";
layers = (
{
hints = (
{
horizontal = 1;
place = "{-10, 60}";
},
{
horizontal = 1;
place = "{450, 60}";
},
{
horizontal = 1;
place = "{560, 130}";
}
);
layerId = UUID0;
paths = (
{
closed = 1;
nodes = (
"429 450 LINE",
"436 490 LINE",
"408 500 OFFCURVE",
"359 510 OFFCURVE",
"319 510 CURVE SMOOTH",
"194 510 OFFCURVE",
"124 450 OFFCURVE",
"89 250 CURVE SMOOTH",
"53 50 OFFCURVE",
"103 -10 OFFCURVE",
"238 -10 CURVE SMOOTH",
"278 -10 OFFCURVE",
"330 0 OFFCURVE",
"361 10 CURVE",
"368 50 LINE",
"268 50 LINE SMOOTH",
"183 50 OFFCURVE",
"150 90 OFFCURVE",
"179 250 CURVE SMOOTH",
"207 410 OFFCURVE",
"254 450 OFFCURVE",
"329 450 CURVE SMOOTH"
);
},
{
closed = 1;
nodes = (
"216 690 LINE",
"268 560 LINE",
"363 560 LINE",
"461 690 LINE",
"401 690 LINE",
"325 616 LINE",
"276 690 LINE"
);
}
);
width = 375;
},
{
hints = (
{
horizontal = 1;
place = "{-10, 70}";
},
{
horizontal = 1;
place = "{440, 70}";
},
{
horizontal = 1;
place = "{560, 130}";
}
);
layerId = "97C2AB1A-35E1-4EAE-9807-DD7336879977";
paths = (
{
closed = 1;
nodes = (
"447 440 LINE",
"456 490 LINE",
"428 500 OFFCURVE",
"379 510 OFFCURVE",
"329 510 CURVE SMOOTH",
"199 510 OFFCURVE",
"117 440 OFFCURVE",
"84 250 CURVE SMOOTH",
"50 60 OFFCURVE",
"108 -10 OFFCURVE",
"248 -10 CURVE SMOOTH",
"298 -10 OFFCURVE",
"350 0 OFFCURVE",
"381 10 CURVE",
"390 60 LINE",
"280 60 LINE SMOOTH",
"210 60 OFFCURVE",
"177 100 OFFCURVE",
"204 250 CURVE SMOOTH",
"230 400 OFFCURVE",
"277 440 OFFCURVE",
"337 440 CURVE SMOOTH"
);
},
{
closed = 1;
nodes = (
"211 690 LINE",
"268 560 LINE",
"373 560 LINE",
"476 690 LINE",
"399 690 LINE",
"331 620 LINE",
"287 690 LINE"
);
}
);
width = 395;
}
);
unicode = 010D;
},
{
glyphname = ccedilla;
lastChange = "2016-08-30 19:25:56 +0000";
layers = (
{
hints = (
{
horizontal = 1;
place = "{-165, 45}";
},
{
horizontal = 1;
place = "{-70, 45}";
},
{
horizontal = 1;
place = "{-10, 60}";
},
{
horizontal = 1;
place = "{450, 60}";
}
);
layerId = UUID0;
paths = (
{
closed = 1;
nodes = (
"225 -25 LINE",
"228 -10 LINE",
"238 -10 LINE SMOOTH",
"278 -10 OFFCURVE",
"330 0 OFFCURVE",
"361 10 CURVE",
"368 50 LINE",
"268 50 LINE SMOOTH",
"183 50 OFFCURVE",
"150 90 OFFCURVE",
"179 250 CURVE SMOOTH",
"207 410 OFFCURVE",
"254 450 OFFCURVE",
"329 450 CURVE SMOOTH",
"429 450 LINE",
"436 490 LINE",
"408 500 OFFCURVE",
"359 510 OFFCURVE",
"319 510 CURVE SMOOTH",
"194 510 OFFCURVE",
"124 450 OFFCURVE",
"89 250 CURVE SMOOTH",
"59 82 OFFCURVE",
"89 13 OFFCURVE",
"179 -4 CURVE",
"167 -70 LINE",
"222 -70 LINE SMOOTH",
"242 -70 OFFCURVE",
"250 -80 OFFCURVE",
"248 -95 CURVE SMOOTH",
"245 -110 OFFCURVE",
"233 -120 OFFCURVE",
"203 -120 CURVE SMOOTH",
"138 -120 LINE",
"133 -150 LINE",
"133 -150 OFFCURVE",
"160 -165 OFFCURVE",
"205 -165 CURVE SMOOTH",
"270 -165 OFFCURVE",
"306 -135 OFFCURVE",
"313 -95 CURVE SMOOTH",
"320 -55 OFFCURVE",
"295 -25 OFFCURVE",
"240 -25 CURVE SMOOTH"
);
}
);
width = 375;
},
{
hints = (
{
horizontal = 1;
place = "{-170, 49}";
},
{
horizontal = 1;
place = "{-79, 49}";
},
{
horizontal = 1;
place = "{-10, 70}";
},
{
horizontal = 1;
place = "{440, 70}";
},
{
horizontal = 1;
place = "{-9, 21}";
target = up;
type = BottomGhost;
}
);
layerId = "97C2AB1A-35E1-4EAE-9807-DD7336879977";
paths = (
{
closed = 1;
nodes = (
"229 -30 LINE",
"233 -10 LINE",
"232 -9 LINE",
"237 -9 OFFCURVE",
"242 -10 OFFCURVE",
"248 -10 CURVE SMOOTH",
"298 -10 OFFCURVE",
"350 0 OFFCURVE",
"381 10 CURVE",
"390 60 LINE",
"280 60 LINE SMOOTH",
"210 60 OFFCURVE",
"177 100 OFFCURVE",
"204 250 CURVE SMOOTH",
"230 400 OFFCURVE",
"277 440 OFFCURVE",
"337 440 CURVE SMOOTH",
"447 440 LINE",
"456 490 LINE",
"428 500 OFFCURVE",
"379 510 OFFCURVE",
"329 510 CURVE SMOOTH",
"199 510 OFFCURVE",
"117 440 OFFCURVE",
"84 250 CURVE SMOOTH",
"56 95 OFFCURVE",
"90 20 OFFCURVE",
"179 -2 CURVE",
"166 -79 LINE",
"221 -79 LINE SMOOTH",
"246 -79 OFFCURVE",
"249 -90 OFFCURVE",
"247 -100 CURVE SMOOTH",
"245 -111 OFFCURVE",
"238 -121 OFFCURVE",
"208 -121 CURVE SMOOTH",
"143 -121 LINE",
"137 -155 LINE",
"137 -155 OFFCURVE",
"160 -170 OFFCURVE",
"210 -170 CURVE SMOOTH",
"275 -170 OFFCURVE",
"315 -140 OFFCURVE",
"322 -100 CURVE SMOOTH",
"329 -60 OFFCURVE",
"304 -30 OFFCURVE",
"244 -30 CURVE SMOOTH"
);
}
);
width = 395;
}
);
unicode = 00E7;
},
{
glyphname = cent;
lastChange = "2016-08-30 19:25:56 +0000";
layers = (
{
hints = (
{
horizontal = 1;
place = "{450, 120}";
},
{
horizontal = 1;
place = "{-60, 21}";
target = up;
type = BottomGhost;
}
);
layerId = UUID0;
paths = (
{
closed = 1;
nodes = (
"429 450 LINE",
"436 490 LINE",
"415 497 OFFCURVE",
"384 504 OFFCURVE",
"354 508 CURVE",
"365 570 LINE",
"305 570 LINE",
"294 509 LINE",
"185 501 OFFCURVE",
"121 436 OFFCURVE",
"89 250 CURVE SMOOTH",
"56 68 OFFCURVE",
"94 2 OFFCURVE",
"203 -8 CURVE",
"194 -60 LINE",
"254 -60 LINE",
"263 -9 LINE",
"297 -6 OFFCURVE",
"336 2 OFFCURVE",
"361 10 CURVE",
"368 50 LINE",
"273 50 LINE",
"344 450 LINE"
);
},
{
closed = 1;
nodes = (
"200 374 OFFCURVE",
"234 426 OFFCURVE",
"283 443 CURVE",
"215 58 LINE",
"170 77 OFFCURVE",
"157 129 OFFCURVE",
"179 250 CURVE SMOOTH"
);
}
);
width = 375;
},
{
hints = (
{
horizontal = 1;
place = "{440, 130}";
},
{
horizontal = 1;
place = "{-60, 21}";
target = up;
type = BottomGhost;
}
);
layerId = "97C2AB1A-35E1-4EAE-9807-DD7336879977";
paths = (
{
closed = 1;
nodes = (
"214 -60 LINE",
"284 -60 LINE",
"293 -7 LINE",
"327 -4 OFFCURVE",
"359 3 OFFCURVE",
"381 10 CURVE",
"390 60 LINE",
"305 60 LINE",
"372 440 LINE",
"447 440 LINE",
"456 490 LINE",
"438 496 OFFCURVE",
"412 502 OFFCURVE",
"384 506 CURVE",
"395 570 LINE",
"325 570 LINE",
"314 509 LINE",
"192 504 OFFCURVE",
"116 432 OFFCURVE",
"84 250 CURVE SMOOTH",
"52 71 OFFCURVE",
"100 -1 OFFCURVE",
"223 -9 CURVE"
);
},
{
closed = 1;
nodes = (
"224 368 OFFCURVE",
"258 418 OFFCURVE",
"301 434 CURVE",
"236 68 LINE",
"197 85 OFFCURVE",
"183 136 OFFCURVE",
"204 250 CURVE SMOOTH"
);
}
);
width = 395;
}
);
unicode = 00A2;
},
{
glyphname = circumflex;
lastChange = "2016-08-30 19:25:56 +0000";
layers = (
{
hints = (
{
horizontal = 1;
place = "{550, 130}";
}
);
layerId = UUID0;
paths = (
{
closed = 1;
nodes = (
"176 550 LINE",
"252 624 LINE",
"301 550 LINE",
"361 550 LINE",
"309 680 LINE",
"214 680 LINE",
"116 550 LINE"
);
}
);
width = 285;
},
{
hints = (
{
horizontal = 1;
place = "{550, 130}";
}
);
layerId = "97C2AB1A-35E1-4EAE-9807-DD7336879977";
paths = (
{
closed = 1;
nodes = (
"192 550 LINE",
"261 620 LINE",
"304 550 LINE",
"381 550 LINE",
"324 680 LINE",
"219 680 LINE",
"116 550 LINE"
);
}
);
width = 305;
}
);
unicode = 02C6;
},
{
glyphname = colon;
lastChange = "2016-08-30 19:25:56 +0000";
layers = (
{
hints = (
{
horizontal = 1;
place = "{-5, 110}";
},
{
horizontal = 1;
place = "{390, 110}";
}
);
layerId = UUID0;
paths = (
{
closed = 1;
nodes = (
"58 105 LINE",
"39 -5 LINE",
"129 -5 LINE",
"148 105 LINE"
);
},
{
closed = 1;
nodes = (
"128 500 LINE",
"108 390 LINE",
"198 390 LINE",
"218 500 LINE"
);
}
);
width = 170;
},
{
hints = (
{
horizontal = 1;
place = "{-10, 120}";
},
{
horizontal = 1;
place = "{380, 120}";
}
);
layerId = "97C2AB1A-35E1-4EAE-9807-DD7336879977";
paths = (
{
closed = 1;
nodes = (
"59 110 LINE",
"38 -10 LINE",
"158 -10 LINE",
"179 110 LINE"
);
},
{
closed = 1;
nodes = (
"128 500 LINE",
"107 380 LINE",
"227 380 LINE",
"248 500 LINE"
);
}
);
width = 200;
}
);
unicode = 003A;
},
{
glyphname = comma;
lastChange = "2016-08-30 19:25:56 +0000";
layers = (
{
hints = (
{
horizontal = 1;
place = "{-115, 220}";
}
);
layerId = UUID0;
paths = (
{
closed = 1;
nodes = (
"19 -115 LINE",
"84 -115 LINE",
"153 105 LINE",
"58 105 LINE"
);
}
);
width = 170;
},
{
hints = (
{
horizontal = 1;
place = "{-120, 230}";
}
);
layerId = "97C2AB1A-35E1-4EAE-9807-DD7336879977";
paths = (
{
closed = 1;
nodes = (
"18 -120 LINE",
"98 -120 LINE",
"179 110 LINE",
"59 110 LINE"
);
}
);
width = 195;
}
);
unicode = 002C;
},
{
glyphname = copyright;
lastChange = "2016-08-30 19:25:56 +0000";
layers = (
{
hints = (
{
horizontal = 1;
place = "{-20, 60}";
},
{
horizontal = 1;
place = "{130, 60}";
},
{
horizontal = 1;
place = "{510, 60}";
},
{
horizontal = 1;
place = "{660, 60}";
}
);
layerId = UUID0;
paths = (
{
closed = 1;
nodes = (
"273 160 OFFCURVE",
"327 130 OFFCURVE",
"437 130 CURVE SMOOTH",
"482 130 OFFCURVE",
"534 140 OFFCURVE",
"566 150 CURVE",
"573 190 LINE",
"468 190 LINE SMOOTH",
"398 190 OFFCURVE",
"362 210 OFFCURVE",
"386 350 CURVE SMOOTH",
"411 490 OFFCURVE",
"454 510 OFFCURVE",
"524 510 CURVE SMOOTH",
"619 510 LINE",
"626 550 LINE",
"598 560 OFFCURVE",
"560 570 OFFCURVE",
"515 570 CURVE SMOOTH",
"405 570 OFFCURVE",
"340 540 OFFCURVE",
"306 350 CURVE SMOOTH"
);
},
{
closed = 1;
nodes = (
"681 660 OFFCURVE",
"771 550 OFFCURVE",
"736 350 CURVE",
"701 150 OFFCURVE",
"572 40 OFFCURVE",
"412 40 CURVE",
"252 40 OFFCURVE",
"161 150 OFFCURVE",
"196 350 CURVE SMOOTH",
"231 550 OFFCURVE",
"361 660 OFFCURVE",
"521 660 CURVE"
);
},
{
closed = 1;
nodes = (
"311 720 OFFCURVE",
"147 580 OFFCURVE",
"106 350 CURVE SMOOTH",
"66 120 OFFCURVE",
"181 -20 OFFCURVE",
"401 -20 CURVE",
"621 -20 OFFCURVE",
"786 120 OFFCURVE",
"826 350 CURVE",
"867 580 OFFCURVE",
"751 720 OFFCURVE",
"531 720 CURVE"
);
}
);
width = 810;
},
{
hints = (
{
horizontal = 1;
place = "{-20, 70}";
},
{
horizontal = 1;
place = "{130, 70}";
},
{
horizontal = 1;
place = "{500, 70}";
},
{
horizontal = 1;
place = "{650, 70}";
}
);
layerId = "97C2AB1A-35E1-4EAE-9807-DD7336879977";
paths = (
{
closed = 1;
nodes = (
"274 170 OFFCURVE",
"337 130 OFFCURVE",
"452 130 CURVE SMOOTH",
"507 130 OFFCURVE",
"559 140 OFFCURVE",
"591 150 CURVE",
"600 200 LINE",
"485 200 LINE SMOOTH",
"430 200 OFFCURVE",
"393 220 OFFCURVE",
"416 350 CURVE SMOOTH",
"439 480 OFFCURVE",
"483 500 OFFCURVE",
"538 500 CURVE SMOOTH",
"643 500 LINE",
"651 550 LINE",
"623 560 OFFCURVE",
"585 570 OFFCURVE",
"530 570 CURVE SMOOTH",
"415 570 OFFCURVE",
"338 530 OFFCURVE",
"306 350 CURVE SMOOTH"
);
},
{
closed = 1;
nodes = (
"723 160 OFFCURVE",
"593 50 OFFCURVE",
"428 50 CURVE SMOOTH",
"263 50 OFFCURVE",
"173 160 OFFCURVE",
"206 350 CURVE SMOOTH",
"240 540 OFFCURVE",
"369 650 OFFCURVE",
"534 650 CURVE SMOOTH",
"699 650 OFFCURVE",
"790 540 OFFCURVE",
"756 350 CURVE SMOOTH"
);
},
{
closed = 1;
nodes = (
"895 570 OFFCURVE",
"771 720 OFFCURVE",
"546 720 CURVE SMOOTH",
"321 720 OFFCURVE",
"145 570 OFFCURVE",
"106 350 CURVE SMOOTH",
"67 130 OFFCURVE",
"191 -20 OFFCURVE",
"416 -20 CURVE SMOOTH",
"641 -20 OFFCURVE",
"817 130 OFFCURVE",
"856 350 CURVE SMOOTH"
);
}
);
width = 840;
}
);
unicode = 00A9;
},
{
glyphname = currency;
lastChange = "2016-08-30 19:25:56 +0000";
layers = (
{
hints = (
{
horizontal = 1;
place = "{160, 65}";
},
{
horizontal = 1;
place = "{475, 65}";
},
{
horizontal = 1;
place = "{565, -20}";
target = down;
type = TopGhost;
},
{
horizontal = 1;
place = "{135, 21}";
target = up;
type = BottomGhost;
}
);
layerId = UUID0;
paths = (
{
closed = 1;
nodes = (
"396 265 OFFCURVE",
"349 225 OFFCURVE",
"299 225 CURVE SMOOTH",
"249 225 OFFCURVE",
"216 265 OFFCURVE",
"231 350 CURVE",
"246 435 OFFCURVE",
"293 475 OFFCURVE",
"343 475 CURVE",
"393 475 OFFCURVE",
"426 435 OFFCURVE",
"411 350 CURVE"
);
},
{
closed = 1;
nodes = (
"512 385 OFFCURVE",
"509 420 OFFCURVE",
"498 445 CURVE",
"580 515 LINE",
"539 565 LINE",
"458 500 LINE",
"437 525 OFFCURVE",
"395 540 OFFCURVE",
"354 540 CURVE",
"315 540 OFFCURVE",
"267 525 OFFCURVE",
"238 500 CURVE",
"179 565 LINE",
"120 515 LINE",
"178 445 LINE",
"159 420 OFFCURVE",
"142 385 OFFCURVE",
"136 350 CURVE",
"130 315 OFFCURVE",
"134 280 OFFCURVE",
"144 255 CURVE",
"62 185 LINE",
"103 135 LINE",
"185 200 LINE",
"205 175 OFFCURVE",
"248 160 OFFCURVE",
"287 160 CURVE SMOOTH",
"328 160 OFFCURVE",
"375 175 OFFCURVE",
"405 200 CURVE",
"463 135 LINE",
"522 185 LINE",
"464 255 LINE",
"484 280 OFFCURVE",
"500 315 OFFCURVE",
"506 350 CURVE"
);
}
);
width = 520;
},
{
hints = (
{
horizontal = 1;
place = "{160, 75}";
},
{
horizontal = 1;
place = "{465, 75}";
},
{
horizontal = 1;
place = "{575, -20}";
target = down;
type = TopGhost;
},
{
horizontal = 1;
place = "{125, 21}";
target = up;
type = BottomGhost;
}
);
layerId = "97C2AB1A-35E1-4EAE-9807-DD7336879977";
paths = (
{
closed = 1;
nodes = (
"254 425 OFFCURVE",
"301 465 OFFCURVE",
"341 465 CURVE SMOOTH",
"381 465 OFFCURVE",
"414 425 OFFCURVE",
"401 350 CURVE",
"388 275 OFFCURVE",
"341 235 OFFCURVE",
"301 235 CURVE",
"261 235 OFFCURVE",
"228 275 OFFCURVE",
"241 350 CURVE"
);
},
{
closed = 1;
nodes = (
"522 385 OFFCURVE",
"519 425 OFFCURVE",
"508 445 CURVE",
"590 515 LINE",
"541 575 LINE",
"459 510 LINE",
"442 525 OFFCURVE",
"405 540 OFFCURVE",
"355 540 CURVE SMOOTH",
"305 540 OFFCURVE",
"262 525 OFFCURVE",
"239 510 CURVE",
"181 575 LINE",
"110 515 LINE",
"168 445 LINE",
"149 425 OFFCURVE",
"132 385 OFFCURVE",
"126 350 CURVE",
"120 315 OFFCURVE",
"123 275 OFFCURVE",
"134 255 CURVE",
"52 185 LINE",
"102 125 LINE",
"183 190 LINE",
"200 175 OFFCURVE",
"238 160 OFFCURVE",
"288 160 CURVE",
"338 160 OFFCURVE",
"380 175 OFFCURVE",
"403 190 CURVE",
"462 125 LINE",
"532 185 LINE",
"474 255 LINE",
"493 275 OFFCURVE",
"510 315 OFFCURVE",
"516 350 CURVE"
);
}
);
width = 520;
}
);
unicode = 00A4;
},
{
glyphname = d;
lastChange = "2016-08-30 19:25:56 +0000";
layers = (
{
hints = (
{
horizontal = 1;
place = "{-10, 60}";
},
{
horizontal = 1;
place = "{450, 60}";
},
{
horizontal = 1;
place = "{0, 21}";
target = up;
type = BottomGhost;
},
{
horizontal = 1;
place = "{700, -20}";
target = down;
type = TopGhost;
}
);
layerId = UUID0;
paths = (
{
closed = 1;
nodes = (
"325 30 LINE",
"325 0 LINE",
"400 0 LINE",
"523 700 LINE",
"433 700 LINE",
"395 485 LINE",
"368 500 OFFCURVE",
"339 510 OFFCURVE",
"299 510 CURVE SMOOTH",
"194 510 OFFCURVE",
"124 450 OFFCURVE",
"89 250 CURVE SMOOTH",
"53 50 OFFCURVE",
"103 -10 OFFCURVE",
"208 -10 CURVE SMOOTH",
"248 -10 OFFCURVE",
"290 5 OFFCURVE",
"320 30 CURVE"
);
},
{
closed = 1;
nodes = (
"322 70 LINE",
"305 60 OFFCURVE",
"273 50 OFFCURVE",
"248 50 CURVE SMOOTH",
"183 50 OFFCURVE",
"150 90 OFFCURVE",
"179 250 CURVE",
"207 410 OFFCURVE",
"254 450 OFFCURVE",
"319 450 CURVE SMOOTH",
"344 450 OFFCURVE",
"372 440 OFFCURVE",
"385 430 CURVE"
);
}
);
width = 470;
},
{
hints = (
{
horizontal = 1;
place = "{-10, 70}";
},
{
horizontal = 1;
place = "{440, 70}";
},
{
horizontal = 1;
place = "{0, 21}";
target = up;
type = BottomGhost;
},
{
horizontal = 1;
place = "{700, -20}";
target = down;
type = TopGhost;
}
);
layerId = "97C2AB1A-35E1-4EAE-9807-DD7336879977";
paths = (
{
closed = 1;
nodes = (
"319 80 LINE",
"302 70 OFFCURVE",
"285 60 OFFCURVE",
"260 60 CURVE SMOOTH",
"210 60 OFFCURVE",
"177 100 OFFCURVE",
"204 250 CURVE SMOOTH",
"230 400 OFFCURVE",
"277 440 OFFCURVE",
"327 440 CURVE SMOOTH",
"352 440 OFFCURVE",
"370 430 OFFCURVE",
"379 420 CURVE"
);
},
{
closed = 1;
nodes = (
"263 -10 OFFCURVE",
"300 10 OFFCURVE",
"325 30 CURVE",
"330 30 LINE",
"340 0 LINE",
"425 0 LINE",
"548 700 LINE",
"428 700 LINE",
"390 485 LINE",
"372 500 OFFCURVE",
"344 510 OFFCURVE",
"309 510 CURVE SMOOTH",
"199 510 OFFCURVE",
"117 440 OFFCURVE",
"84 250 CURVE SMOOTH",
"50 60 OFFCURVE",
"108 -10 OFFCURVE",
"208 -10 CURVE SMOOTH"
);
}
);
width = 495;
}
);
unicode = 0064;
},
{
glyphname = dagger;
lastChange = "2016-08-30 19:25:56 +0000";
layers = (
{
hints = (
{
horizontal = 1;
place = "{390, 70}";
},
{
horizontal = 1;
place = "{700, -20}";
target = down;
type = TopGhost;
},
{
horizontal = 1;
place = "{-200, 21}";
target = up;
type = BottomGhost;
}
);
layerId = UUID0;
paths = (
{
closed = 1;
nodes = (
"338 390 LINE",
"498 390 LINE",
"511 460 LINE",
"351 460 LINE",
"393 700 LINE",
"303 700 LINE",
"261 460 LINE",
"101 460 LINE",
"88 390 LINE",
"248 390 LINE",
"144 -200 LINE",
"234 -200 LINE"
);
}
);
width = 450;
},
{
hints = (
{
horizontal = 1;
place = "{385, 80}";
},
{
horizontal = 1;
place = "{700, -20}";
target = down;
type = TopGhost;
},
{
horizontal = 1;
place = "{-200, 21}";
target = up;
type = BottomGhost;
}
);
layerId = "97C2AB1A-35E1-4EAE-9807-DD7336879977";
paths = (
{
closed = 1;
nodes = (
"362 385 LINE",
"517 385 LINE",
"531 465 LINE",
"376 465 LINE",
"418 700 LINE",
"298 700 LINE",
"256 465 LINE",
"101 465 LINE",
"87 385 LINE",
"242 385 LINE",
"139 -200 LINE",
"259 -200 LINE"
);
}
);
width = 470;
}
);
unicode = 2020;
},
{
glyphname = daggerdbl;
lastChange = "2016-08-30 19:25:56 +0000";
layers = (
{
hints = (
{
horizontal = 1;
place = "{40, 70}";
},
{
horizontal = 1;
place = "{390, 70}";
},
{
horizontal = 1;
place = "{700, -20}";
target = down;
type = TopGhost;
},
{
horizontal = 1;
place = "{-200, 21}";
target = up;
type = BottomGhost;
}
);
layerId = UUID0;
paths = (
{
closed = 1;
nodes = (
"393 700 LINE",
"303 700 LINE",
"261 460 LINE",
"101 460 LINE",
"88 390 LINE",
"248 390 LINE",
"199 110 LINE",
"39 110 LINE",
"27 40 LINE",
"187 40 LINE",
"144 -200 LINE",
"234 -200 LINE",
"277 40 LINE",
"437 40 LINE",
"449 110 LINE",
"289 110 LINE",
"338 390 LINE",
"498 390 LINE",
"511 460 LINE",
"351 460 LINE"
);
}
);
width = 450;
},
{
hints = (
{
horizontal = 1;
place = "{35, 80}";
},
{
horizontal = 1;
place = "{385, 80}";
},
{
horizontal = 1;
place = "{700, -20}";
target = down;
type = TopGhost;
},
{
horizontal = 1;
place = "{-200, 21}";
target = up;
type = BottomGhost;
}
);
layerId = "97C2AB1A-35E1-4EAE-9807-DD7336879977";
paths = (
{
closed = 1;
nodes = (
"418 700 LINE",
"298 700 LINE",
"256 465 LINE",
"101 465 LINE",
"87 385 LINE",
"242 385 LINE",
"195 115 LINE",
"40 115 LINE",
"26 35 LINE",
"181 35 LINE",
"139 -200 LINE",
"259 -200 LINE",
"301 35 LINE",
"456 35 LINE",
"470 115 LINE",
"315 115 LINE",
"362 385 LINE",
"517 385 LINE",
"531 465 LINE",
"376 465 LINE"
);
}
);
width = 470;
}
);
unicode = 2021;
},
{
glyphname = degree;
lastChange = "2016-08-30 19:25:56 +0000";
layers = (
{
hints = (
{
horizontal = 1;
place = "{390, 60}";
},
{
horizontal = 1;
place = "{650, 60}";
}
);
layerId = UUID0;
paths = (
{
closed = 1;
nodes = (
"229 450 OFFCURVE",
"204 480 OFFCURVE",
"216 550 CURVE",
"229 620 OFFCURVE",
"264 650 OFFCURVE",
"304 650 CURVE",
"344 650 OFFCURVE",
"369 620 OFFCURVE",
"356 550 CURVE SMOOTH",
"344 480 OFFCURVE",
"309 450 OFFCURVE",
"269 450 CURVE SMOOTH"
);
},
{
closed = 1;
nodes = (
"225 710 OFFCURVE",
"154 650 OFFCURVE",
"136 550 CURVE",
"119 450 OFFCURVE",
"168 390 OFFCURVE",
"258 390 CURVE",
"348 390 OFFCURVE",
"419 450 OFFCURVE",
"436 550 CURVE SMOOTH",
"454 650 OFFCURVE",
"405 710 OFFCURVE",
"315 710 CURVE"
);
}
);
width = 380;
},
{
hints = (
{
horizontal = 1;
place = "{390, 70}";
},
{
horizontal = 1;
place = "{640, 70}";
}
);
layerId = "97C2AB1A-35E1-4EAE-9807-DD7336879977";
paths = (
{
closed = 1;
nodes = (
"347 640 OFFCURVE",
"372 610 OFFCURVE",
"361 550 CURVE SMOOTH",
"351 490 OFFCURVE",
"316 460 OFFCURVE",
"286 460 CURVE",
"256 460 OFFCURVE",
"231 490 OFFCURVE",
"241 550 CURVE SMOOTH",
"252 610 OFFCURVE",
"287 640 OFFCURVE",
"317 640 CURVE"
);
},
{
closed = 1;
nodes = (
"225 710 OFFCURVE",
"154 650 OFFCURVE",
"136 550 CURVE SMOOTH",
"119 450 OFFCURVE",
"168 390 OFFCURVE",
"273 390 CURVE",
"378 390 OFFCURVE",
"449 450 OFFCURVE",
"466 550 CURVE SMOOTH",
"484 650 OFFCURVE",
"435 710 OFFCURVE",
"330 710 CURVE"
);
}
);
width = 410;
}
);
unicode = 00B0;
},
{
glyphname = dieresis;
lastChange = "2016-08-30 19:25:56 +0000";
layers = (
{
hints = (
{
horizontal = 1;
place = "{580, 110}";
}
);
layerId = UUID0;
paths = (
{
closed = 1;
nodes = (
"141 690 LINE",
"122 580 LINE",
"212 580 LINE",
"231 690 LINE"
);
},
{
closed = 1;
nodes = (
"301 690 LINE",
"282 580 LINE",
"372 580 LINE",
"391 690 LINE"
);
}
);
width = 290;
},
{
hints = (
{
horizontal = 1;
place = "{570, 120}";
}
);
layerId = "97C2AB1A-35E1-4EAE-9807-DD7336879977";
paths = (
{
closed = 1;
nodes = (
"141 690 LINE",
"120 570 LINE",
"230 570 LINE",
"251 690 LINE"
);
},
{
closed = 1;
nodes = (
"301 690 LINE",
"280 570 LINE",
"390 570 LINE",
"411 690 LINE"
);
}
);
width = 310;
}
);
unicode = 00A8;
},
{
glyphname = divide;
lastChange = "2016-08-30 19:25:56 +0000";
layers = (
{
hints = (
{
horizontal = 1;
place = "{95, 90}";
},
{
horizontal = 1;
place = "{260, 80}";
},
{
horizontal = 1;
place = "{415, 90}";
}
);
layerId = UUID0;
paths = (
{
closed = 1;
nodes = (
"75 260 LINE",
"445 260 LINE",
"459 340 LINE",
"89 340 LINE"
);
},
{
closed = 1;
nodes = (
"207 185 LINE",
"191 95 LINE",
"271 95 LINE",
"287 185 LINE"
);
},
{
closed = 1;
nodes = (
"264 505 LINE",
"248 415 LINE",
"328 415 LINE",
"344 505 LINE"
);
}
);
width = 430;
},
{
hints = (
{
horizontal = 1;
place = "{85, 110}";
},
{
horizontal = 1;
place = "{255, 90}";
},
{
horizontal = 1;
place = "{405, 110}";
}
);
layerId = "97C2AB1A-35E1-4EAE-9807-DD7336879977";
paths = (
{
closed = 1;
nodes = (
"74 255 LINE",
"464 255 LINE",
"480 345 LINE",
"90 345 LINE"
);
},
{
closed = 1;
nodes = (
"209 195 LINE",
"189 85 LINE",
"289 85 LINE",
"309 195 LINE"
);
},
{
closed = 1;
nodes = (
"265 515 LINE",
"246 405 LINE",
"346 405 LINE",
"365 515 LINE"
);
}
);
width = 450;
}
);
unicode = 00F7;
},
{
glyphname = dollar;
lastChange = "2016-08-30 19:25:56 +0000";
layers = (
{
hints = (
{
horizontal = 1;
place = "{-90, 145}";
},
{
horizontal = 1;
place = "{-10, 65}";
},
{
horizontal = 1;
place = "{645, 64}";
},
{
horizontal = 1;
place = "{645, 145}";
}
);
layerId = UUID0;
paths = (
{
closed = 1;
nodes = (
"104 395 OFFCURVE",
"177 354 OFFCURVE",
"246 319 CURVE",
"199 55 LINE",
"44 55 LINE",
"36 10 LINE",
"65 0 OFFCURVE",
"123 -10 OFFCURVE",
"183 -10 CURVE SMOOTH",
"188 -10 LINE",
"174 -90 LINE",
"234 -90 LINE",
"248 -6 LINE",
"367 9 OFFCURVE",
"421 68 OFFCURVE",
"441 180 CURVE SMOOTH",
"465 312 OFFCURVE",
"387 350 OFFCURVE",
"317 385 CURVE",
"363 645 LINE",
"488 645 LINE",
"496 690 LINE",
"472 698 OFFCURVE",
"425 707 OFFCURVE",
"375 709 CURVE",
"389 790 LINE",
"329 790 LINE",
"314 708 LINE",
"206 697 OFFCURVE",
"147 638 OFFCURVE",
"128 530 CURVE SMOOTH"
);
},
{
closed = 1;
nodes = (
"341 121 OFFCURVE",
"314 84 OFFCURVE",
"261 66 CURVE",
"300 289 LINE",
"336 266 OFFCURVE",
"361 236 OFFCURVE",
"351 180 CURVE SMOOTH"
);
},
{
closed = 1;
nodes = (
"228 585 OFFCURVE",
"255 621 OFFCURVE",
"302 636 CURVE",
"263 417 LINE",
"229 441 OFFCURVE",
"208 472 OFFCURVE",
"218 530 CURVE SMOOTH"
);
}
);
width = 445;
},
{
hints = (
{
horizontal = 1;
place = "{-90, 155}";
},
{
horizontal = 1;
place = "{-10, 75}";
},
{
horizontal = 1;
place = "{635, 74}";
},
{
horizontal = 1;
place = "{635, 155}";
}
);
layerId = "97C2AB1A-35E1-4EAE-9807-DD7336879977";
paths = (
{
closed = 1;
nodes = (
"98 386 OFFCURVE",
"181 345 OFFCURVE",
"254 308 CURVE",
"211 66 LINE",
"203 65 OFFCURVE",
"195 65 OFFCURVE",
"186 65 CURVE SMOOTH",
"46 65 LINE",
"36 10 LINE",
"65 0 OFFCURVE",
"123 -10 OFFCURVE",
"193 -10 CURVE SMOOTH",
"198 -10 LINE",
"184 -90 LINE",
"254 -90 LINE",
"269 -4 LINE",
"388 14 OFFCURVE",
"448 79 OFFCURVE",
"466 180 CURVE SMOOTH",
"490 315 OFFCURVE",
"410 354 OFFCURVE",
"339 392 CURVE",
"381 635 LINE",
"506 635 LINE",
"516 690 LINE",
"493 698 OFFCURVE",
"448 707 OFFCURVE",
"395 709 CURVE",
"409 790 LINE",
"339 790 LINE",
"324 708 LINE",
"210 697 OFFCURVE",
"141 630 OFFCURVE",
"123 530 CURVE SMOOTH"
);
},
{
closed = 1;
nodes = (
"251 574 OFFCURVE",
"274 606 OFFCURVE",
"309 623 CURVE",
"276 432 LINE",
"250 454 OFFCURVE",
"235 483 OFFCURVE",
"243 530 CURVE SMOOTH"
);
},
{
closed = 1;
nodes = (
"338 136 OFFCURVE",
"319 104 OFFCURVE",
"284 85 CURVE",
"317 269 LINE",
"340 248 OFFCURVE",
"353 221 OFFCURVE",
"346 180 CURVE SMOOTH"
);
}
);
width = 465;
}
);
unicode = 0024;
},
{
glyphname = dotaccent;
lastChange = "2016-08-30 19:25:56 +0000";
layers = (
{
hints = (
{
horizontal = 1;
place = "{570, 110}";
}
);
layerId = UUID0;
paths = (
{
closed = 1;
nodes = (
"139 680 LINE",
"120 570 LINE",
"210 570 LINE",
"229 680 LINE"
);
}
);
width = 130;
},
{
hints = (
{
horizontal = 1;
place = "{560, 120}";
}
);
layerId = "97C2AB1A-35E1-4EAE-9807-DD7336879977";
paths = (
{
closed = 1;
nodes = (
"139 680 LINE",
"118 560 LINE",
"228 560 LINE",
"249 680 LINE"
);
}
);
width = 150;
}
);
unicode = 02D9;
},
{
glyphname = e;
lastChange = "2016-08-30 19:25:56 +0000";
layers = (
{
hints = (
{
horizontal = 1;
place = "{-10, 60}";
},
{
horizontal = 1;
place = "{210, 60}";
},
{
horizontal = 1;
place = "{455, 55}";
}
);
layerId = UUID0;
paths = (
{
closed = 1;
nodes = (
"182 270 LINE",
"208 415 OFFCURVE",
"255 455 OFFCURVE",
"310 455 CURVE SMOOTH",
"355 455 OFFCURVE",
"388 415 OFFCURVE",
"376 350 CURVE SMOOTH",
"367 300 OFFCURVE",
"332 270 OFFCURVE",
"277 270 CURVE SMOOTH"
);
},
{
closed = 1;
nodes = (
"267 210 LINE SMOOTH",
"392 210 OFFCURVE",
"450 260 OFFCURVE",
"466 350 CURVE SMOOTH",
"484 450 OFFCURVE",
"434 510 OFFCURVE",
"319 510 CURVE SMOOTH",
"194 510 OFFCURVE",
"124 450 OFFCURVE",
"89 250 CURVE SMOOTH",
"53 50 OFFCURVE",
"103 -10 OFFCURVE",
"253 -10 CURVE SMOOTH",
"293 -10 OFFCURVE",
"345 0 OFFCURVE",
"376 10 CURVE",
"383 50 LINE",
"283 50 LINE SMOOTH",
"183 50 OFFCURVE",
"150 90 OFFCURVE",
"172 210 CURVE"
);
}
);
width = 430;
},
{
hints = (
{
horizontal = 1;
place = "{-10, 70}";
},
{
horizontal = 1;
place = "{205, 70}";
},
{
horizontal = 1;
place = "{445, 65}";
}
);
layerId = "97C2AB1A-35E1-4EAE-9807-DD7336879977";
paths = (
{
closed = 1;
nodes = (
"208 275 LINE",
"233 415 OFFCURVE",
"268 445 OFFCURVE",
"323 445 CURVE SMOOTH",
"363 445 OFFCURVE",
"388 415 OFFCURVE",
"377 355 CURVE",
"368 305 OFFCURVE",
"333 275 OFFCURVE",
"288 275 CURVE"
);
},
{
closed = 1;
nodes = (
"276 205 LINE",
"401 205 OFFCURVE",
"479 255 OFFCURVE",
"497 355 CURVE",
"514 450 OFFCURVE",
"454 510 OFFCURVE",
"339 510 CURVE SMOOTH",
"199 510 OFFCURVE",
"117 440 OFFCURVE",
"84 250 CURVE SMOOTH",
"50 60 OFFCURVE",
"108 -10 OFFCURVE",
"263 -10 CURVE SMOOTH",
"313 -10 OFFCURVE",
"365 0 OFFCURVE",
"396 10 CURVE",
"405 60 LINE",
"295 60 LINE SMOOTH",
"210 60 OFFCURVE",
"177 100 OFFCURVE",
"196 205 CURVE"
);
}
);
width = 465;
}
);
unicode = 0065;
},
{
glyphname = eacute;
lastChange = "2016-08-30 19:25:56 +0000";
layers = (
{
hints = (
{
horizontal = 1;
place = "{-10, 60}";
},
{
horizontal = 1;
place = "{210, 60}";
},
{
horizontal = 1;
place = "{455, 55}";
},
{
horizontal = 1;
place = "{455, 235}";
}
);
layerId = UUID0;
paths = (
{
closed = 1;
nodes = (
"343 560 LINE",
"436 690 LINE",
"341 690 LINE",
"283 560 LINE"
);
},
{
closed = 1;
nodes = (
"182 270 LINE",
"208 415 OFFCURVE",
"255 455 OFFCURVE",
"310 455 CURVE SMOOTH",
"355 455 OFFCURVE",
"388 415 OFFCURVE",
"376 350 CURVE SMOOTH",
"367 300 OFFCURVE",
"332 270 OFFCURVE",
"277 270 CURVE SMOOTH"
);
},
{
closed = 1;
nodes = (
"267 210 LINE SMOOTH",
"392 210 OFFCURVE",
"450 260 OFFCURVE",
"466 350 CURVE SMOOTH",
"484 450 OFFCURVE",
"434 510 OFFCURVE",
"319 510 CURVE SMOOTH",
"194 510 OFFCURVE",
"124 450 OFFCURVE",
"89 250 CURVE SMOOTH",
"53 50 OFFCURVE",
"103 -10 OFFCURVE",
"253 -10 CURVE SMOOTH",
"293 -10 OFFCURVE",
"345 0 OFFCURVE",
"376 10 CURVE",
"383 50 LINE",
"283 50 LINE SMOOTH",
"183 50 OFFCURVE",
"150 90 OFFCURVE",
"172 210 CURVE"
);
}
);
width = 435;
},
{
hints = (
{
horizontal = 1;
place = "{-10, 70}";
},
{
horizontal = 1;
place = "{205, 70}";
},
{
horizontal = 1;
place = "{445, 65}";
},
{
horizontal = 1;
place = "{560, 130}";
}
);
layerId = "97C2AB1A-35E1-4EAE-9807-DD7336879977";
paths = (
{
closed = 1;
nodes = (
"358 560 LINE",
"456 690 LINE",
"341 690 LINE",
"283 560 LINE"
);
},
{
closed = 1;
nodes = (
"276 205 LINE SMOOTH",
"401 205 OFFCURVE",
"479 255 OFFCURVE",
"497 355 CURVE SMOOTH",
"514 450 OFFCURVE",
"454 510 OFFCURVE",
"339 510 CURVE SMOOTH",
"199 510 OFFCURVE",
"117 440 OFFCURVE",
"84 250 CURVE SMOOTH",
"50 60 OFFCURVE",
"108 -10 OFFCURVE",
"263 -10 CURVE SMOOTH",
"313 -10 OFFCURVE",
"365 0 OFFCURVE",
"396 10 CURVE",
"405 60 LINE",
"295 60 LINE SMOOTH",
"210 60 OFFCURVE",
"177 100 OFFCURVE",
"196 205 CURVE"
);
},
{
closed = 1;
nodes = (
"208 275 LINE",
"233 415 OFFCURVE",
"268 445 OFFCURVE",
"323 445 CURVE SMOOTH",
"363 445 OFFCURVE",
"388 415 OFFCURVE",
"377 355 CURVE SMOOTH",
"368 305 OFFCURVE",
"333 275 OFFCURVE",
"288 275 CURVE SMOOTH"
);
}
);
width = 465;
}
);
unicode = 00E9;
},
{
glyphname = ecircumflex;
lastChange = "2016-08-30 19:25:56 +0000";
layers = (
{
hints = (
{
horizontal = 1;
place = "{-10, 60}";
},
{
horizontal = 1;
place = "{210, 60}";
},
{
horizontal = 1;
place = "{455, 55}";
},
{
horizontal = 1;
place = "{550, 130}";
}
);
layerId = UUID0;
paths = (
{
closed = 1;
nodes = (
"256 550 LINE",
"332 624 LINE",
"381 550 LINE",
"441 550 LINE",
"389 680 LINE",
"294 680 LINE",
"196 550 LINE"
);
},
{
closed = 1;
nodes = (
"182 270 LINE",
"208 415 OFFCURVE",
"255 455 OFFCURVE",
"310 455 CURVE SMOOTH",
"355 455 OFFCURVE",
"388 415 OFFCURVE",
"376 350 CURVE SMOOTH",
"367 300 OFFCURVE",
"332 270 OFFCURVE",
"277 270 CURVE SMOOTH"
);
},
{
closed = 1;
nodes = (
"267 210 LINE SMOOTH",
"392 210 OFFCURVE",
"450 260 OFFCURVE",
"466 350 CURVE SMOOTH",
"484 450 OFFCURVE",
"434 510 OFFCURVE",
"319 510 CURVE SMOOTH",
"194 510 OFFCURVE",
"124 450 OFFCURVE",
"89 250 CURVE SMOOTH",
"53 50 OFFCURVE",
"103 -10 OFFCURVE",
"253 -10 CURVE SMOOTH",
"293 -10 OFFCURVE",
"345 0 OFFCURVE",
"376 10 CURVE",
"383 50 LINE",
"283 50 LINE SMOOTH",
"183 50 OFFCURVE",
"150 90 OFFCURVE",
"172 210 CURVE"
);
}
);
width = 435;
},
{
hints = (
{
horizontal = 1;
place = "{-10, 70}";
},
{
horizontal = 1;
place = "{205, 70}";
},
{
horizontal = 1;
place = "{445, 65}";
},
{
horizontal = 1;
place = "{550, 130}";
}
);
layerId = "97C2AB1A-35E1-4EAE-9807-DD7336879977";
paths = (
{
closed = 1;
nodes = (
"272 550 LINE",
"341 620 LINE",
"384 550 LINE",
"461 550 LINE",
"404 680 LINE",
"299 680 LINE",
"196 550 LINE"
);
},
{
closed = 1;
nodes = (
"276 205 LINE SMOOTH",
"401 205 OFFCURVE",
"479 255 OFFCURVE",
"497 355 CURVE SMOOTH",
"514 450 OFFCURVE",
"454 510 OFFCURVE",
"339 510 CURVE SMOOTH",
"199 510 OFFCURVE",
"117 440 OFFCURVE",
"84 250 CURVE SMOOTH",
"50 60 OFFCURVE",
"108 -10 OFFCURVE",
"263 -10 CURVE SMOOTH",
"313 -10 OFFCURVE",
"365 0 OFFCURVE",
"396 10 CURVE",
"405 60 LINE",
"295 60 LINE SMOOTH",
"210 60 OFFCURVE",
"177 100 OFFCURVE",
"196 205 CURVE"
);
},
{
closed = 1;
nodes = (
"208 275 LINE",
"233 415 OFFCURVE",
"268 445 OFFCURVE",
"323 445 CURVE SMOOTH",
"363 445 OFFCURVE",
"388 415 OFFCURVE",
"377 355 CURVE SMOOTH",
"368 305 OFFCURVE",
"333 275 OFFCURVE",
"288 275 CURVE SMOOTH"
);
}
);
width = 465;
}
);
unicode = 00EA;
},
